{"glyphs":{"0":{"ha":593,"x_min":96,"x_max":683,"o":"m 545 911 q 683 721 683 911 q 637 463 683 606 q 512 190 591 319 q 250 -7 393 -7 q 137 50 178 -7 q 96 207 96 106 q 229 659 96 429 q 380 846 298 781 q 545 911 463 911 m 490 845 q 266 660 370 845 q 163 257 163 475 q 290 76 163 76 q 514 265 422 76 q 612 671 612 467 q 490 845 612 845 z "},"1":{"ha":593,"x_min":134,"x_max":595,"o":"m 344 800 l 340 821 q 357 825 355 825 l 436 844 l 496 857 q 595 894 552 871 q 528 718 572 841 q 258 54 366 267 l 249 37 l 239 31 q 134 -6 175 -1 q 248 212 182 67 q 366 504 313 356 l 437 701 q 465 795 465 778 q 444 818 467 818 q 394 810 432 818 q 344 800 360 803 z "},"2":{"ha":593,"x_min":-75,"x_max":685,"o":"m 452 0 l -75 0 l -43 57 q 183 209 56 109 q 399 404 311 309 q 543 592 487 498 q 598 741 598 686 q 556 834 598 796 q 452 873 514 873 q 332 819 382 873 q 269 677 281 765 q 227 744 227 698 q 318 857 227 808 q 528 906 410 906 q 642 864 599 906 q 685 752 685 822 q 614 584 685 680 q 98 92 457 372 l 62 63 l 315 63 l 353 64 q 436 74 418 64 q 493 143 455 85 q 498 151 495 145 l 533 151 q 452 0 477 64 z "},"3":{"ha":593,"x_min":14,"x_max":695,"o":"m 323 463 q 544 280 544 439 q 447 74 544 161 q 215 -12 349 -12 q 70 23 126 -12 q 14 113 14 58 q 25 170 14 137 q 98 89 41 119 q 239 60 155 60 q 432 125 355 60 q 508 292 508 191 q 250 446 508 446 q 201 443 237 446 q 267 547 239 493 q 304 545 292 545 q 516 609 426 545 q 606 758 606 672 q 573 827 606 800 q 489 854 540 854 q 368 807 420 854 q 300 681 316 760 q 270 733 270 697 q 359 841 270 798 q 571 892 465 892 q 661 862 627 892 q 695 782 695 832 q 597 612 695 690 q 420 538 529 557 q 365 518 382 531 q 328 470 347 505 l 323 463 z "},"4":{"ha":593,"x_min":41,"x_max":721,"o":"m 347 872 l 345 895 q 382 892 372 892 q 498 898 441 892 q 467 773 498 846 q 349 572 422 666 q 163 385 275 479 l 153 376 q 179 374 177 374 l 370 372 l 382 371 l 423 484 q 487 625 460 584 q 569 703 514 666 q 701 762 654 762 q 721 731 721 762 q 720 720 721 728 q 675 726 701 726 q 584 675 622 726 q 496 486 546 625 l 454 368 q 477 367 470 367 q 627 468 606 367 q 652 441 652 457 q 584 367 652 409 q 430 303 515 324 l 324 13 q 281 8 295 11 l 254 2 q 245 0 251 1 l 357 303 l 320 304 l 163 306 l 41 303 q 85 379 69 342 q 315 610 211 425 q 401 839 401 762 q 347 872 401 868 z "},"5":{"ha":593,"x_min":44,"x_max":751,"o":"m 704 807 l 423 807 l 375 701 q 328 566 328 596 q 389 446 328 514 l 427 404 q 485 275 485 339 q 399 96 485 191 q 183 -12 301 -12 q 83 16 123 -12 q 44 87 44 44 q 59 153 44 120 q 227 43 83 43 q 362 92 305 43 q 420 209 420 141 q 370 321 420 261 l 305 397 q 269 484 269 441 q 294 571 269 509 q 330 658 311 612 l 423 887 l 443 888 q 684 894 564 894 l 751 893 q 747 885 747 886 l 727 851 q 709 817 726 848 l 704 807 z "},"6":{"ha":593,"x_min":58,"x_max":842,"o":"m 842 871 q 405 655 572 814 q 214 409 292 548 q 136 176 136 270 q 172 75 136 113 q 264 37 207 37 q 412 117 348 37 q 476 302 476 197 q 449 389 476 355 q 377 422 422 422 q 199 228 271 422 q 192 267 192 249 q 265 399 192 338 q 422 460 338 460 q 518 424 481 460 q 555 331 555 389 q 441 100 555 204 q 321 18 386 49 q 205 -14 256 -14 q 99 35 140 -14 q 58 161 58 83 q 169 455 58 299 q 467 737 279 610 q 653 841 557 798 q 795 884 749 884 q 842 871 812 884 z "},"7":{"ha":593,"x_min":85,"x_max":760,"o":"m 760 895 l 757 885 q 640 637 713 746 q 533 508 589 564 q 344 342 478 452 q 111 69 111 149 q 182 20 111 26 q 138 -13 168 -13 q 100 5 115 -13 q 85 50 85 22 q 152 228 85 130 q 327 409 218 326 l 470 519 q 703 815 658 662 l 437 815 l 397 815 q 318 798 338 815 q 275 710 297 780 l 252 710 q 309 895 292 821 l 760 895 z "},"8":{"ha":593,"x_min":56,"x_max":692,"o":"m 332 467 q 265 649 265 550 q 354 825 265 745 q 547 905 442 905 q 652 867 612 905 q 692 768 692 829 q 623 602 692 671 q 457 532 554 532 q 404 578 404 532 q 404 587 404 581 q 475 557 439 557 q 573 615 530 557 q 615 747 615 672 q 582 829 615 799 q 491 860 548 860 q 376 811 422 860 q 330 690 330 762 q 355 593 330 649 q 415 496 379 536 l 440 467 q 530 277 530 366 q 401 52 530 147 q 235 -13 313 -13 q 106 36 157 -13 q 56 161 56 85 q 131 353 56 270 q 332 467 206 437 m 347 448 q 193 349 252 420 q 135 188 135 277 q 174 77 135 118 q 279 37 213 37 q 407 91 357 37 q 458 227 458 144 q 437 320 458 277 q 355 437 416 363 q 347 448 352 441 z "},"9":{"ha":593,"x_min":-7,"x_max":667,"o":"m 529 694 q 555 637 555 675 q 490 506 555 581 q 336 424 418 424 q 240 463 276 424 q 204 569 204 503 q 315 802 204 701 q 518 893 414 893 q 628 842 589 893 q 667 699 667 791 q 372 171 667 429 q 183 37 276 86 q 30 -13 91 -13 q -7 3 2 -13 q 366 198 210 48 q 529 429 466 294 q 592 682 592 564 q 553 797 592 752 q 453 841 515 841 q 324 774 378 841 q 271 614 271 708 q 301 514 271 552 q 382 476 332 476 q 485 535 445 476 q 529 694 525 595 z "}," ":{"ha":347,"x_min":0,"x_max":0,"o":""}," ":{"ha":347,"x_min":0,"x_max":0,"o":""},"!":{"ha":276,"x_min":76,"x_max":441,"o":"m 441 906 q 308 544 406 795 q 149 158 210 292 q 136 232 136 192 q 191 453 136 310 l 256 623 q 325 833 325 803 q 246 880 325 880 l 253 901 l 269 901 l 348 901 q 441 906 399 901 m 122 77 q 153 46 153 77 q 139 14 153 28 q 108 0 125 0 q 76 31 76 0 q 90 63 76 49 q 122 77 104 77 z "},"\"":{"ha":239,"x_min":215,"x_max":467,"o":"m 356 911 q 307 810 333 865 l 269 726 l 260 710 l 243 710 q 215 709 235 710 q 255 808 232 745 q 280 876 260 822 l 292 908 l 305 908 q 356 911 326 908 m 467 911 q 418 810 444 865 l 379 726 l 372 710 l 353 710 q 326 709 347 710 q 366 808 343 745 q 391 876 371 822 l 404 908 l 416 908 q 467 911 437 908 z "},"#":{"ha":555,"x_min":-18,"x_max":675,"o":"m 498 577 l 504 590 q 581 827 581 779 q 515 866 581 866 l 515 888 l 527 888 l 593 889 l 663 894 q 675 895 671 895 q 665 866 667 871 l 619 732 q 563 595 603 686 l 555 577 l 650 577 l 650 555 l 545 555 l 538 542 q 467 391 496 449 l 460 379 l 577 379 l 577 357 l 448 357 l 441 345 q 222 0 351 176 l 186 0 l 210 35 q 399 357 322 205 l 244 357 l 237 345 q 18 0 145 172 l -18 0 l 5 35 q 195 357 120 209 l 82 357 l 82 379 l 206 379 l 214 396 q 280 543 249 468 l 285 555 l 155 555 l 155 577 l 294 577 l 300 590 l 308 610 q 376 827 376 782 q 311 866 376 866 l 311 888 l 323 888 l 389 889 l 458 894 q 471 895 466 895 q 460 866 463 871 l 414 732 q 358 595 398 686 l 351 577 l 498 577 m 489 555 l 340 555 l 335 542 q 262 391 301 467 l 256 379 l 410 379 l 418 396 q 484 543 454 469 l 489 555 z "},"$":{"ha":593,"x_min":22,"x_max":762,"o":"m 762 907 l 758 893 q 690 729 732 828 l 681 710 l 657 710 q 683 803 683 775 q 614 844 683 844 q 393 773 483 844 q 302 597 302 702 q 325 509 302 549 q 407 416 348 470 l 410 426 l 431 482 q 471 627 471 591 q 408 665 471 665 l 408 686 l 417 686 l 477 686 l 538 691 q 550 691 546 691 l 547 682 q 441 402 503 545 l 437 391 l 443 385 l 485 342 q 541 229 541 283 q 421 39 541 124 q 224 -23 334 -23 l 153 -126 l 127 -126 l 195 -22 q 22 144 22 3 q 119 356 22 235 l 126 366 q 170 361 155 361 l 185 361 l 194 361 l 191 352 q 165 295 179 323 l 161 284 q 151 283 152 283 l 123 286 q 109 283 117 286 q 56 184 56 263 q 100 77 56 122 q 218 18 143 33 q 362 309 283 117 l 369 324 l 358 334 q 266 439 291 395 q 240 539 240 484 q 287 689 240 614 q 418 822 334 764 q 714 909 544 909 q 762 907 740 909 m 399 301 l 387 275 q 248 14 312 115 q 271 14 263 14 q 417 64 351 14 q 484 176 484 115 q 399 301 484 221 z "},"%":{"ha":981,"x_min":245,"x_max":929,"o":"m 887 909 l 319 0 l 290 14 l 859 922 l 887 909 m 800 357 q 891 318 854 357 q 929 224 929 279 q 851 63 929 144 q 698 -18 774 -18 q 593 22 636 -18 q 550 123 550 63 q 629 282 550 208 q 800 357 709 357 m 767 312 q 648 266 699 312 q 596 160 596 220 q 630 68 596 102 q 722 34 665 34 q 832 79 787 34 q 878 189 878 125 q 847 277 878 243 q 767 312 816 312 m 494 944 q 586 905 549 944 q 624 810 624 867 q 546 650 624 732 q 393 569 469 569 q 288 610 331 569 q 245 709 245 650 q 324 869 245 795 q 494 944 404 944 m 462 899 q 342 853 394 899 q 291 747 291 808 q 325 656 291 690 q 416 621 359 621 q 527 667 481 621 q 572 777 572 712 q 542 865 572 830 q 462 899 511 899 z "},"&":{"ha":1270,"x_min":40,"x_max":1360,"o":"m 1017 467 q 924 300 983 381 l 915 288 l 920 282 l 975 235 q 1053 164 996 216 q 1164 87 1136 87 q 1242 146 1187 87 l 1259 132 q 1191 59 1242 112 q 1130 -7 1166 33 l 1120 -19 l 1106 -5 q 868 220 989 113 l 857 229 q 603 56 741 119 q 336 -7 464 -7 q 120 50 201 -7 q 40 205 40 108 q 198 436 40 357 q 336 481 263 468 q 556 501 408 494 q 627 534 610 504 q 394 565 465 534 q 323 667 323 597 q 446 840 323 762 q 721 922 577 922 q 783 918 749 922 q 716 739 747 840 l 695 745 q 708 809 708 785 q 692 848 708 837 q 638 859 677 859 q 457 818 524 859 q 389 707 389 777 q 534 567 389 600 q 953 547 625 547 q 1249 585 1181 547 q 1324 713 1324 628 q 1316 752 1324 728 q 1360 694 1360 737 q 1303 599 1360 660 q 1184 506 1246 538 q 1017 467 1109 467 m 949 467 l 915 468 l 752 472 l 566 476 q 240 428 340 476 q 117 250 117 369 q 196 104 117 159 q 407 49 275 49 q 639 101 528 49 q 831 250 749 153 q 681 356 766 313 q 536 399 596 399 q 426 355 467 399 q 385 239 385 312 q 389 189 385 220 q 348 260 348 213 q 429 390 348 326 q 595 454 511 454 q 866 327 703 454 l 880 316 q 949 467 922 374 z "},"'":{"ha":127,"x_min":210,"x_max":351,"o":"m 351 911 q 302 810 328 865 l 264 726 l 256 710 l 238 710 q 210 709 231 710 q 250 808 227 745 q 275 876 255 822 l 288 908 l 300 908 q 351 911 321 908 z "},"(":{"ha":345,"x_min":96,"x_max":604,"o":"m 602 1019 l 604 1004 q 303 725 410 922 q 210 473 244 617 q 176 189 176 328 q 214 -92 176 51 q 96 235 96 -10 q 241 718 96 494 q 602 1019 386 943 z "},")":{"ha":343,"x_min":-41,"x_max":439,"o":"m -37 -93 l -41 -78 q 255 271 149 30 q 333 522 304 382 q 363 783 363 662 q 330 991 363 913 l 322 1010 q 319 1019 321 1012 q 407 911 374 989 q 439 728 439 833 q 303 235 439 471 q -37 -93 166 -1 z "},"*":{"ha":624,"x_min":299,"x_max":719,"o":"m 465 718 l 458 722 l 409 750 l 354 781 l 308 806 q 299 812 305 808 l 337 870 l 343 865 l 386 831 q 491 755 427 798 l 498 789 l 503 817 l 516 878 l 526 930 l 528 941 l 595 922 l 593 915 l 574 864 q 537 755 559 825 l 535 747 q 591 754 553 750 q 653 762 619 758 q 716 768 694 766 l 719 699 l 711 699 q 582 703 631 703 l 543 703 l 530 703 l 534 694 l 557 643 l 583 586 l 605 538 l 610 528 l 544 503 l 542 511 q 494 672 519 593 l 490 682 q 465 659 472 665 l 445 640 q 399 597 431 628 q 360 562 372 573 l 352 555 l 309 610 l 315 614 q 453 709 389 662 l 465 718 z "},"+":{"ha":593,"x_min":119,"x_max":599,"o":"m 599 417 l 583 379 l 371 379 l 289 166 l 252 166 l 332 379 l 119 379 l 135 417 l 347 417 l 429 630 l 467 630 l 385 417 l 599 417 z "},",":{"ha":231,"x_min":-70,"x_max":67,"o":"m 66 92 q 67 73 67 79 q 30 -61 67 9 q -70 -183 -8 -131 l -62 -167 q -9 2 -9 -53 l 66 92 z "},"-":{"ha":211,"x_min":-1,"x_max":254,"o":"m 41 316 l 134 316 l 161 316 q 251 334 215 316 q 254 336 252 335 l 252 332 l 247 321 q 132 258 220 258 l 100 258 l 66 258 q 33 253 42 258 q 15 233 24 249 l 11 227 l -1 227 l 41 316 z "},"­":{"ha":211,"x_min":-1,"x_max":254,"o":"m 41 316 l 134 316 l 161 316 q 251 334 215 316 q 254 336 252 335 l 252 332 l 247 321 q 132 258 220 258 l 100 258 l 66 258 q 33 253 42 258 q 15 233 24 249 l 11 227 l -1 227 l 41 316 z "},".":{"ha":231,"x_min":1,"x_max":78,"o":"m 47 77 q 78 46 78 77 q 64 14 78 28 q 33 0 50 0 q 1 31 1 0 q 15 63 1 50 q 47 77 28 77 z "},"/":{"ha":460,"x_min":-58,"x_max":707,"o":"m -29 -96 l -58 -96 l 676 1023 l 707 1023 l -29 -96 z "},":":{"ha":232,"x_min":2,"x_max":144,"o":"m 113 245 q 144 214 144 245 q 130 182 144 196 q 98 168 116 168 q 66 199 66 168 q 80 231 66 217 q 113 245 94 245 m 48 78 q 79 47 79 78 q 65 15 79 29 q 34 1 52 1 q 2 32 2 1 q 16 64 2 50 q 48 78 30 78 z "},";":{"ha":231,"x_min":-71,"x_max":133,"o":"m 66 92 q 66 73 66 79 q 29 -61 66 9 q -71 -183 -9 -131 l -63 -167 q -9 2 -9 -53 l 66 92 m 102 245 q 133 214 133 245 q 119 182 133 196 q 87 168 105 168 q 56 199 56 168 q 70 231 56 217 q 102 245 83 245 z "},"<":{"ha":694,"x_min":60,"x_max":633,"o":"m 633 846 l 633 800 l 186 508 l 633 210 l 633 86 l 60 468 l 60 476 l 633 846 z "},"=":{"ha":593,"x_min":100,"x_max":644,"o":"m 644 510 l 629 472 l 165 472 l 181 510 l 644 510 m 580 324 l 564 286 l 100 286 l 116 324 l 580 324 z "},">":{"ha":694,"x_min":60,"x_max":633,"o":"m 60 86 l 60 133 l 507 425 l 60 723 l 60 846 l 633 465 l 633 456 l 60 86 z "},"?":{"ha":490,"x_min":102,"x_max":642,"o":"m 218 716 l 195 716 l 201 730 q 252 869 231 800 l 256 886 q 424 916 349 916 q 585 870 528 916 q 642 741 642 825 q 570 528 642 634 q 475 431 530 469 q 319 355 420 393 q 146 233 146 289 q 209 191 146 191 q 218 191 211 191 q 168 153 202 153 q 133 169 147 153 q 119 209 119 184 q 176 341 119 275 q 310 432 232 407 l 415 467 q 602 682 602 528 q 399 830 602 830 q 278 804 320 830 q 222 725 251 788 q 218 716 221 722 m 148 77 q 179 46 179 77 q 165 14 179 28 q 134 0 151 0 q 102 31 102 0 q 116 63 102 50 q 148 77 130 77 z "},"@":{"ha":946,"x_min":120,"x_max":1066,"o":"m 711 142 l 720 135 l 714 128 q 568 1 637 38 q 408 -36 498 -36 q 196 39 273 -36 q 120 247 120 114 q 162 489 120 364 q 279 715 205 614 q 525 934 380 853 q 815 1015 670 1015 q 998 957 930 1015 q 1066 802 1066 899 q 1037 625 1066 717 q 960 467 1008 534 q 821 337 905 391 q 673 283 736 283 q 587 380 587 283 q 590 417 587 393 l 580 408 q 387 290 456 290 q 345 343 345 290 q 393 481 345 406 q 517 616 440 557 q 670 701 583 668 q 824 734 757 734 q 854 716 854 734 q 835 665 854 701 q 758 671 794 671 q 474 519 585 671 q 420 386 420 448 q 445 350 420 350 q 566 452 485 350 q 660 655 638 545 q 702 600 702 633 q 664 505 702 566 q 722 525 690 509 q 694 467 705 486 q 671 404 671 423 q 691 365 671 381 q 738 348 711 348 q 916 458 832 348 q 1004 745 1004 575 q 937 913 1004 848 q 763 979 870 979 q 558 925 661 979 q 379 779 456 872 q 194 342 217 582 l 191 295 q 257 100 191 168 q 446 33 323 33 q 711 142 595 33 z "},"A":{"ha":1141,"x_min":-102,"x_max":1133,"o":"m 899 1007 l 918 989 q 881 930 890 958 q 872 847 872 903 q 975 294 872 616 q 1065 115 1033 115 q 1116 151 1081 115 l 1133 134 l 1124 125 q 1018 5 1066 63 l 1004 -12 q 860 376 918 166 q 802 719 802 587 q 810 846 802 774 l 812 865 q 646 668 758 808 q 520 517 576 581 l 505 499 q 588 502 542 502 l 785 498 l 813 497 q 766 329 789 429 l 740 329 q 749 386 749 366 q 732 420 749 412 q 659 428 714 428 l 561 428 l 450 426 l 437 425 l 419 408 q 222 222 273 265 q 71 113 171 178 l 52 100 q 156 104 100 104 q 352 96 284 104 l 479 81 q 571 75 530 75 q 739 130 676 75 q 817 288 802 184 q 842 250 842 273 q 764 116 842 191 q 500 -1 642 -1 q 370 8 452 -1 q 54 29 168 29 l -89 26 l -102 26 l -59 94 q 273 297 120 159 q 703 781 425 435 q 899 1007 837 947 z "},"B":{"ha":1721,"x_min":110,"x_max":1693,"o":"m 1341 628 q 1299 574 1327 609 q 1257 522 1285 557 q 1182 430 1209 461 q 1258 444 1214 433 l 1367 471 q 1476 485 1422 485 q 1629 430 1569 485 q 1690 292 1690 376 q 1589 83 1690 173 q 1353 -7 1487 -7 q 1178 40 1255 -7 q 981 224 1101 88 l 967 212 q 507 -9 716 -9 q 222 99 334 -9 q 110 373 110 208 q 249 659 110 555 q 491 742 358 742 q 701 664 602 742 q 921 423 763 614 q 1010 317 972 361 l 1026 300 q 1083 357 1063 334 q 985 537 985 421 q 1057 608 985 608 q 1013 516 1013 557 q 1044 451 1013 477 q 1126 426 1076 426 q 1146 427 1131 426 l 1150 432 q 1259 564 1184 470 q 1356 690 1333 657 l 1379 724 l 1391 741 q 1400 753 1394 744 l 1423 746 q 1411 692 1411 724 q 1451 603 1411 646 q 1535 560 1491 560 q 1611 601 1579 560 q 1643 698 1643 641 q 1585 825 1643 781 q 1417 869 1527 869 q 939 824 1299 869 q 698 803 777 803 q 595 825 627 803 l 600 839 q 639 985 623 916 l 664 980 q 657 932 657 951 q 751 886 657 886 q 975 909 808 886 q 1424 952 1305 952 q 1623 899 1552 952 q 1693 749 1693 845 q 1546 523 1693 591 q 1470 497 1491 497 q 1341 628 1428 497 m 1043 280 q 1178 145 1097 220 q 1404 36 1296 36 q 1575 103 1502 36 q 1647 261 1647 170 q 1604 368 1647 327 q 1491 408 1560 408 q 1288 371 1438 408 q 1145 348 1196 348 q 1112 351 1128 348 q 1105 344 1106 346 l 1079 317 l 1050 288 q 1043 280 1048 286 m 964 243 l 958 250 q 855 372 918 295 q 612 630 701 563 q 427 698 524 698 q 233 612 312 698 q 155 399 155 526 q 274 147 155 254 q 557 40 394 40 q 964 243 746 40 z "},"C":{"ha":1062,"x_min":91,"x_max":1222,"o":"m 708 446 q 742 369 742 425 q 669 176 742 281 q 370 -13 538 -13 q 169 68 248 -13 q 91 274 91 149 q 161 548 91 412 q 353 779 232 684 q 902 960 583 960 q 1136 902 1050 960 q 1222 745 1222 844 q 1115 554 1222 635 q 865 473 1008 473 q 557 528 781 473 q 375 558 433 558 q 287 542 332 558 l 295 552 q 361 633 340 604 q 406 635 393 635 q 715 574 487 635 q 954 530 875 530 q 1111 583 1047 530 q 1174 711 1174 635 q 1076 861 1174 802 q 826 920 978 920 q 565 870 694 920 q 349 734 436 820 q 162 320 162 553 q 232 129 162 199 q 422 58 302 58 q 627 161 545 58 q 708 422 708 265 l 708 446 z "},"D":{"ha":1539,"x_min":137,"x_max":1611,"o":"m 570 1000 l 594 997 q 587 941 587 957 q 612 914 587 921 q 707 907 637 907 q 838 913 754 907 l 1010 928 q 1175 936 1101 936 q 1499 851 1387 936 q 1611 606 1611 766 q 1556 366 1611 488 q 1407 152 1501 243 q 1074 4 1255 4 q 880 58 957 4 q 711 257 803 112 l 661 336 l 655 347 l 642 342 q 357 279 450 279 q 197 334 258 279 q 137 476 137 388 q 248 673 137 602 q 404 722 323 722 q 543 663 484 722 q 713 410 602 604 l 722 396 l 747 406 q 1234 608 998 500 l 1388 679 l 1409 688 q 1412 671 1412 679 q 1362 488 1412 626 q 1317 338 1317 362 q 1343 318 1317 318 q 1379 326 1356 318 l 1387 301 l 1371 296 q 1239 251 1316 275 l 1221 245 q 1227 282 1223 262 l 1233 305 q 1282 457 1242 345 q 1318 577 1318 561 q 1297 603 1318 603 q 1255 589 1285 603 l 1205 568 l 1053 501 q 751 380 890 431 l 735 374 q 921 129 832 203 q 1118 54 1010 54 q 1306 106 1215 54 q 1454 248 1396 159 q 1552 562 1552 401 q 1454 777 1552 701 q 1173 852 1356 852 q 1017 844 1108 852 l 785 822 q 661 817 725 817 q 530 836 584 817 l 534 848 q 551 917 544 885 l 567 989 l 570 1000 m 641 369 l 625 395 q 468 612 526 559 q 332 666 410 666 q 218 617 267 666 q 170 503 170 569 q 232 369 170 422 q 387 317 293 317 q 641 369 496 317 z "},"E":{"ha":1601,"x_min":125,"x_max":1605,"o":"m 1436 926 l 1432 915 q 1409 840 1417 867 l 1390 768 q 1387 755 1390 767 l 1361 755 l 1364 765 q 1373 820 1373 802 q 1359 850 1373 844 q 1294 857 1344 857 l 1272 857 l 1120 857 l 1117 846 q 1044 614 1072 670 q 893 454 991 509 q 741 387 817 411 q 958 275 828 357 q 1074 203 1048 218 q 1145 385 1145 292 q 1027 578 1145 527 l 1267 578 l 1248 505 l 1135 505 q 1196 360 1196 446 q 1118 177 1196 275 l 1131 170 q 1267 100 1221 117 q 1358 82 1314 82 q 1510 145 1449 82 q 1579 311 1571 208 q 1605 254 1605 292 q 1565 166 1605 216 q 1466 79 1525 117 l 1386 31 q 1328 2 1341 2 q 1208 39 1295 2 q 1050 119 1121 75 q 860 35 978 67 q 621 3 743 3 q 258 100 390 3 q 125 366 125 197 q 343 740 125 576 q 602 878 470 836 q 899 921 733 921 l 1023 920 l 1132 921 l 1278 922 l 1423 926 l 1436 926 m 1048 857 l 902 857 q 628 840 720 857 q 444 776 536 824 q 267 614 331 718 q 202 390 202 511 q 320 129 202 231 q 642 31 432 31 q 1013 143 854 31 q 996 153 998 151 l 848 245 q 674 325 772 294 q 505 357 577 357 q 420 347 465 357 q 473 422 453 382 q 519 427 490 427 q 570 424 545 427 l 629 416 q 683 412 657 412 q 901 509 810 412 q 1048 857 989 604 z "},"F":{"ha":1551,"x_min":3,"x_max":1747,"o":"m 1619 498 l 1570 334 l 1545 334 q 1550 351 1548 345 q 1557 391 1557 375 q 1537 420 1557 414 q 1443 427 1518 427 l 1339 427 l 1329 397 q 1201 90 1272 213 q 1025 -136 1131 -34 q 781 -300 918 -241 q 509 -359 644 -359 q 234 -294 356 -359 q 64 -131 125 -236 q 3 103 3 -26 q 111 376 3 273 q 397 478 218 478 q 826 293 598 478 q 1036 94 902 231 l 1057 73 q 1091 194 1091 130 q 1005 358 1091 293 q 779 431 919 423 q 805 496 795 460 l 1286 498 q 1294 524 1291 515 q 1343 672 1324 627 q 1392 755 1362 718 q 1544 892 1447 827 q 1712 958 1643 958 q 1747 954 1726 958 q 1707 796 1738 902 l 1702 779 l 1677 779 q 1689 840 1689 823 q 1643 884 1689 884 q 1501 829 1570 884 q 1445 759 1466 800 q 1390 602 1425 717 l 1364 514 l 1360 498 l 1619 498 m 1267 427 l 957 429 q 1074 333 1029 396 q 1118 202 1118 271 q 1039 -34 1118 96 q 665 315 846 194 q 334 437 483 437 q 121 353 205 437 q 37 142 37 270 q 187 -177 37 -52 q 570 -302 337 -302 q 1007 -115 828 -302 q 1267 427 1187 73 z "},"G":{"ha":1476,"x_min":26,"x_max":1525,"o":"m 1109 653 l 1525 653 q 1136 -108 1420 165 q 563 -357 876 -357 q 193 -226 346 -357 q 26 155 26 -83 q 127 435 26 328 q 395 541 229 541 q 606 478 511 541 q 789 279 701 414 l 920 78 q 939 46 935 53 q 1007 -18 980 -18 q 1068 3 1027 -18 l 1079 -19 l 1067 -24 l 1009 -49 q 945 -79 991 -57 l 930 -86 l 923 -77 q 826 71 880 -14 l 769 162 q 571 415 654 347 q 351 503 466 503 q 151 421 228 503 q 74 211 74 340 q 189 -109 74 35 q 377 -252 263 -201 q 625 -302 491 -302 q 1008 -178 836 -302 q 1293 183 1179 -53 q 1389 431 1350 302 q 1428 629 1428 559 l 1303 629 q 1337 549 1337 597 q 1240 367 1337 457 q 972 241 1105 241 q 813 301 873 241 q 752 460 752 362 q 796 649 752 557 q 918 807 840 741 q 1110 919 1003 879 q 1323 959 1217 959 q 1391 955 1352 959 l 1345 794 l 1320 794 l 1324 809 q 1329 847 1329 831 q 1223 899 1329 899 q 1022 849 1112 899 q 884 706 936 802 q 831 500 831 610 q 884 350 831 406 q 1025 294 937 294 q 1194 363 1122 294 q 1265 524 1265 431 q 1127 629 1265 629 l 1109 629 l 1109 653 z "},"H":{"ha":1986,"x_min":120,"x_max":2180,"o":"m 1466 583 q 1424 332 1424 450 q 1661 68 1424 68 q 1871 151 1790 68 q 1952 363 1952 233 q 1978 304 1978 335 q 1895 133 1978 237 q 1627 -2 1787 -2 q 1418 76 1494 -2 q 1343 290 1343 153 q 1404 587 1343 418 l 1282 597 q 1135 334 1228 452 q 852 85 1006 172 q 541 -2 699 -2 q 241 110 363 -2 q 120 387 120 222 q 219 628 120 533 q 471 723 318 723 q 740 634 599 723 q 994 395 882 546 q 1008 481 1008 443 q 865 649 1008 626 q 881 686 877 673 l 891 713 q 895 723 892 715 q 1227 680 1062 692 l 1238 680 q 1276 854 1276 799 q 1256 880 1276 880 q 1192 862 1234 880 l 1184 884 q 1210 895 1206 892 l 1280 924 q 1372 962 1320 940 l 1371 951 q 1308 672 1357 822 l 1433 661 q 1573 865 1492 788 q 1774 993 1658 945 q 1997 1041 1889 1041 q 2130 1008 2081 1041 q 2180 920 2180 975 q 2138 800 2180 864 q 2025 686 2096 736 q 1603 578 1874 578 q 1466 583 1532 578 m 1493 656 q 1653 650 1557 650 q 2024 720 1910 650 q 2126 872 2126 783 q 2076 964 2126 928 q 1945 999 2026 999 q 1672 907 1792 999 q 1498 666 1577 834 l 1493 656 m 1215 604 l 984 630 q 1034 491 1034 578 q 998 272 1034 408 q 418 682 679 682 q 238 611 311 682 q 165 437 165 541 q 288 167 165 273 q 603 62 411 62 q 966 194 817 62 q 1215 604 1116 326 z "},"I":{"ha":1287,"x_min":122,"x_max":1482,"o":"m 779 926 l 1482 926 l 1478 909 q 1149 266 1339 478 q 890 72 1038 142 q 591 1 741 1 q 250 117 376 1 q 122 407 122 236 q 213 632 122 545 q 448 720 304 720 q 709 634 583 720 q 850 669 774 669 q 999 605 941 669 q 1056 436 1056 540 q 989 227 1056 348 q 657 571 842 431 q 564 345 564 484 q 581 220 564 286 q 519 346 519 265 q 636 586 519 473 q 399 680 511 680 q 227 610 295 680 q 158 435 158 541 q 268 194 158 294 q 435 101 332 134 q 654 67 538 67 q 1181 344 975 67 q 1407 842 1310 516 l 930 842 l 882 842 l 827 840 q 778 824 795 837 q 748 779 762 812 l 745 771 l 720 777 l 726 791 q 751 854 740 826 l 773 913 q 779 926 774 914 m 1010 332 q 1027 426 1027 383 q 969 576 1027 513 q 828 640 910 640 q 734 618 783 640 q 1010 332 872 518 z "},"J":{"ha":1298,"x_min":-25,"x_max":1421,"o":"m 1421 928 l 1417 904 q 1312 492 1371 659 q 1156 167 1253 324 q 460 -355 838 -355 q 248 -315 352 -355 q 77 -205 144 -274 q -25 54 -25 -102 q 95 311 -25 208 q 395 414 216 414 q 1016 181 681 414 l 941 131 q 633 294 805 229 q 334 359 460 359 q 103 283 194 359 q 12 92 12 208 q 49 -57 12 17 q 151 -185 86 -132 q 301 -260 207 -231 q 489 -290 395 -290 q 1021 14 799 -290 q 1178 293 1106 130 q 1278 593 1251 455 l 1309 745 l 1327 838 q 1332 864 1329 846 q 1270 859 1298 859 l 1207 861 q 1147 852 1176 861 q 1076 804 1103 840 q 1048 724 1048 769 q 1070 644 1048 682 q 1149 553 1093 607 q 1205 456 1205 500 q 1163 340 1205 397 q 1077 283 1120 283 q 1021 308 1042 283 q 999 373 999 333 q 1000 389 999 378 q 1088 326 1044 326 q 1152 393 1152 326 q 1085 494 1152 433 q 1003 667 1003 569 q 1081 852 1003 774 q 1267 930 1160 930 l 1329 928 l 1387 927 q 1421 928 1408 927 z "},"K":{"ha":1727,"x_min":152,"x_max":1759,"o":"m 1759 930 l 1735 906 q 1457 633 1546 719 q 1263 444 1304 486 l 1247 427 l 1515 167 q 1613 99 1585 99 q 1696 156 1638 99 l 1702 161 l 1720 145 q 1568 -4 1669 88 l 1555 8 q 1316 241 1453 103 q 1198 357 1240 317 l 1186 369 l 1101 286 q 830 67 944 129 q 584 6 716 6 q 327 88 441 6 q 198 244 244 147 q 152 458 152 342 q 274 738 152 628 q 584 848 395 848 q 820 790 707 848 q 1066 602 932 733 l 1073 623 q 1122 829 1120 766 q 1100 854 1124 854 q 1039 836 1082 854 l 1027 831 l 1017 854 l 1024 857 q 1124 905 1081 882 l 1223 958 q 1236 964 1225 959 l 1226 925 q 1111 562 1157 659 l 1230 446 l 1247 463 l 1354 569 l 1451 663 q 1611 831 1546 758 l 1627 848 q 1542 850 1589 850 q 1424 838 1444 850 q 1381 755 1404 827 l 1377 744 l 1348 744 l 1352 757 q 1407 930 1383 845 l 1446 929 l 1626 928 l 1759 930 m 1168 387 l 1067 486 q 922 306 1008 374 q 755 238 836 238 q 672 260 705 238 q 640 317 640 283 q 656 370 640 338 q 777 277 671 277 q 1036 518 935 277 q 758 745 865 684 q 533 806 651 806 q 267 696 374 806 q 184 473 184 610 q 297 209 184 317 q 637 71 440 71 q 863 126 762 71 q 1119 337 963 181 l 1168 387 z "},"L":{"ha":1263,"x_min":95,"x_max":1278,"o":"m 425 481 l 410 463 q 277 305 335 366 q 415 339 336 339 q 623 294 503 339 l 809 218 l 1002 140 q 1149 91 1122 91 q 1227 135 1180 91 l 1245 117 q 1127 -6 1185 62 q 808 122 1024 30 q 333 291 413 291 q 266 274 293 291 q 177 193 239 257 l 165 181 l 151 203 q 336 412 233 286 l 384 471 q 395 485 385 473 q 361 487 376 487 q 188 424 252 487 q 123 253 123 360 q 198 94 123 159 q 381 29 273 29 q 555 87 456 29 l 569 66 q 336 -13 451 -13 q 161 54 227 -13 q 95 233 95 121 q 182 468 95 374 q 402 561 269 561 q 449 559 426 561 l 457 559 l 475 582 q 778 882 640 789 q 1059 974 915 974 q 1219 926 1161 974 q 1278 795 1278 878 q 1222 633 1278 719 q 1059 481 1160 537 q 848 425 959 425 q 517 467 747 425 q 425 481 457 478 m 488 556 q 635 534 541 550 q 916 499 833 499 q 1134 572 1040 499 q 1227 743 1227 645 q 1169 881 1227 829 q 1012 932 1110 932 q 745 825 890 932 q 505 578 644 751 l 488 556 z "},"M":{"ha":1882,"x_min":123,"x_max":2151,"o":"m 2151 941 l 2098 763 l 2072 767 l 2076 780 q 2081 808 2081 797 q 2024 844 2081 844 q 1884 768 1950 844 q 1780 569 1817 693 q 1728 327 1759 498 q 1697 113 1697 156 q 1728 78 1697 78 q 1791 97 1750 78 l 1803 76 q 1699 35 1773 64 q 1598 -6 1642 14 q 1627 220 1598 55 q 1694 542 1656 385 l 1670 511 q 1577 396 1640 473 l 1430 212 l 1279 26 l 1264 7 l 1247 20 q 1271 111 1271 66 q 1236 342 1271 186 l 1215 434 q 1211 449 1214 435 q 877 117 1050 233 q 540 2 704 2 q 337 49 433 2 q 186 176 241 96 q 123 389 123 266 q 232 647 123 548 q 518 746 342 746 q 703 707 620 746 q 917 560 785 669 q 991 519 966 519 q 1086 555 1020 519 l 1099 535 l 928 441 l 910 457 q 667 635 787 573 q 448 697 548 697 q 244 622 321 697 q 167 422 167 547 q 282 169 167 266 q 583 71 398 71 q 904 176 746 71 q 1205 484 1061 281 q 1192 606 1192 557 q 1246 848 1192 729 q 1355 966 1299 966 q 1410 873 1410 966 q 1377 734 1410 812 q 1270 535 1345 656 q 1299 412 1277 499 q 1349 153 1338 260 q 1371 180 1365 174 l 1415 235 l 1732 627 q 1894 817 1845 766 q 2001 899 1944 867 q 2151 941 2077 941 m 1265 577 q 1330 721 1305 648 q 1355 844 1355 794 q 1319 896 1355 896 q 1273 839 1292 896 q 1254 701 1254 781 q 1265 577 1254 648 z "},"N":{"ha":1687,"x_min":96,"x_max":1981,"o":"m 1981 936 l 1928 758 l 1904 762 l 1906 775 q 1912 823 1912 807 q 1882 865 1912 852 q 1788 878 1853 878 q 1511 743 1607 878 q 1376 407 1415 608 q 1400 390 1392 396 q 1519 296 1494 328 q 1544 213 1544 265 q 1501 73 1544 141 q 1413 5 1458 5 q 1338 53 1366 5 q 1310 182 1310 101 q 1324 336 1310 262 l 1305 350 l 1245 391 q 1043 542 1160 450 l 1031 552 q 918 298 981 391 q 695 78 821 157 q 442 -2 569 -2 q 193 90 290 -2 q 96 325 96 182 q 192 557 96 468 q 444 646 289 646 q 760 520 604 646 q 826 486 804 486 q 889 513 845 486 q 902 522 893 516 l 916 502 l 904 494 q 850 458 880 477 l 789 418 l 773 407 q 382 599 585 599 q 204 533 275 599 q 134 366 134 467 q 236 142 134 231 q 496 54 338 54 q 697 112 602 54 q 860 275 791 169 q 987 587 926 378 l 962 610 q 781 785 851 705 q 711 898 711 866 q 749 994 711 919 l 781 1057 l 806 1048 q 780 969 780 993 q 845 857 780 935 q 1015 686 910 779 q 1112 821 1038 788 q 1059 648 1088 757 l 1069 638 q 1330 439 1147 570 l 1344 428 q 1547 827 1425 701 q 1854 953 1670 953 q 1981 936 1908 953 m 1358 316 q 1352 237 1352 276 q 1429 57 1352 57 q 1476 82 1457 57 q 1494 145 1494 107 q 1466 223 1494 189 q 1358 316 1438 258 z "},"O":{"ha":1253,"x_min":130,"x_max":1299,"o":"m 1143 928 l 1082 758 q 1247 667 1196 726 q 1299 515 1299 609 q 1143 184 1299 334 q 909 39 1046 91 q 623 -12 772 -12 q 263 91 396 -12 q 130 368 130 193 q 200 611 130 500 q 405 801 271 723 q 961 941 644 941 q 1143 928 1063 941 m 1069 728 q 851 427 990 533 q 536 321 711 321 l 477 321 q 446 318 460 321 q 412 305 433 315 q 420 319 418 316 l 437 355 q 517 404 461 404 l 602 404 q 702 410 653 404 q 896 504 818 426 q 1031 737 975 581 q 911 752 966 752 q 666 683 765 752 q 536 491 568 614 q 520 543 520 515 q 634 711 520 644 q 919 779 748 779 q 1029 770 965 779 l 1043 768 l 1074 869 q 857 887 950 887 q 384 747 537 887 q 266 581 309 678 q 223 380 223 484 q 333 124 223 216 q 669 19 459 19 q 1054 158 899 19 q 1208 504 1208 298 q 1170 650 1208 589 q 1069 728 1132 712 z "},"P":{"ha":1301,"x_min":234,"x_max":1391,"o":"m 787 553 l 511 144 q 711 218 617 218 q 942 158 797 218 l 1071 104 q 1147 81 1127 81 q 1236 157 1185 81 l 1257 144 q 1250 132 1251 134 l 1205 68 l 1162 1 q 1152 -13 1160 -2 q 992 47 1088 3 q 785 130 859 107 q 642 152 711 152 q 519 119 570 152 q 417 7 468 87 l 397 22 l 536 233 q 453 467 453 337 q 521 657 453 576 q 680 739 589 739 q 821 662 757 739 l 825 669 l 845 704 q 870 774 870 746 q 861 798 870 786 q 875 799 874 799 l 911 800 q 951 804 920 800 l 961 806 q 902 718 945 785 q 854 648 881 686 l 844 633 q 850 623 850 625 l 890 568 q 1116 432 989 432 q 1260 511 1196 432 q 1324 690 1324 591 q 1101 848 1324 848 q 743 828 1004 848 l 547 812 q 410 807 481 807 q 234 839 281 807 l 286 1029 l 310 1023 l 308 1012 q 299 954 299 972 q 328 908 299 921 q 431 895 357 895 q 760 912 543 895 q 1103 932 1006 932 q 1391 736 1391 932 q 1306 513 1391 618 q 1053 389 1206 389 q 921 422 977 389 q 798 538 865 454 l 787 553 m 766 580 q 698 654 729 631 q 632 676 667 676 q 534 631 573 676 q 495 517 495 586 q 588 311 495 422 l 766 580 z "},"Q":{"ha":1386,"x_min":130,"x_max":1373,"o":"m 1143 931 q 1084 769 1122 854 l 1081 762 q 1246 670 1194 729 q 1298 515 1298 611 q 1140 183 1298 344 l 1151 174 q 1278 85 1255 87 q 1323 113 1294 85 l 1347 135 q 1354 140 1348 136 l 1373 126 q 1303 58 1348 100 q 1246 3 1266 23 l 1234 -9 l 1212 9 q 1069 127 1119 90 q 862 25 981 62 q 621 -12 743 -12 q 260 90 391 -12 q 130 372 130 192 q 203 617 130 505 q 413 808 276 730 q 968 943 648 943 q 1143 931 1050 943 m 1068 731 l 1059 714 q 911 516 991 587 q 713 404 831 444 q 1101 212 929 342 q 1179 347 1150 269 q 1208 499 1208 425 q 1172 649 1208 588 q 1068 731 1135 709 m 1060 873 q 865 888 973 888 q 415 772 568 888 q 273 602 324 705 q 222 384 222 499 q 342 118 222 214 q 672 21 463 21 q 1040 148 892 21 q 781 297 915 243 q 542 352 648 352 q 454 342 494 352 q 520 429 497 392 l 532 428 q 593 425 568 425 q 1024 741 901 425 q 903 754 962 754 q 661 681 762 754 q 535 490 559 608 q 519 545 519 513 q 635 713 519 645 q 921 781 750 781 q 1035 772 968 781 q 1060 873 1051 819 z "},"R":{"ha":1550,"x_min":108,"x_max":1529,"o":"m 1086 481 l 1059 414 q 1253 234 1145 342 l 1311 176 q 1399 92 1379 109 q 1434 75 1419 75 q 1508 113 1459 75 l 1525 93 q 1383 -18 1447 27 l 1360 6 q 1019 338 1135 235 q 819 114 940 199 q 458 -18 633 -18 q 205 75 302 -18 q 108 315 108 168 q 184 567 108 447 q 402 777 261 688 q 721 905 533 859 q 1112 951 909 951 q 1421 902 1313 951 q 1529 759 1529 852 q 1365 572 1529 635 q 1265 481 1286 541 q 1165 484 1219 484 q 1086 481 1123 484 m 982 740 q 1182 791 1095 763 l 1179 779 q 1116 559 1148 652 q 1171 557 1154 557 q 1363 608 1293 557 q 1434 748 1434 659 q 1054 916 1434 916 q 396 726 630 916 q 194 343 194 561 q 284 120 194 206 q 519 35 374 35 q 678 66 595 35 q 819 149 760 97 q 975 379 903 221 q 760 482 861 482 q 611 424 669 482 q 553 275 553 366 q 559 220 553 252 q 507 300 507 248 q 615 462 507 376 q 819 548 724 548 q 957 498 890 548 l 1000 465 q 1010 458 1004 463 q 1055 584 1034 512 q 1076 683 1076 656 q 1030 722 1076 722 q 988 716 1016 722 l 982 740 z "},"S":{"ha":1674,"x_min":183,"x_max":1689,"o":"m 1619 800 l 1628 777 q 1458 706 1553 743 l 1440 699 q 1449 757 1444 723 q 1455 805 1452 784 q 1459 852 1459 834 q 1419 894 1459 894 q 1269 838 1356 894 q 1152 663 1152 762 q 1183 616 1152 627 q 1315 605 1214 605 l 1324 605 q 1326 635 1326 627 q 1310 736 1326 692 q 1377 616 1377 720 l 1377 605 l 1484 607 q 1588 596 1558 607 q 1689 448 1689 560 q 1577 159 1689 298 q 1249 -5 1442 -5 q 1034 109 1107 -5 q 677 3 865 3 q 414 68 533 3 q 183 504 183 196 q 287 824 183 699 q 552 949 391 949 q 822 848 709 949 q 924 712 885 792 q 1012 455 962 631 l 1046 333 q 1096 183 1074 234 q 1231 328 1163 223 q 1314 522 1298 433 l 1282 522 q 1123 540 1169 522 q 1076 605 1076 559 q 1158 775 1076 680 q 1314 896 1224 852 q 1545 964 1403 939 l 1568 968 l 1566 957 q 1555 903 1559 926 l 1544 839 q 1539 800 1539 808 q 1556 780 1539 780 q 1579 785 1567 780 q 1619 800 1607 795 m 1365 524 q 1270 325 1343 429 q 1107 157 1196 221 q 1180 57 1140 86 q 1284 28 1220 28 q 1516 136 1415 28 q 1617 384 1617 244 q 1573 493 1617 463 q 1416 523 1529 523 l 1382 523 l 1365 524 m 1022 134 q 974 262 989 205 l 920 462 q 764 807 855 700 q 538 915 673 915 q 316 820 396 915 q 237 557 237 725 q 269 380 237 469 q 356 224 301 290 q 524 96 425 142 q 730 50 622 50 q 1022 134 874 50 z "},"T":{"ha":1257,"x_min":165,"x_max":1470,"o":"m 823 836 q 604 616 692 768 q 515 308 515 464 q 592 134 515 195 q 813 73 670 73 q 1113 178 994 73 q 1255 466 1232 284 q 1272 397 1272 429 q 1156 186 1272 305 q 781 -3 974 -3 q 626 23 702 -3 q 505 94 551 50 q 431 285 431 164 q 476 501 431 391 q 602 701 522 611 q 786 846 671 777 q 519 894 614 894 q 298 810 383 894 q 213 592 213 726 q 229 479 213 542 q 165 595 165 519 q 262 808 165 698 q 572 966 402 966 q 899 900 682 966 q 916 905 913 905 l 1006 937 q 1255 977 1126 977 q 1411 946 1352 977 q 1470 863 1470 914 q 1351 767 1470 799 q 1245 725 1278 748 l 1225 730 l 1161 746 q 1018 782 1044 774 l 852 829 q 823 836 849 829 m 945 888 q 1165 829 1042 857 q 1336 802 1289 802 q 1409 817 1379 802 q 1438 852 1438 831 q 1373 917 1438 889 q 1220 944 1309 944 q 945 888 1078 944 z "},"U":{"ha":1715,"x_min":134,"x_max":1711,"o":"m 1297 294 q 1207 90 1261 188 q 1230 91 1224 91 q 1349 87 1275 91 q 1440 83 1421 83 q 1612 160 1543 83 q 1681 355 1681 238 q 1678 399 1681 369 q 1710 325 1710 373 q 1619 131 1710 229 q 1375 15 1510 15 q 1288 21 1340 15 q 1128 35 1168 35 q 1192 212 1172 141 q 1175 200 1179 203 l 1116 159 q 920 50 1028 96 q 754 3 811 3 q 676 27 706 3 q 647 92 647 52 q 694 266 647 145 l 766 448 q 888 825 888 758 q 760 888 888 888 q 481 832 610 888 q 279 679 353 776 q 188 399 188 558 q 203 273 188 352 q 134 450 134 332 q 201 655 134 560 q 391 819 267 751 q 609 901 498 877 q 880 926 721 926 q 1015 920 956 926 q 844 418 979 749 q 753 187 770 235 q 736 113 736 140 q 806 45 736 45 q 1017 131 874 45 q 1208 257 1145 207 q 1268 463 1233 331 q 1353 709 1310 621 q 1464 864 1396 798 q 1642 957 1560 957 q 1711 871 1711 957 q 1315 311 1711 652 l 1297 294 m 1313 344 q 1549 602 1453 455 q 1645 851 1645 749 q 1601 917 1645 917 q 1485 811 1550 917 q 1413 663 1443 745 q 1326 389 1382 581 l 1313 344 z "},"V":{"ha":1598,"x_min":199,"x_max":1836,"o":"m 1836 931 q 1622 656 1772 788 q 1551 494 1615 577 q 1299 237 1487 411 q 1071 6 1165 113 l 1054 -12 q 1062 142 1062 63 q 1049 363 1062 264 q 816 115 816 271 q 842 22 816 73 q 770 102 770 28 q 846 263 770 180 q 1046 401 922 346 q 918 783 1017 644 q 573 975 781 975 q 331 870 427 975 q 235 606 235 766 q 281 424 235 508 q 408 291 327 340 q 621 230 507 230 q 718 244 668 230 l 722 232 q 555 191 642 191 q 302 304 406 191 q 199 579 199 417 q 323 901 199 770 q 631 1031 448 1031 q 854 967 751 1031 q 1023 785 957 903 q 1128 435 1097 655 q 1143 441 1142 441 l 1280 488 q 1536 618 1430 541 l 1550 629 q 1491 742 1541 690 q 1378 816 1445 790 q 1199 854 1312 842 l 1175 857 q 1237 926 1208 885 q 1414 922 1297 922 q 1836 931 1698 922 m 1753 874 l 1731 873 l 1600 871 l 1477 869 l 1449 869 q 1619 687 1607 803 q 1753 874 1706 766 m 1544 590 q 1262 432 1413 479 l 1145 395 q 1132 391 1144 395 q 1137 265 1137 338 q 1131 112 1137 174 q 1227 207 1174 157 l 1296 273 q 1474 457 1422 391 q 1544 590 1525 524 z "},"W":{"ha":1910,"x_min":144,"x_max":2109,"o":"m 1698 469 q 1500 222 1631 369 q 1253 -33 1370 75 l 1254 32 q 1227 409 1254 224 l 1225 422 l 1203 395 q 1143 324 1187 376 q 1042 203 1071 239 l 873 -10 l 861 -25 q 839 431 861 173 q 821 567 830 539 q 788 595 812 595 q 739 577 772 595 l 726 600 q 737 606 736 606 l 808 646 q 875 687 830 659 l 890 696 q 930 107 930 484 q 1048 252 962 143 q 1213 448 1108 328 l 1219 455 l 1217 469 q 1025 317 1034 469 q 1007 354 1007 332 q 1070 460 1007 406 q 1203 523 1133 514 q 1009 800 1145 700 q 690 900 873 900 q 345 777 478 900 q 211 459 211 654 q 330 156 211 277 q 626 35 448 35 q 690 41 652 35 l 694 28 q 546 7 633 7 q 258 123 372 7 q 144 416 144 239 q 312 791 144 644 q 739 939 480 939 q 1091 832 951 939 q 1283 523 1230 726 q 1644 849 1490 749 q 1940 949 1797 949 q 2062 908 2014 949 q 2109 805 2109 868 q 1993 598 2109 692 q 1698 469 1878 503 m 1667 511 q 1695 599 1695 562 q 1634 637 1695 633 l 1619 637 l 1619 662 l 1792 662 q 1729 517 1777 594 q 1933 587 1868 541 q 2038 770 2038 661 q 1997 861 2038 826 q 1888 895 1956 895 q 1318 522 1650 895 q 1592 509 1476 509 l 1667 511 m 1643 462 q 1510 456 1576 456 q 1310 467 1444 456 l 1294 469 q 1328 102 1328 329 l 1328 78 q 1506 270 1417 161 q 1643 462 1595 378 z "},"X":{"ha":1668,"x_min":93,"x_max":1876,"o":"m 1147 486 l 1152 473 q 1265 162 1206 294 q 1331 87 1297 87 q 1384 112 1348 87 l 1397 121 l 1412 101 l 1403 95 l 1337 47 q 1253 -10 1297 19 q 1093 393 1173 122 l 1086 414 l 1072 396 l 992 294 q 471 -12 746 -12 q 198 86 302 -12 q 93 340 93 184 q 177 563 93 478 q 397 648 260 648 q 617 586 515 648 q 852 367 719 523 l 873 342 q 905 414 905 378 q 871 484 905 462 q 756 511 837 506 q 808 585 784 539 q 1040 564 964 564 l 1035 582 q 957 810 992 730 q 906 864 932 864 q 849 833 885 864 l 833 854 q 972 962 905 902 q 1082 703 1034 861 l 1119 578 l 1125 559 l 1154 556 q 1167 573 1165 571 l 1232 658 q 1466 888 1354 817 q 1706 959 1578 959 q 1829 923 1783 959 q 1876 827 1876 887 q 1827 695 1876 759 q 1692 585 1779 632 q 1205 486 1504 486 l 1147 486 m 1183 555 l 1203 554 q 1358 550 1289 550 q 1689 615 1565 550 q 1813 789 1813 680 q 1771 874 1813 843 q 1657 906 1729 906 q 1443 834 1543 906 q 1202 579 1343 763 l 1183 555 m 1063 490 l 1051 490 l 997 493 q 902 500 952 496 q 932 420 932 456 q 830 264 932 353 l 818 278 q 563 532 667 458 q 353 606 458 606 q 191 543 254 606 q 129 380 129 481 q 234 148 129 239 q 502 57 339 57 q 786 139 662 57 q 1065 427 911 221 l 1078 444 l 1063 490 z "},"Y":{"ha":1805,"x_min":173,"x_max":2002,"o":"m 1169 401 q 1013 138 1076 258 q 1012 128 1012 130 l 1008 88 l 1005 53 q 1004 37 1004 50 l 992 33 q 937 1 954 18 q 902 -57 919 -17 q 871 -199 871 -130 q 887 -266 871 -243 q 943 -302 903 -288 l 909 -397 q 822 -252 822 -366 q 898 -6 822 -159 q 927 90 919 37 q 936 233 936 143 l 935 385 l 935 399 q 768 303 829 376 q 706 132 706 231 q 785 -48 706 28 q 764 -51 770 -51 q 692 -11 720 -51 q 664 92 664 30 q 734 302 664 208 q 931 452 804 397 q 880 676 917 595 q 748 833 834 775 q 562 891 663 891 q 318 795 414 891 q 223 550 223 699 q 313 285 223 406 q 534 133 402 165 l 534 120 q 275 227 376 120 q 173 501 173 334 q 296 811 173 687 q 602 936 418 936 q 891 818 785 936 q 1017 473 997 699 q 1085 476 1055 476 q 1182 469 1122 476 l 1195 488 q 1509 851 1365 742 q 1818 960 1653 960 q 1952 919 1903 960 q 2002 807 2002 878 q 1956 662 2002 736 q 1830 527 1910 587 q 1375 386 1643 386 q 1265 391 1308 386 l 1187 399 q 1169 401 1184 399 m 1211 467 l 1230 465 q 1442 452 1347 452 q 1883 608 1746 452 q 1945 757 1945 679 q 1896 862 1945 821 q 1770 903 1847 903 q 1211 467 1491 903 m 1139 404 l 1128 405 q 1051 411 1072 411 q 1021 409 1042 411 l 1021 373 q 1015 196 1021 283 q 1025 212 1023 210 l 1078 300 l 1131 390 q 1139 404 1133 391 z "},"Z":{"ha":1380,"x_min":54,"x_max":1364,"o":"m 1002 594 l 1000 584 q 979 511 993 561 q 960 441 966 463 l 957 429 l 932 429 q 938 484 938 460 q 921 518 938 509 q 861 528 905 528 q 722 536 826 528 l 709 536 q 701 527 702 528 l 647 472 l 578 401 l 475 295 q 456 275 472 292 q 743 389 626 389 q 1080 261 876 389 q 1224 317 1172 317 q 1307 261 1278 317 q 1225 277 1266 277 q 1108 242 1163 277 q 1364 54 1231 161 l 1360 50 q 1329 25 1348 41 q 1286 -7 1303 5 q 1157 96 1245 31 q 1021 191 1069 162 q 912 106 982 164 q 645 -85 739 -37 q 446 -134 551 -134 q 260 -95 349 -134 q 120 8 172 -56 q 54 215 54 92 q 184 507 54 397 q 528 618 314 618 q 708 608 604 618 l 739 605 l 806 675 q 644 801 681 801 q 605 713 616 801 l 578 715 l 627 963 q 886 754 808 785 l 902 770 q 1043 891 993 859 q 1142 924 1093 924 q 1175 911 1161 924 q 1188 880 1188 898 q 1112 773 1188 823 q 937 716 1035 723 q 869 696 895 713 q 772 603 843 678 l 794 601 q 939 593 897 593 l 994 594 l 1002 594 m 916 748 q 947 745 934 745 q 1058 778 1002 745 q 1114 842 1114 810 q 1084 863 1114 863 q 916 748 1026 863 m 996 206 q 824 294 916 259 q 675 330 732 330 q 467 252 593 330 q 223 53 340 175 l 205 74 l 229 96 q 657 521 410 256 l 675 540 l 658 542 q 442 559 522 559 q 291 536 353 559 q 177 463 230 514 q 88 258 88 375 q 116 134 88 197 q 190 28 144 71 q 456 -64 287 -64 q 658 -27 568 -64 q 869 108 747 10 q 996 206 947 171 z "},"[":{"ha":467,"x_min":56,"x_max":698,"o":"m 460 1019 q 517 1018 477 1018 l 570 1018 l 676 1019 l 698 1019 l 694 1011 q 690 1004 690 1004 l 685 996 q 680 987 683 993 l 521 987 l 492 910 l 471 852 l 429 735 q 363 553 413 690 q 297 373 331 467 q 231 191 247 233 l 187 74 q 142 -61 169 24 l 306 -61 q 297 -77 301 -69 q 289 -92 294 -85 l 271 -93 l 166 -92 l 113 -92 l 79 -91 q 56 -92 73 -91 q 159 193 83 -1 q 355 734 258 452 q 460 1019 422 928 z "},"\\":{"ha":460,"x_min":275,"x_max":357,"o":"m 302 1023 l 357 -96 l 334 -96 l 275 1023 l 302 1023 z "},"]":{"ha":555,"x_min":-3,"x_max":634,"o":"m 551 987 l 399 987 q 407 1004 402 994 q 414 1017 410 1008 l 437 1017 l 524 1018 l 576 1018 l 615 1018 l 634 1017 l 626 994 q 532 734 601 917 q 334 193 413 421 q 230 -92 267 -6 q 208 -91 213 -91 l 173 -92 l 120 -92 l 14 -93 l -3 -92 q 6 -77 1 -84 q 16 -61 12 -69 l 167 -61 q 220 75 202 25 l 261 191 q 327 373 275 232 q 393 553 360 463 q 459 735 441 688 l 503 852 l 524 910 q 551 987 532 936 z "},"^":{"ha":694,"x_min":-33,"x_max":728,"o":"m 728 399 l 682 399 l 389 846 l 91 399 l -33 399 l 349 972 l 357 972 l 728 399 z "},"_":{"ha":694,"x_min":35,"x_max":660,"o":"m 35 -121 l 660 -121 l 660 -174 l 35 -174 l 35 -121 z "},"`":{"ha":694,"x_min":385,"x_max":591,"o":"m 405 817 q 526 732 474 797 q 591 584 578 668 q 385 758 513 715 l 405 817 z "},"a":{"ha":521,"x_min":-15,"x_max":639,"o":"m 461 104 l 473 86 q 279 2 402 33 q 359 238 282 71 q 179 67 272 135 q 33 -1 87 -1 q -15 60 -15 -1 q 77 281 -15 162 q 307 477 168 400 q 617 564 463 564 q 639 548 639 564 q 618 496 639 534 q 529 505 572 505 q 173 344 322 505 q 63 110 63 226 q 103 56 63 56 q 201 114 137 56 q 315 250 264 173 q 409 473 384 357 q 438 408 438 455 q 372 256 438 342 q 452 275 404 259 l 447 264 q 382 95 382 119 q 401 77 382 75 q 461 104 418 78 z "},"b":{"ha":513,"x_min":-28,"x_max":583,"o":"m 408 932 q 222 409 399 831 l 210 381 q 370 511 283 460 q 520 562 457 562 q 583 496 583 562 q 515 323 583 422 q 342 144 447 224 q -28 0 151 0 l -18 22 q 202 553 109 316 q 295 819 295 791 q 271 840 295 840 q 222 827 256 840 l 215 848 q 408 932 303 880 m 74 68 q 102 65 92 65 q 370 216 252 65 q 449 347 417 277 q 480 458 480 416 q 435 506 480 506 q 249 373 358 506 q 74 68 140 241 z "},"c":{"ha":411,"x_min":0,"x_max":499,"o":"m 499 570 l 404 392 l 380 392 l 385 404 q 409 475 409 455 q 357 499 409 499 q 220 432 278 499 q 126 280 165 368 q 87 131 87 191 q 156 56 87 56 q 276 106 214 56 q 380 239 338 157 l 397 273 q 404 284 399 275 q 411 258 411 271 q 324 115 411 199 q 90 -8 196 -8 q 0 94 0 -8 q 59 282 0 181 q 216 464 118 383 q 471 572 347 572 q 499 570 479 572 z "},"d":{"ha":542,"x_min":-17,"x_max":713,"o":"m 713 930 q 649 731 710 885 l 599 605 l 579 556 q 623 490 620 540 q 558 501 595 499 l 553 489 l 466 267 q 405 90 405 111 q 423 71 405 71 q 486 97 442 71 q 492 101 488 98 l 505 85 q 300 -3 432 34 l 306 19 q 377 222 328 100 q 406 292 393 260 l 481 490 l 488 505 q 330 466 415 505 q 182 365 245 427 q 62 121 62 246 q 104 63 62 63 q 208 120 146 63 q 317 258 270 177 q 391 431 362 336 q 402 378 402 406 q 354 247 402 321 q 224 102 305 172 q 35 -1 102 -1 q -17 64 -17 -1 q 19 193 -17 120 q 116 333 56 267 q 509 556 285 518 l 527 603 l 576 731 q 598 807 597 787 q 569 836 600 836 q 530 827 551 836 l 522 848 l 532 852 q 713 930 643 893 z "},"e":{"ha":403,"x_min":1,"x_max":486,"o":"m 385 300 q 395 267 395 281 q 304 117 395 201 q 81 -7 173 -7 q 1 83 1 -7 q 63 296 1 184 q 222 481 125 408 q 433 569 340 569 q 486 530 486 569 q 460 468 486 504 q 396 402 435 431 q 305 353 360 376 q 220 331 250 331 q 176 366 188 331 q 221 362 204 362 q 346 401 289 362 q 404 486 404 440 q 361 518 404 518 q 208 426 286 518 q 116 274 152 361 q 80 119 80 187 q 138 50 80 50 q 271 120 202 50 q 385 300 340 190 z "},"f":{"ha":264,"x_min":-345,"x_max":673,"o":"m 382 549 l 376 528 l 266 528 l 81 7 q 46 1 55 7 q 26 -32 37 -5 q -68 -223 -30 -164 q -171 -336 -113 -294 q -280 -378 -229 -378 q -327 -363 -308 -378 q -345 -328 -345 -349 q -342 -308 -345 -321 q -271 -317 -305 -317 q -83 -205 -153 -317 q 122 315 -14 -94 l 185 505 l 193 528 l 117 528 l 125 547 q 133 547 132 547 l 152 548 q 231 617 200 548 q 321 764 271 709 q 463 871 372 819 q 627 927 562 927 q 672 907 673 927 q 659 863 671 899 l 627 768 l 606 768 q 618 831 618 810 q 555 866 618 866 q 401 799 463 866 q 279 566 339 731 l 273 549 l 382 549 z "},"g":{"ha":523,"x_min":-163,"x_max":641,"o":"m 435 244 q 257 -173 349 -41 q 97 -323 195 -262 q -81 -385 -1 -385 q -140 -368 -117 -385 q -163 -323 -163 -351 q -155 -290 -163 -307 q -23 -338 -97 -338 q 345 215 204 -338 q 173 55 256 115 q 43 -5 91 -5 q -14 68 -14 -5 q 59 258 -14 152 q 245 444 132 363 q 598 562 410 562 q 641 537 641 562 q 629 498 641 526 l 627 491 q 544 497 590 497 q 322 460 412 497 q 162 339 232 422 q 90 225 119 287 q 62 119 62 163 q 104 54 62 54 q 194 102 138 54 q 300 224 250 151 q 398 444 380 340 q 426 383 426 418 q 359 233 426 325 l 367 234 l 395 238 l 425 243 l 435 244 z "},"h":{"ha":522,"x_min":-18,"x_max":555,"o":"m 465 96 l 477 79 q 304 5 410 43 l 288 -1 q 434 401 295 104 q 456 464 456 448 q 440 485 456 485 q 378 450 422 485 q 291 367 333 414 q 164 201 227 296 q 70 35 100 106 q -18 8 22 29 l -11 26 q 75 234 35 134 l 154 436 l 235 637 q 293 821 293 786 q 271 844 293 844 q 231 834 261 844 l 222 831 l 216 850 q 378 922 296 878 l 391 929 q 391 910 391 916 q 357 762 391 860 q 222 420 323 664 l 149 243 l 140 224 l 152 238 q 523 559 412 559 q 555 527 555 559 q 531 450 555 503 l 489 357 q 382 85 382 122 q 398 70 382 70 q 458 93 416 70 l 465 96 z "},"i":{"ha":248,"x_min":14,"x_max":354,"o":"m 283 580 l 283 572 q 199 320 283 509 l 149 206 q 108 94 109 115 q 131 75 107 73 q 176 89 144 75 l 184 69 q 14 -3 78 18 q 35 114 18 60 q 110 293 52 168 q 184 480 183 453 q 167 501 186 501 q 144 496 158 501 l 115 486 q 102 481 113 486 l 96 503 l 110 508 q 263 570 185 536 l 283 580 m 323 753 q 354 722 354 753 q 340 690 354 705 q 309 676 326 676 q 277 707 277 676 q 291 739 277 725 q 323 753 304 753 z "},"j":{"ha":226,"x_min":-544,"x_max":374,"o":"m 303 583 q -48 -124 163 125 q -258 -307 -140 -233 q -456 -382 -376 -382 q -519 -363 -494 -382 q -544 -317 -544 -345 q -540 -292 -544 -305 q -425 -330 -485 -330 q -195 -234 -304 -330 q 15 58 -87 -138 q 126 304 73 170 q 179 473 179 439 q 147 502 179 502 q 113 497 135 502 l 110 517 l 131 524 q 303 583 239 553 m 343 753 q 374 722 374 753 q 360 690 374 705 q 329 676 347 676 q 297 707 297 676 q 311 739 297 725 q 343 753 325 753 z "},"k":{"ha":526,"x_min":-23,"x_max":600,"o":"m 276 281 q 333 251 311 275 q 356 194 356 226 q 350 156 356 178 l 338 113 q 334 86 334 97 q 368 48 334 48 q 428 87 399 48 q 475 192 456 126 q 488 151 488 172 q 427 51 488 106 q 316 -3 366 -3 q 253 64 253 -3 q 270 134 253 89 q 290 210 290 186 q 185 286 290 286 q 165 286 179 286 q 136 213 155 260 l 116 161 q 73 43 93 103 l 68 29 q -11 5 38 23 l -23 1 q 52 178 8 67 l 129 371 l 212 582 q 290 818 288 777 q 263 845 292 845 q 241 841 252 845 l 224 835 q 213 831 221 833 l 207 852 q 380 930 292 881 l 393 937 q 256 506 378 794 q 209 390 229 441 l 200 368 q 365 511 274 458 q 538 564 456 564 q 600 518 600 564 q 532 420 600 467 q 355 348 464 373 q 276 281 291 334 m 224 354 l 233 354 q 420 395 334 354 q 507 485 507 437 q 467 523 507 523 q 345 471 420 523 q 224 354 269 418 z "},"l":{"ha":227,"x_min":16,"x_max":406,"o":"m 406 932 q 296 601 406 850 q 102 98 105 168 q 126 68 100 67 q 196 109 146 69 l 204 115 l 217 97 q 57 1 108 1 q 16 58 16 1 q 44 182 16 102 q 179 516 73 261 l 243 671 q 302 833 302 810 q 281 851 302 851 q 245 842 273 851 q 235 839 241 841 l 228 859 l 238 863 q 406 932 355 907 z "},"m":{"ha":753,"x_min":-8,"x_max":792,"o":"m 679 102 l 690 84 q 519 0 618 33 q 658 411 530 148 l 677 453 q 683 470 683 463 q 669 486 683 486 q 553 399 640 486 q 436 240 491 337 q 346 38 380 143 q 250 0 306 28 l 258 19 l 298 119 q 380 337 343 229 q 416 468 416 445 q 398 488 416 488 q 321 433 375 488 q 222 308 268 378 q 83 35 142 184 q 73 31 74 32 l 37 18 q -8 1 15 11 q 56 151 8 36 l 109 278 q 170 459 168 423 q 151 484 172 484 q 110 471 137 484 l 102 493 q 254 574 161 516 l 269 583 q 271 557 271 568 q 200 328 271 499 q 492 568 389 568 q 523 536 523 568 q 454 319 523 487 q 624 495 532 421 q 764 569 715 569 q 792 541 792 569 q 741 411 792 521 q 616 102 616 144 q 634 83 616 83 q 679 102 647 83 z "},"n":{"ha":541,"x_min":-12,"x_max":583,"o":"m 465 98 l 475 80 q 283 -1 394 22 q 414 338 297 111 l 458 422 q 481 478 481 466 q 466 496 481 496 q 386 449 445 496 q 272 339 328 401 q 79 30 157 210 q -12 -3 47 22 q 114 284 51 125 q 178 472 178 443 q 158 496 178 496 q 114 486 148 496 q 106 484 111 486 l 102 506 q 274 567 197 533 l 283 571 q 284 559 284 562 q 195 302 284 498 l 186 281 l 197 294 q 402 494 309 421 q 549 567 496 567 q 583 533 583 567 q 494 325 583 498 q 387 93 387 119 q 406 73 387 73 q 461 96 426 73 l 465 98 z "},"o":{"ha":460,"x_min":3,"x_max":513,"o":"m 504 500 q 444 504 468 504 q 171 367 266 504 q 108 242 134 313 q 82 125 82 172 q 101 70 82 92 q 151 49 121 49 q 307 162 221 49 q 392 370 392 275 q 381 405 392 391 q 354 420 370 420 q 250 311 300 420 q 247 335 247 325 q 299 423 247 377 q 398 469 351 469 q 451 444 429 469 q 473 382 473 418 q 316 121 473 259 q 93 2 182 2 q 29 30 54 2 q 3 100 3 58 q 68 294 3 193 q 239 469 133 395 q 366 534 297 509 q 483 560 435 560 q 513 534 513 560 q 504 500 513 524 z "},"p":{"ha":437,"x_min":-147,"x_max":456,"o":"m 323 682 l 283 562 q 456 425 456 562 q 418 263 456 348 q 316 113 380 178 q 157 21 225 21 q 115 56 115 21 q 124 87 115 71 q 183 64 159 64 q 302 136 246 64 q 367 254 340 185 q 393 374 393 322 q 256 492 393 492 l 250 475 q 130 161 157 232 l -56 -313 l -68 -343 q -136 -366 -100 -357 l -147 -369 l -138 -348 q 101 286 -56 -161 l 107 304 l 115 305 q 167 338 151 314 q 223 465 183 362 l 233 492 l 216 492 q 116 486 163 492 l 79 392 l 60 400 l 119 554 l 130 555 l 186 559 l 248 562 q 259 562 250 562 l 301 682 l 323 682 z "},"q":{"ha":507,"x_min":-15,"x_max":647,"o":"m 432 260 l 425 241 l 319 -35 q 209 -309 275 -149 l 196 -340 q 118 -376 167 -349 l 106 -382 l 119 -353 q 193 -176 170 -236 l 244 -45 q 342 212 317 142 q 46 3 141 3 q 2 23 20 3 q -15 75 -15 43 q 44 238 -15 144 q 195 405 104 332 q 402 526 290 482 q 614 570 514 570 q 647 551 647 570 q 629 507 647 541 q 542 511 574 511 q 184 355 326 511 q 105 238 136 302 q 75 125 75 174 q 119 74 75 74 q 266 180 174 74 q 406 444 366 295 l 410 457 q 437 397 437 431 q 373 250 437 335 q 404 254 392 252 l 422 258 q 432 260 426 258 z "},"r":{"ha":348,"x_min":-1,"x_max":475,"o":"m 475 561 l 451 492 q 406 498 425 498 q 237 377 327 498 q 165 252 195 319 q 90 45 135 184 l 83 22 q -1 -1 39 12 l 6 19 l 66 178 q 151 448 151 407 q 132 469 151 469 q 87 450 122 469 l 78 471 q 248 574 173 517 q 251 551 251 562 q 204 377 251 499 l 220 396 q 444 570 378 570 q 475 561 458 570 z "},"s":{"ha":313,"x_min":-64,"x_max":414,"o":"m 414 562 l 406 549 l 373 494 q 336 434 355 464 l 328 423 l 311 435 q 316 446 315 442 q 330 487 330 475 q 285 513 330 513 q 212 482 243 513 q 181 410 181 451 q 195 359 181 389 l 227 289 q 243 212 243 254 q 153 56 243 130 q 15 -7 75 -7 q -42 11 -20 -7 q -64 55 -64 28 q -48 117 -64 87 q 56 45 -6 45 q 144 79 106 45 q 182 157 182 113 q 168 212 182 181 l 128 299 q 117 356 117 325 q 179 482 117 412 q 263 547 221 528 q 368 566 304 566 q 414 562 392 566 z "},"t":{"ha":275,"x_min":0,"x_max":385,"o":"m 385 564 l 376 544 l 281 544 l 275 532 q 205 374 262 505 q 140 226 182 320 q 91 87 91 116 q 121 58 91 58 q 219 100 157 58 l 230 82 q 137 29 189 51 q 51 7 85 7 q 0 47 0 7 q 57 208 0 76 l 127 368 q 196 528 186 505 l 203 544 l 114 544 l 123 564 l 132 564 q 211 583 191 564 q 265 686 231 601 q 279 685 275 685 q 343 693 311 685 q 317 629 336 673 l 296 580 l 290 564 l 385 564 z "},"u":{"ha":507,"x_min":14,"x_max":566,"o":"m 566 559 q 451 304 519 469 q 382 112 383 139 q 405 91 381 91 q 458 104 423 91 l 467 86 q 304 17 418 60 l 286 10 q 353 246 303 121 q 188 73 266 136 q 58 10 109 10 q 14 57 14 10 q 97 288 14 113 l 151 402 q 178 478 176 455 q 155 500 179 500 q 117 492 144 500 l 111 513 l 122 516 q 280 571 217 544 q 220 393 280 517 l 161 272 q 93 102 93 133 q 119 73 93 73 q 293 210 184 73 q 466 513 401 347 l 475 534 q 566 559 514 538 z "},"v":{"ha":446,"x_min":26,"x_max":556,"o":"m 334 547 l 556 547 q 157 68 455 233 l 87 30 l 39 3 q 26 -4 35 1 q 117 243 77 109 q 157 439 157 378 q 129 505 157 505 q 71 477 113 505 l 59 498 l 69 504 q 194 562 159 562 q 239 475 239 562 q 173 201 239 380 l 136 106 l 130 88 q 478 477 431 233 l 420 477 q 340 466 361 477 q 299 416 319 456 l 294 406 l 269 406 q 334 547 311 482 z "},"w":{"ha":669,"x_min":47,"x_max":785,"o":"m 553 547 l 785 547 q 496 157 713 335 l 416 92 q 362 45 394 73 l 317 4 q 303 -7 315 3 l 311 26 q 352 241 330 121 q 391 455 381 408 q 343 378 370 430 q 47 -3 198 95 q 126 234 96 117 q 157 422 157 351 q 127 487 157 487 q 84 465 113 487 l 73 484 l 87 493 q 182 560 144 530 q 239 458 239 534 q 172 165 239 358 l 161 132 q 209 205 192 174 l 269 314 q 486 567 370 499 l 387 104 q 489 185 404 119 q 709 474 677 334 l 614 474 l 589 474 q 534 441 549 474 l 519 412 q 514 401 518 409 l 490 401 l 553 547 z "},"x":{"ha":612,"x_min":-65,"x_max":681,"o":"m 681 546 l 675 534 q 611 392 642 466 l 605 378 l 583 382 q 600 445 600 427 q 559 471 600 471 q 352 282 441 471 l 487 282 l 476 261 l 342 261 q 309 142 309 205 q 333 80 309 104 q 395 56 357 56 q 514 117 461 56 q 582 271 567 178 q 597 224 597 252 q 506 75 597 160 q 342 -5 420 -5 q 269 23 296 -5 q 241 98 241 51 q 246 142 241 117 q 237 134 238 134 l 193 94 q 15 -5 84 -5 q -42 13 -19 -5 q -65 58 -65 31 q -47 104 -65 75 q 47 43 -24 43 q 168 105 103 43 q 275 261 233 167 l 143 261 l 154 282 l 286 282 q 290 292 288 289 l 309 338 q 334 449 334 404 q 284 507 334 507 q 163 438 218 507 q 102 282 107 369 q 85 334 85 303 q 173 485 85 407 q 342 563 260 563 q 414 481 414 563 q 403 414 414 454 l 413 423 q 542 528 500 503 q 632 553 584 553 q 681 546 654 553 z "},"y":{"ha":530,"x_min":-146,"x_max":585,"o":"m 226 549 q 237 481 237 522 q 197 243 237 397 q 397 464 304 385 q 545 544 490 544 q 585 478 585 544 q 389 103 585 311 q 222 -37 300 8 q 43 -97 144 -81 q -83 -138 -45 -111 q -122 -213 -122 -165 q -85 -272 -122 -250 q 11 -295 -48 -295 q 144 -259 83 -295 q 12 -344 128 -344 q -102 -311 -58 -344 q -146 -224 -146 -277 q -81 -85 -146 -158 q -13 -37 -49 -50 q 123 -14 24 -24 q 268 30 214 -5 q 417 176 355 85 q 477 293 453 228 q 502 401 502 357 q 465 457 502 457 q 290 322 401 457 q 97 13 178 187 l 91 0 l 67 0 l 74 26 q 151 418 151 298 q 123 461 151 461 q 92 454 112 461 q 83 450 89 452 l 77 471 q 87 476 85 475 l 151 507 l 216 543 q 226 549 218 545 z "},"z":{"ha":489,"x_min":-49,"x_max":561,"o":"m 191 547 l 561 549 q 554 540 555 541 l 521 491 l 492 450 q 321 259 401 317 q 123 179 241 200 q 203 111 160 154 q 309 54 260 54 q 397 105 363 54 q 431 238 431 156 q 420 317 431 275 q 466 228 466 291 q 416 92 466 171 q 262 -7 355 -7 q 106 78 183 -7 q 37 130 60 130 q -23 74 12 130 l -49 74 q 37 227 -3 147 q 98 219 71 219 q 299 281 206 219 q 482 475 393 343 q 411 478 450 478 q 212 464 251 478 q 142 378 174 450 l 138 367 l 115 367 l 121 382 q 184 530 153 451 l 191 547 z "},"{":{"ha":456,"x_min":123,"x_max":682,"o":"m 148 477 l 166 503 q 182 503 176 503 q 356 706 279 503 l 389 793 q 453 907 416 867 q 562 985 490 947 q 660 1019 628 1019 q 680 988 682 1019 q 679 977 680 984 q 639 983 662 983 q 473 812 536 983 l 439 724 q 349 578 410 642 q 215 486 289 515 q 277 346 277 448 q 251 217 277 290 l 224 142 q 191 12 191 52 q 260 -58 191 -58 q 304 -52 283 -58 q 256 -93 279 -93 q 168 -48 213 -93 q 123 39 123 -3 q 144 133 123 75 q 224 419 224 353 q 175 477 224 477 l 163 477 l 148 477 z "},"|":{"ha":694,"x_min":315,"x_max":380,"o":"m 315 926 l 380 926 l 380 -231 l 315 -231 l 315 926 z "},"}":{"ha":456,"x_min":-45,"x_max":517,"o":"m 507 503 l 494 477 q 474 478 481 478 q 291 252 376 478 l 254 157 q 186 31 224 75 q 74 -56 148 -14 q -25 -93 7 -93 q -45 -62 -45 -93 q -45 -52 -45 -59 q -4 -58 -27 -58 q 169 132 99 -58 l 205 230 q 302 392 239 321 q 439 494 365 463 q 372 625 372 530 q 418 804 372 684 q 446 926 446 877 q 374 983 446 983 q 330 977 351 983 q 379 1019 355 1017 q 469 977 422 1021 q 517 892 517 934 q 499 814 517 863 q 428 555 428 621 q 479 504 428 504 l 492 503 l 507 503 z "},"~":{"ha":926,"x_min":168,"x_max":758,"o":"m 740 1019 l 758 1007 q 672 914 725 950 q 570 878 619 878 q 479 897 539 878 q 317 937 361 937 q 256 922 281 937 q 197 867 231 907 l 186 854 l 168 865 q 358 996 250 996 q 489 966 401 996 q 597 941 562 941 q 740 1019 678 941 z "},"Ä":{"ha":1141,"x_min":-102,"x_max":1133,"o":"m 899 1007 l 918 989 q 881 930 890 958 q 872 847 872 903 q 975 294 872 616 q 1065 115 1033 115 q 1116 151 1081 115 l 1133 134 l 1124 125 q 1018 5 1066 63 l 1004 -12 q 860 376 918 166 q 802 719 802 587 q 810 846 802 774 l 812 865 q 646 668 758 808 q 520 517 576 581 l 505 499 q 588 502 542 502 l 785 498 l 813 497 q 766 329 789 429 l 740 329 q 749 386 749 366 q 732 420 749 412 q 659 428 714 428 l 561 428 l 450 426 l 437 425 l 419 408 q 222 222 273 265 q 71 113 171 178 l 52 100 q 156 104 100 104 q 352 96 284 104 l 479 81 q 571 75 530 75 q 739 130 676 75 q 817 288 802 184 q 842 250 842 273 q 764 116 842 191 q 500 -1 642 -1 q 370 8 452 -1 q 54 29 168 29 l -89 26 l -102 26 l -59 94 q 273 297 120 159 q 703 781 425 435 q 899 1007 837 947 m 997 1142 q 1028 1111 1028 1142 q 1014 1079 1028 1093 q 983 1065 1000 1065 q 951 1096 951 1065 q 965 1128 951 1114 q 997 1142 979 1142 m 856 1142 q 887 1111 887 1142 q 873 1079 887 1093 q 842 1065 859 1065 q 810 1096 810 1065 q 824 1128 810 1114 q 856 1142 838 1142 z "},"Å":{"ha":1141,"x_min":-102,"x_max":1133,"o":"m 899 1007 l 918 989 q 881 930 890 958 q 872 847 872 903 q 975 294 872 616 q 1065 115 1033 115 q 1116 151 1081 115 l 1133 134 l 1124 125 q 1018 5 1066 63 l 1004 -12 q 860 376 918 166 q 802 719 802 587 q 810 846 802 774 l 812 865 q 646 668 758 808 q 520 517 576 581 l 505 499 q 588 502 542 502 l 785 498 l 813 497 q 766 329 789 429 l 740 329 q 749 386 749 366 q 732 420 749 412 q 659 428 714 428 l 561 428 l 450 426 l 437 425 l 419 408 q 222 222 273 265 q 71 113 171 178 l 52 100 q 156 104 100 104 q 352 96 284 104 l 479 81 q 571 75 530 75 q 739 130 676 75 q 817 288 802 184 q 842 250 842 273 q 764 116 842 191 q 500 -1 642 -1 q 370 8 452 -1 q 54 29 168 29 l -89 26 l -102 26 l -59 94 q 273 297 120 159 q 703 781 425 435 q 899 1007 837 947 m 999 1208 q 1030 1194 1018 1208 q 1041 1162 1042 1181 q 997 1081 1039 1120 q 913 1042 956 1042 q 869 1088 869 1042 q 912 1168 869 1128 q 999 1208 956 1208 m 979 1181 q 933 1153 958 1183 q 907 1097 907 1124 q 932 1072 907 1072 q 979 1098 956 1072 q 1002 1150 1002 1123 q 979 1181 1002 1179 z "},"Ç":{"ha":1062,"x_min":91,"x_max":1222,"o":"m 368 -13 l 340 -73 q 397 -63 372 -63 q 471 -121 471 -63 q 398 -259 471 -199 q 278 -310 336 -310 q 223 -256 223 -310 q 283 -176 223 -197 q 271 -226 271 -208 q 307 -273 271 -273 q 381 -233 347 -273 q 416 -146 416 -193 q 357 -98 416 -98 q 283 -129 319 -98 l 336 -12 q 157 80 224 3 q 91 274 91 157 q 161 548 91 412 q 353 779 232 684 q 902 960 583 960 q 1136 902 1050 960 q 1222 745 1222 844 q 1115 554 1222 635 q 865 473 1008 473 q 557 528 781 473 q 375 558 433 558 q 287 542 332 558 l 295 552 q 361 633 340 604 q 406 635 393 635 q 715 574 487 635 q 954 530 875 530 q 1111 583 1047 530 q 1174 711 1174 635 q 1076 861 1174 802 q 826 920 978 920 q 565 870 694 920 q 349 734 436 820 q 162 320 162 553 q 232 129 162 199 q 422 58 302 58 q 627 161 545 58 q 708 422 708 265 l 708 446 q 742 369 742 425 q 692 212 742 298 q 564 63 642 126 q 368 -13 471 -13 z "},"É":{"ha":1601,"x_min":125,"x_max":1605,"o":"m 1436 926 l 1432 915 q 1409 840 1417 867 l 1390 768 q 1387 755 1390 767 l 1361 755 l 1364 765 q 1373 820 1373 802 q 1359 850 1373 844 q 1294 857 1344 857 l 1272 857 l 1120 857 l 1117 846 q 1044 614 1072 670 q 893 454 991 509 q 741 387 817 411 q 958 275 828 357 q 1074 203 1048 218 q 1145 385 1145 292 q 1027 578 1145 527 l 1267 578 l 1248 505 l 1135 505 q 1196 360 1196 446 q 1118 177 1196 275 l 1131 170 q 1267 100 1221 117 q 1358 82 1314 82 q 1510 145 1449 82 q 1579 311 1571 208 q 1605 254 1605 292 q 1565 166 1605 216 q 1466 79 1525 117 l 1386 31 q 1328 2 1341 2 q 1208 39 1295 2 q 1050 119 1121 75 q 860 35 978 67 q 621 3 743 3 q 258 100 390 3 q 125 366 125 197 q 343 740 125 576 q 602 878 470 836 q 899 921 733 921 l 1023 920 l 1132 921 l 1278 922 l 1423 926 l 1436 926 m 1048 857 l 902 857 q 628 840 720 857 q 444 776 536 824 q 267 614 331 718 q 202 390 202 511 q 320 129 202 231 q 642 31 432 31 q 1013 143 854 31 q 996 153 998 151 l 848 245 q 674 325 772 294 q 505 357 577 357 q 420 347 465 357 q 473 422 453 382 q 519 427 490 427 q 570 424 545 427 l 629 416 q 683 412 657 412 q 901 509 810 412 q 1048 857 989 604 m 1288 1233 l 1322 1174 q 1116 1000 1195 1131 q 1288 1233 1135 1191 z "},"Ñ":{"ha":1687,"x_min":96,"x_max":1981,"o":"m 1981 936 l 1928 758 l 1904 762 l 1906 775 q 1912 823 1912 807 q 1882 865 1912 852 q 1788 878 1853 878 q 1511 743 1607 878 q 1376 407 1415 608 q 1400 390 1392 396 q 1519 296 1494 328 q 1544 213 1544 265 q 1501 73 1544 141 q 1413 5 1458 5 q 1338 53 1366 5 q 1310 182 1310 101 q 1324 336 1310 262 l 1305 350 l 1245 391 q 1043 542 1160 450 l 1031 552 q 918 298 981 391 q 695 78 821 157 q 442 -2 569 -2 q 193 90 290 -2 q 96 325 96 182 q 192 557 96 468 q 444 646 289 646 q 760 520 604 646 q 826 486 804 486 q 889 513 845 486 q 902 522 893 516 l 916 502 l 904 494 q 850 458 880 477 l 789 418 l 773 407 q 382 599 585 599 q 204 533 275 599 q 134 366 134 467 q 236 142 134 231 q 496 54 338 54 q 697 112 602 54 q 860 275 791 169 q 987 587 926 378 l 962 610 q 781 785 851 705 q 711 898 711 866 q 749 994 711 919 l 781 1057 l 806 1048 q 780 969 780 993 q 845 857 780 935 q 1015 686 910 779 q 1112 821 1038 788 q 1059 648 1088 757 l 1069 638 q 1330 439 1147 570 l 1344 428 q 1547 827 1425 701 q 1854 953 1670 953 q 1981 936 1908 953 m 1358 316 q 1352 237 1352 276 q 1429 57 1352 57 q 1476 82 1457 57 q 1494 145 1494 107 q 1466 223 1494 189 q 1358 316 1438 258 m 1236 1040 q 1279 1131 1257 1105 q 1339 1156 1301 1156 q 1414 1142 1362 1156 q 1477 1131 1457 1131 q 1533 1173 1518 1131 l 1547 1171 q 1506 1084 1529 1109 q 1445 1059 1483 1059 q 1415 1063 1430 1059 l 1370 1074 q 1303 1085 1324 1085 q 1274 1077 1284 1085 q 1254 1045 1264 1069 q 1250 1037 1253 1042 l 1236 1040 z "},"Ö":{"ha":1253,"x_min":130,"x_max":1299,"o":"m 1143 928 l 1082 758 q 1247 667 1196 726 q 1299 515 1299 609 q 1143 184 1299 334 q 909 39 1046 91 q 623 -12 772 -12 q 263 91 396 -12 q 130 368 130 193 q 200 611 130 500 q 405 801 271 723 q 961 941 644 941 q 1143 928 1063 941 m 1069 728 q 851 427 990 533 q 536 321 711 321 l 477 321 q 446 318 460 321 q 412 305 433 315 q 420 319 418 316 l 437 355 q 517 404 461 404 l 602 404 q 702 410 653 404 q 896 504 818 426 q 1031 737 975 581 q 911 752 966 752 q 666 683 765 752 q 536 491 568 614 q 520 543 520 515 q 634 711 520 644 q 919 779 748 779 q 1029 770 965 779 l 1043 768 l 1074 869 q 857 887 950 887 q 384 747 537 887 q 266 581 309 678 q 223 380 223 484 q 333 124 223 216 q 669 19 459 19 q 1054 158 899 19 q 1208 504 1208 298 q 1170 650 1208 589 q 1069 728 1132 712 m 969 1142 q 1000 1111 1000 1142 q 986 1079 1000 1093 q 955 1065 972 1065 q 923 1096 923 1065 q 937 1128 923 1114 q 969 1142 951 1142 m 828 1142 q 859 1111 859 1142 q 845 1079 859 1093 q 814 1065 831 1065 q 782 1096 782 1065 q 796 1128 782 1114 q 828 1142 810 1142 z "},"Ü":{"ha":1715,"x_min":134,"x_max":1711,"o":"m 1297 294 q 1207 90 1261 188 q 1230 91 1224 91 q 1349 87 1275 91 q 1440 83 1421 83 q 1612 160 1543 83 q 1681 355 1681 238 q 1678 399 1681 369 q 1710 325 1710 373 q 1619 131 1710 229 q 1375 15 1510 15 q 1288 21 1340 15 q 1128 35 1168 35 q 1192 212 1172 141 q 1175 200 1179 203 l 1116 159 q 920 50 1028 96 q 754 3 811 3 q 676 27 706 3 q 647 92 647 52 q 694 266 647 145 l 766 448 q 888 825 888 758 q 760 888 888 888 q 481 832 610 888 q 279 679 353 776 q 188 399 188 558 q 203 273 188 352 q 134 450 134 332 q 201 655 134 560 q 391 819 267 751 q 609 901 498 877 q 880 926 721 926 q 1015 920 956 926 q 844 418 979 749 q 753 187 770 235 q 736 113 736 140 q 806 45 736 45 q 1017 131 874 45 q 1208 257 1145 207 q 1268 463 1233 331 q 1353 709 1310 621 q 1464 864 1396 798 q 1642 957 1560 957 q 1711 871 1711 957 q 1315 311 1711 652 l 1297 294 m 1313 344 q 1549 602 1453 455 q 1645 851 1645 749 q 1601 917 1645 917 q 1485 811 1550 917 q 1413 663 1443 745 q 1326 389 1382 581 l 1313 344 m 1362 1142 q 1393 1111 1393 1142 q 1379 1079 1393 1093 q 1348 1065 1365 1065 q 1316 1096 1316 1065 q 1330 1128 1316 1114 q 1362 1142 1343 1142 m 1221 1142 q 1252 1111 1252 1142 q 1238 1079 1252 1093 q 1206 1065 1224 1065 q 1175 1096 1175 1065 q 1188 1128 1175 1114 q 1221 1142 1202 1142 z "},"á":{"ha":521,"x_min":-15,"x_max":639,"o":"m 461 104 l 473 86 q 279 2 402 33 q 359 238 282 71 q 179 67 272 135 q 33 -1 87 -1 q -15 60 -15 -1 q 77 281 -15 162 q 307 477 168 400 q 617 564 463 564 q 639 548 639 564 q 618 496 639 534 q 529 505 572 505 q 173 344 322 505 q 63 110 63 226 q 103 56 63 56 q 201 114 137 56 q 315 250 264 173 q 409 473 384 357 q 438 408 438 455 q 372 256 438 342 q 452 275 404 259 l 447 264 q 382 95 382 119 q 401 77 382 75 q 461 104 418 78 m 556 817 l 582 758 q 386 584 461 715 q 556 817 417 777 z "},"à":{"ha":521,"x_min":-15,"x_max":639,"o":"m 461 104 l 473 86 q 279 2 402 33 q 359 238 282 71 q 179 67 272 135 q 33 -1 87 -1 q -15 60 -15 -1 q 77 281 -15 162 q 307 477 168 400 q 617 564 463 564 q 639 548 639 564 q 618 496 639 534 q 529 505 572 505 q 173 344 322 505 q 63 110 63 226 q 103 56 63 56 q 201 114 137 56 q 315 250 264 173 q 409 473 384 357 q 438 408 438 455 q 372 256 438 342 q 452 275 404 259 l 447 264 q 382 95 382 119 q 401 77 382 75 q 461 104 418 78 m 346 817 q 467 732 415 797 q 532 584 519 668 q 326 758 454 715 l 346 817 z "},"â":{"ha":521,"x_min":-15,"x_max":639,"o":"m 461 104 l 473 86 q 279 2 402 33 q 359 238 282 71 q 179 67 272 135 q 33 -1 87 -1 q -15 60 -15 -1 q 77 281 -15 162 q 307 477 168 400 q 617 564 463 564 q 639 548 639 564 q 618 496 639 534 q 529 505 572 505 q 173 344 322 505 q 63 110 63 226 q 103 56 63 56 q 201 114 137 56 q 315 250 264 173 q 409 473 384 357 q 438 408 438 455 q 372 256 438 342 q 452 275 404 259 l 447 264 q 382 95 382 119 q 401 77 382 75 q 461 104 418 78 m 522 848 l 522 833 l 522 748 q 527 646 522 702 q 517 638 519 640 l 489 617 q 462 593 474 606 q 463 630 463 611 q 448 717 463 717 q 418 696 437 717 l 393 669 q 318 615 344 615 q 301 620 310 615 l 308 626 l 354 665 q 513 837 426 726 l 522 848 z "},"ä":{"ha":521,"x_min":-15,"x_max":639,"o":"m 461 104 l 473 86 q 279 2 402 33 q 359 238 282 71 q 179 67 272 135 q 33 -1 87 -1 q -15 60 -15 -1 q 77 281 -15 162 q 307 477 168 400 q 617 564 463 564 q 639 548 639 564 q 618 496 639 534 q 529 505 572 505 q 173 344 322 505 q 63 110 63 226 q 103 56 63 56 q 201 114 137 56 q 315 250 264 173 q 409 473 384 357 q 438 408 438 455 q 372 256 438 342 q 452 275 404 259 l 447 264 q 382 95 382 119 q 401 77 382 75 q 461 104 418 78 m 512 734 q 543 703 543 734 q 529 671 543 686 q 498 657 515 657 q 466 688 466 657 q 480 721 466 707 q 512 734 494 734 m 371 734 q 402 703 402 734 q 388 671 402 686 q 357 657 374 657 q 325 688 325 657 q 339 721 325 707 q 371 734 353 734 z "},"ã":{"ha":521,"x_min":-15,"x_max":639,"o":"m 461 104 l 473 86 q 279 2 402 33 q 359 238 282 71 q 179 67 272 135 q 33 -1 87 -1 q -15 60 -15 -1 q 77 281 -15 162 q 307 477 168 400 q 617 564 463 564 q 639 548 639 564 q 618 496 639 534 q 529 505 572 505 q 173 344 322 505 q 63 110 63 226 q 103 56 63 56 q 201 114 137 56 q 315 250 264 173 q 409 473 384 357 q 438 408 438 455 q 372 256 438 342 q 452 275 404 259 l 447 264 q 382 95 382 119 q 401 77 382 75 q 461 104 418 78 m 311 632 q 349 715 330 694 q 401 736 368 736 q 469 724 422 736 q 526 715 508 715 q 575 749 559 715 l 588 747 q 551 668 571 690 q 497 647 532 647 q 470 650 483 647 l 430 660 q 370 669 389 669 q 326 636 341 669 q 322 629 325 634 l 311 632 z "},"å":{"ha":521,"x_min":-15,"x_max":639,"o":"m 461 104 l 473 86 q 279 2 402 33 q 359 238 282 71 q 179 67 272 135 q 33 -1 87 -1 q -15 60 -15 -1 q 77 281 -15 162 q 307 477 168 400 q 617 564 463 564 q 639 548 639 564 q 618 496 639 534 q 529 505 572 505 q 173 344 322 505 q 63 110 63 226 q 103 56 63 56 q 201 114 137 56 q 315 250 264 173 q 409 473 384 357 q 438 408 438 455 q 372 256 438 342 q 452 275 404 259 l 447 264 q 382 95 382 119 q 401 77 382 75 q 461 104 418 78 m 479 777 q 510 763 498 777 q 521 730 522 749 q 477 650 519 688 q 393 611 435 611 q 349 657 349 611 q 392 737 349 697 q 479 777 435 777 m 459 749 q 413 722 438 751 q 387 666 387 692 q 412 641 387 641 q 459 666 436 641 q 481 719 481 692 q 459 749 481 747 z "},"ç":{"ha":411,"x_min":-45,"x_max":500,"o":"m 95 -7 l 67 -70 q 121 -60 98 -60 q 191 -115 191 -60 q 131 -236 191 -178 q 7 -294 72 -294 q -45 -243 -45 -294 q 13 -167 -45 -187 q 0 -215 0 -199 q 35 -259 0 -259 q 105 -221 73 -259 q 138 -139 138 -183 q 83 -93 138 -93 q 13 -123 47 -93 l 66 -5 q 0 94 0 12 q 59 282 0 181 q 216 464 118 384 q 471 572 347 572 q 500 570 479 572 l 404 392 l 380 392 l 385 404 q 410 475 410 455 q 358 499 410 499 q 220 432 278 499 q 126 280 165 368 q 87 131 87 191 q 156 57 87 57 q 276 107 214 57 q 380 239 338 157 l 397 273 q 404 284 399 275 q 411 256 411 271 q 289 84 411 184 q 95 -7 184 -3 z "},"é":{"ha":403,"x_min":1,"x_max":495,"o":"m 385 300 q 395 267 395 281 q 304 117 395 201 q 81 -7 173 -7 q 1 83 1 -7 q 63 296 1 184 q 222 481 125 408 q 433 569 340 569 q 486 530 486 569 q 460 468 486 504 q 396 402 435 431 q 305 353 360 376 q 220 331 250 331 q 176 366 188 331 q 221 362 204 362 q 346 401 289 362 q 404 486 404 440 q 361 518 404 518 q 208 426 286 518 q 116 274 152 361 q 80 119 80 187 q 138 50 80 50 q 271 120 202 50 q 385 300 340 190 m 469 817 l 495 758 q 299 584 374 715 q 469 817 330 777 z "},"è":{"ha":403,"x_min":1,"x_max":486,"o":"m 385 300 q 395 267 395 281 q 304 117 395 201 q 81 -7 173 -7 q 1 83 1 -7 q 63 296 1 184 q 222 481 125 408 q 433 569 340 569 q 486 530 486 569 q 460 468 486 504 q 396 402 435 431 q 305 353 360 376 q 220 331 250 331 q 176 366 188 331 q 221 362 204 362 q 346 401 289 362 q 404 486 404 440 q 361 518 404 518 q 208 426 286 518 q 116 274 152 361 q 80 119 80 187 q 138 50 80 50 q 271 120 202 50 q 385 300 340 190 m 287 817 q 408 732 356 797 q 473 584 460 668 q 267 758 395 715 l 287 817 z "},"ê":{"ha":403,"x_min":1,"x_max":496,"o":"m 385 300 q 395 267 395 281 q 304 117 395 201 q 81 -7 173 -7 q 1 83 1 -7 q 63 296 1 184 q 222 481 125 408 q 433 569 340 569 q 486 530 486 569 q 460 468 486 504 q 396 402 435 431 q 305 353 360 376 q 220 331 250 331 q 176 366 188 331 q 221 362 204 362 q 346 401 289 362 q 404 486 404 440 q 361 518 404 518 q 208 426 286 518 q 116 274 152 361 q 80 119 80 187 q 138 50 80 50 q 271 120 202 50 q 385 300 340 190 m 490 848 l 490 833 l 491 748 q 496 646 491 702 q 486 638 488 640 l 458 617 q 431 593 443 606 q 432 630 432 611 q 416 717 432 717 q 387 696 406 717 l 362 669 q 287 615 313 615 q 270 620 279 615 l 277 626 l 323 665 q 481 837 395 726 l 490 848 z "},"ë":{"ha":403,"x_min":1,"x_max":491,"o":"m 385 300 q 395 267 395 281 q 304 117 395 201 q 81 -7 173 -7 q 1 83 1 -7 q 63 296 1 184 q 222 481 125 408 q 433 569 340 569 q 486 530 486 569 q 460 468 486 504 q 396 402 435 431 q 305 353 360 376 q 220 331 250 331 q 176 366 188 331 q 221 362 204 362 q 346 401 289 362 q 404 486 404 440 q 361 518 404 518 q 208 426 286 518 q 116 274 152 361 q 80 119 80 187 q 138 50 80 50 q 271 120 202 50 q 385 300 340 190 m 460 734 q 491 703 491 734 q 477 671 491 686 q 446 657 463 657 q 414 688 414 657 q 428 721 414 707 q 460 734 441 734 m 319 734 q 350 703 350 734 q 336 671 350 686 q 304 657 322 657 q 273 688 273 657 q 287 721 273 707 q 319 734 300 734 z "},"í":{"ha":248,"x_min":14,"x_max":399,"o":"m 283 580 l 283 572 q 199 320 283 509 l 149 206 q 108 94 109 115 q 131 75 107 73 q 176 89 144 75 l 184 69 q 14 -3 78 18 q 35 114 18 60 q 110 293 52 168 q 184 480 183 453 q 167 501 186 501 q 144 496 158 501 l 115 486 q 102 481 113 486 l 96 503 l 110 508 q 263 570 185 536 l 283 580 m 373 817 l 399 758 q 203 584 278 715 q 373 817 234 777 z "},"ì":{"ha":248,"x_min":14,"x_max":414,"o":"m 283 580 l 283 572 q 199 320 283 509 l 149 206 q 108 94 109 115 q 131 75 107 73 q 176 89 144 75 l 184 69 q 14 -3 78 18 q 35 114 18 60 q 110 293 52 168 q 184 480 183 453 q 167 501 186 501 q 144 496 158 501 l 115 486 q 102 481 113 486 l 96 503 l 110 508 q 263 570 185 536 l 283 580 m 228 817 q 349 732 297 797 q 414 584 401 668 q 208 758 336 715 l 228 817 z "},"î":{"ha":248,"x_min":14,"x_max":372,"o":"m 366 848 l 366 833 l 367 748 q 372 646 367 702 q 362 638 364 640 l 334 617 q 307 593 319 606 q 308 630 308 611 q 292 717 308 717 q 263 696 281 717 l 238 669 q 163 615 189 615 q 146 620 155 615 l 153 626 l 199 665 q 357 837 271 726 l 366 848 m 283 580 l 283 572 q 199 320 283 509 l 149 206 q 108 94 109 115 q 131 75 107 73 q 176 89 144 75 l 184 69 q 14 -3 78 18 q 35 114 18 60 q 110 293 52 168 q 184 480 183 453 q 167 501 186 501 q 144 496 158 501 l 115 486 q 102 481 113 486 l 96 503 l 110 508 q 263 570 185 536 l 283 580 z "},"ï":{"ha":248,"x_min":14,"x_max":385,"o":"m 283 580 l 283 572 q 199 320 283 509 l 149 206 q 108 94 109 115 q 131 75 107 73 q 176 89 144 75 l 184 69 q 14 -3 78 18 q 35 114 18 60 q 110 293 52 168 q 184 480 183 453 q 167 501 186 501 q 144 496 158 501 l 115 486 q 102 481 113 486 l 96 503 l 110 508 q 263 570 185 536 l 283 580 m 354 734 q 385 703 385 734 q 371 671 385 686 q 340 657 357 657 q 308 688 308 657 q 322 721 308 707 q 354 734 336 734 m 231 734 q 262 703 262 734 q 249 671 262 686 q 217 657 235 657 q 185 688 185 657 q 199 721 185 707 q 231 734 213 734 z "},"ñ":{"ha":541,"x_min":-12,"x_max":598,"o":"m 465 98 l 475 80 q 283 -1 394 22 q 414 338 297 111 l 458 422 q 481 478 481 466 q 466 496 481 496 q 386 449 445 496 q 272 339 328 401 q 79 30 157 210 q -12 -3 47 22 q 114 284 51 125 q 178 472 178 443 q 158 496 178 496 q 114 486 148 496 q 106 484 111 486 l 102 506 q 274 567 197 533 l 283 571 q 284 559 284 562 q 195 302 284 498 l 186 281 l 197 294 q 402 494 309 421 q 549 567 496 567 q 583 533 583 567 q 494 325 583 498 q 387 93 387 119 q 406 73 387 73 q 461 96 426 73 l 465 98 m 321 632 q 359 715 340 694 q 412 736 378 736 q 479 724 432 736 q 536 715 518 715 q 585 749 569 715 l 598 747 q 562 668 581 690 q 507 647 542 647 q 480 650 493 647 l 440 660 q 380 669 399 669 q 336 636 351 669 q 332 629 335 634 l 321 632 z "},"ó":{"ha":460,"x_min":3,"x_max":551,"o":"m 504 500 q 444 504 468 504 q 171 367 266 504 q 108 242 134 313 q 82 125 82 172 q 101 70 82 92 q 151 49 121 49 q 307 162 221 49 q 392 370 392 275 q 381 405 392 391 q 354 420 370 420 q 250 311 300 420 q 247 335 247 325 q 299 423 247 377 q 398 469 351 469 q 451 444 429 469 q 473 382 473 418 q 316 121 473 259 q 93 2 182 2 q 29 30 54 2 q 3 100 3 58 q 68 294 3 193 q 239 469 133 395 q 366 534 297 509 q 483 560 435 560 q 513 534 513 560 q 504 500 513 524 m 526 817 l 551 758 q 355 584 431 715 q 526 817 387 777 z "},"ò":{"ha":460,"x_min":3,"x_max":513,"o":"m 504 500 q 444 504 468 504 q 171 367 266 504 q 108 242 134 313 q 82 125 82 172 q 101 70 82 92 q 151 49 121 49 q 307 162 221 49 q 392 370 392 275 q 381 405 392 391 q 354 420 370 420 q 250 311 300 420 q 247 335 247 325 q 299 423 247 377 q 398 469 351 469 q 451 444 429 469 q 473 382 473 418 q 316 121 473 259 q 93 2 182 2 q 29 30 54 2 q 3 100 3 58 q 68 294 3 193 q 239 469 133 395 q 366 534 297 509 q 483 560 435 560 q 513 534 513 560 q 504 500 513 524 m 288 817 q 409 732 357 797 q 474 584 461 668 q 268 758 395 715 l 288 817 z "},"ô":{"ha":460,"x_min":3,"x_max":524,"o":"m 504 500 q 444 504 468 504 q 171 367 266 504 q 108 242 134 313 q 82 125 82 172 q 101 70 82 92 q 151 49 121 49 q 307 162 221 49 q 392 370 392 275 q 381 405 392 391 q 354 420 370 420 q 250 311 300 420 q 247 335 247 325 q 299 423 247 377 q 398 469 351 469 q 451 444 429 469 q 473 382 473 418 q 316 121 473 259 q 93 2 182 2 q 29 30 54 2 q 3 100 3 58 q 68 294 3 193 q 239 469 133 395 q 366 534 297 509 q 483 560 435 560 q 513 534 513 560 q 504 500 513 524 m 519 848 l 519 833 l 519 748 q 524 646 519 702 q 515 638 517 640 l 486 617 q 459 593 471 606 q 460 630 460 611 q 445 717 460 717 q 416 696 434 717 l 391 669 q 315 615 341 615 q 298 620 307 615 l 305 626 l 351 665 q 510 837 423 726 l 519 848 z "},"ö":{"ha":460,"x_min":3,"x_max":541,"o":"m 504 500 q 444 504 468 504 q 171 367 266 504 q 108 242 134 313 q 82 125 82 172 q 101 70 82 92 q 151 49 121 49 q 307 162 221 49 q 392 370 392 275 q 381 405 392 391 q 354 420 370 420 q 250 311 300 420 q 247 335 247 325 q 299 423 247 377 q 398 469 351 469 q 451 444 429 469 q 473 382 473 418 q 316 121 473 259 q 93 2 182 2 q 29 30 54 2 q 3 100 3 58 q 68 294 3 193 q 239 469 133 395 q 366 534 297 509 q 483 560 435 560 q 513 534 513 560 q 504 500 513 524 m 509 734 q 541 703 541 734 q 527 671 541 686 q 495 657 513 657 q 463 688 463 657 q 477 721 463 707 q 509 734 491 734 m 368 734 q 399 703 399 734 q 386 671 399 686 q 354 657 372 657 q 322 688 322 657 q 336 721 322 707 q 368 734 350 734 z "},"õ":{"ha":460,"x_min":3,"x_max":557,"o":"m 504 500 q 444 504 468 504 q 171 367 266 504 q 108 242 134 313 q 82 125 82 172 q 101 70 82 92 q 151 49 121 49 q 307 162 221 49 q 392 370 392 275 q 381 405 392 391 q 354 420 370 420 q 250 311 300 420 q 247 335 247 325 q 299 423 247 377 q 398 469 351 469 q 451 444 429 469 q 473 382 473 418 q 316 121 473 259 q 93 2 182 2 q 29 30 54 2 q 3 100 3 58 q 68 294 3 193 q 239 469 133 395 q 366 534 297 509 q 483 560 435 560 q 513 534 513 560 q 504 500 513 524 m 280 632 q 318 715 300 694 q 371 736 337 736 q 438 724 391 736 q 495 715 477 715 q 545 749 528 715 l 557 747 q 521 668 541 690 q 467 647 501 647 q 439 650 452 647 l 399 660 q 340 669 359 669 q 295 636 311 669 q 292 629 294 634 l 280 632 z "},"ú":{"ha":507,"x_min":14,"x_max":574,"o":"m 566 559 q 451 304 519 469 q 382 112 383 139 q 405 91 381 91 q 458 104 423 91 l 467 86 q 304 17 418 60 l 286 10 q 353 246 303 121 q 188 73 266 136 q 58 10 109 10 q 14 57 14 10 q 97 288 14 113 l 151 402 q 178 478 176 455 q 155 500 179 500 q 117 492 144 500 l 111 513 l 122 516 q 280 571 217 544 q 220 393 280 517 l 161 272 q 93 102 93 133 q 119 73 93 73 q 293 210 184 73 q 466 513 401 347 l 475 534 q 566 559 514 538 m 549 817 l 574 758 q 378 584 454 715 q 549 817 410 777 z "},"ù":{"ha":507,"x_min":14,"x_max":566,"o":"m 566 559 q 451 304 519 469 q 382 112 383 139 q 405 91 381 91 q 458 104 423 91 l 467 86 q 304 17 418 60 l 286 10 q 353 246 303 121 q 188 73 266 136 q 58 10 109 10 q 14 57 14 10 q 97 288 14 113 l 151 402 q 178 478 176 455 q 155 500 179 500 q 117 492 144 500 l 111 513 l 122 516 q 280 571 217 544 q 220 393 280 517 l 161 272 q 93 102 93 133 q 119 73 93 73 q 293 210 184 73 q 466 513 401 347 l 475 534 q 566 559 514 538 m 311 817 q 432 732 380 797 q 497 584 484 668 q 291 758 418 715 l 311 817 z "},"û":{"ha":507,"x_min":14,"x_max":566,"o":"m 566 559 q 451 304 519 469 q 382 112 383 139 q 405 91 381 91 q 458 104 423 91 l 467 86 q 304 17 418 60 l 286 10 q 353 246 303 121 q 188 73 266 136 q 58 10 109 10 q 14 57 14 10 q 97 288 14 113 l 151 402 q 178 478 176 455 q 155 500 179 500 q 117 492 144 500 l 111 513 l 122 516 q 280 571 217 544 q 220 393 280 517 l 161 272 q 93 102 93 133 q 119 73 93 73 q 293 210 184 73 q 466 513 401 347 l 475 534 q 566 559 514 538 m 524 848 l 524 833 l 524 748 q 529 646 524 702 q 519 638 522 640 l 491 617 q 464 593 476 606 q 465 630 465 611 q 450 717 465 717 q 420 696 439 717 l 395 669 q 320 615 346 615 q 303 620 312 615 l 310 626 l 356 665 q 515 837 428 726 l 524 848 z "},"ü":{"ha":507,"x_min":14,"x_max":566,"o":"m 566 559 q 451 304 519 469 q 382 112 383 139 q 405 91 381 91 q 458 104 423 91 l 467 86 q 304 17 418 60 l 286 10 q 353 246 303 121 q 188 73 266 136 q 58 10 109 10 q 14 57 14 10 q 97 288 14 113 l 151 402 q 178 478 176 455 q 155 500 179 500 q 117 492 144 500 l 111 513 l 122 516 q 280 571 217 544 q 220 393 280 517 l 161 272 q 93 102 93 133 q 119 73 93 73 q 293 210 184 73 q 466 513 401 347 l 475 534 q 566 559 514 538 m 484 734 q 515 703 515 734 q 501 671 515 686 q 469 657 487 657 q 437 688 437 657 q 451 721 437 707 q 484 734 465 734 m 342 734 q 374 703 374 734 q 360 671 374 686 q 328 657 346 657 q 296 688 296 657 q 310 721 296 707 q 342 734 324 734 z "},"†":{"ha":555,"x_min":56,"x_max":732,"o":"m 56 -92 q 193 174 104 -20 q 330 504 281 368 l 335 519 q 387 661 352 568 l 226 661 q 193 656 202 661 q 175 636 184 652 q 171 629 174 633 l 159 629 l 201 719 l 408 719 l 423 763 l 446 826 l 467 888 q 498 981 490 952 q 604 1019 563 998 q 537 843 587 979 l 514 781 l 491 719 l 612 719 l 640 719 q 730 737 695 719 l 732 739 l 730 734 l 726 724 q 610 661 699 661 l 578 661 l 469 661 q 172 -50 311 219 l 161 -55 q 56 -92 98 -87 z "},"°":{"ha":370,"x_min":254,"x_max":541,"o":"m 443 918 q 513 888 484 918 q 541 817 541 859 q 483 695 541 756 q 366 633 424 633 q 288 664 321 633 q 254 736 254 694 q 314 861 254 804 q 443 918 373 918 m 417 878 q 332 845 369 878 q 296 769 296 812 q 320 704 296 728 q 385 679 344 679 q 463 711 431 679 q 496 790 496 744 q 474 853 496 828 q 417 878 452 878 z "},"¢":{"ha":593,"x_min":78,"x_max":580,"o":"m 580 569 l 570 551 l 528 474 q 482 393 496 416 l 459 393 q 467 410 466 407 l 478 437 q 488 471 488 463 q 448 497 488 494 l 444 486 q 254 74 360 266 l 244 56 q 482 286 397 89 q 486 251 486 266 q 397 111 486 193 q 208 -5 308 29 l 203 -13 l 155 -87 q 109 -152 133 -121 l 83 -152 q 172 -8 136 -80 q 153 -9 163 -9 q 99 22 119 -9 q 78 100 78 52 q 182 347 78 211 q 414 538 286 482 q 416 546 416 545 l 422 574 q 427 604 427 595 q 364 638 427 638 l 364 656 l 376 656 q 506 663 437 656 q 492 614 501 642 l 477 573 l 471 557 q 560 570 518 570 l 580 569 m 399 495 q 281 410 341 484 q 197 269 230 347 q 165 131 165 191 q 212 58 165 67 q 318 278 260 142 q 399 495 376 414 z "},"£":{"ha":593,"x_min":-56,"x_max":662,"o":"m -56 -1 l -20 71 q 185 149 100 77 q 270 315 270 220 q 252 405 270 363 l 150 405 l 152 427 l 245 427 q 189 644 189 579 q 288 831 189 755 q 498 910 390 910 q 617 868 572 910 q 662 757 662 825 q 570 590 662 660 q 453 534 496 534 q 412 572 412 534 q 460 561 428 561 q 547 609 510 561 q 583 722 583 656 q 546 832 583 790 q 448 873 509 873 q 313 822 374 873 q 252 706 252 770 q 296 559 252 668 q 339 427 321 498 l 477 427 l 475 405 l 342 405 q 346 375 346 390 q 292 215 346 288 q 140 94 238 141 l 108 79 q 84 67 98 75 q 216 64 147 67 q 313 60 288 60 q 505 154 427 60 q 574 311 574 237 q 594 271 594 294 q 540 156 594 227 q 402 36 481 80 q 243 -8 322 -8 q 156 -2 210 -8 q 54 5 88 5 q -56 -1 -3 5 z "},"§":{"ha":555,"x_min":-5,"x_max":749,"o":"m 674 829 l 654 842 q 657 854 656 850 q 667 905 667 889 q 583 955 667 955 q 490 940 533 955 q 431 903 448 926 q 401 821 401 862 q 441 711 401 771 l 525 588 q 564 477 564 531 q 515 337 564 408 q 397 237 466 267 q 411 157 411 189 q 341 5 411 78 q 227 -71 291 -48 q 61 -93 162 -93 q -5 -88 24 -93 l 1 -75 l 31 4 q 66 87 43 37 l 70 96 l 90 83 q 87 71 88 75 q 77 21 77 38 q 153 -28 77 -28 q 297 6 247 -28 q 348 104 348 41 q 307 214 348 154 l 223 338 q 184 448 184 395 q 208 541 184 487 q 263 627 231 594 q 353 686 288 654 q 336 769 336 741 q 423 941 336 864 q 531 1001 471 983 q 683 1019 591 1019 q 749 1014 720 1019 l 743 1000 q 678 838 703 893 l 674 829 m 372 640 q 286 605 322 640 q 250 521 250 570 q 290 415 250 473 l 357 317 q 376 286 360 312 q 462 321 426 286 q 498 405 498 357 q 458 511 498 453 l 391 609 q 372 640 388 614 z "},"•":{"ha":926,"x_min":272,"x_max":657,"o":"m 465 663 q 601 607 545 663 q 657 471 657 551 q 601 334 657 391 q 465 278 545 278 q 328 334 385 278 q 272 471 272 391 q 328 607 272 551 q 465 663 385 663 z "},"¶":{"ha":555,"x_min":171,"x_max":826,"o":"m 808 969 q 729 973 755 973 q 535 942 630 973 l 523 938 q 551 882 551 922 q 385 621 551 766 q 232 532 284 532 q 188 552 205 532 q 171 603 171 572 q 229 746 171 666 q 377 890 286 826 q 793 1032 578 1032 q 826 1014 826 1032 q 808 969 826 1004 m 382 64 q 386 41 386 50 q 323 0 386 0 q 228 46 264 0 q 192 170 192 93 q 340 450 192 309 l 494 595 q 572 702 541 640 q 604 810 604 764 q 568 935 604 858 l 590 939 q 660 701 660 833 q 361 248 660 455 q 270 173 296 203 q 244 111 244 142 q 268 64 244 83 q 327 46 291 46 q 382 64 353 46 m 220 140 q 308 260 238 201 l 370 312 q 566 520 505 425 q 626 713 626 614 l 625 741 q 447 481 596 617 l 386 425 q 238 248 282 330 q 218 164 218 211 q 220 140 218 157 z "},"ß":{"ha":509,"x_min":-350,"x_max":653,"o":"m 611 766 l 589 766 q 595 827 595 805 q 540 865 595 865 q 443 840 492 865 q 361 775 393 815 q 224 448 311 713 l 231 458 q 278 509 255 492 q 348 540 302 525 q 390 558 379 549 q 412 593 401 568 q 416 602 413 596 q 471 599 439 599 l 500 600 l 509 600 q 493 560 504 591 l 483 531 q 479 519 481 528 q 422 524 446 524 q 299 494 347 524 q 252 417 252 464 q 313 328 252 370 l 403 267 q 462 163 462 226 q 400 42 462 97 q 264 -13 338 -13 q 171 60 171 -13 q 179 101 171 83 q 300 33 227 33 q 381 57 347 33 q 414 115 414 81 q 348 201 414 154 q 231 294 260 262 q 202 363 202 326 q 203 380 202 370 l 82 -3 q 69 -3 73 -3 q 33 -15 46 -3 q 3 -64 20 -28 l -27 -136 q -145 -317 -75 -248 q -279 -386 -215 -386 q -330 -367 -310 -386 q -350 -318 -350 -347 q -349 -309 -350 -315 q -278 -321 -321 -321 q -105 -221 -176 -321 q 53 147 -34 -121 l 141 418 l 170 511 q 273 721 212 638 q 431 863 334 804 q 612 926 536 926 q 653 909 653 926 q 650 897 653 904 q 640 865 645 881 l 611 766 z "},"®":{"ha":1118,"x_min":163,"x_max":1153,"o":"m 923 265 l 929 249 l 920 243 q 828 190 861 206 l 820 210 q 792 286 803 256 q 743 398 764 364 q 623 247 696 302 q 471 191 550 191 q 331 245 386 191 q 276 381 276 298 q 439 641 276 537 q 848 744 602 744 q 1030 635 1030 744 q 937 528 1030 564 q 880 475 892 510 q 823 477 848 477 q 783 475 801 477 l 770 444 q 831 338 799 408 l 848 302 q 890 254 869 254 q 923 265 903 254 m 719 623 q 833 652 779 635 l 831 646 q 795 519 814 574 q 825 519 816 519 q 932 548 894 519 q 971 628 971 576 q 808 724 971 724 q 444 615 576 724 q 330 397 330 521 q 379 270 330 319 q 508 220 429 220 q 618 271 570 220 q 713 433 666 321 q 630 467 675 467 q 556 436 587 467 q 517 357 525 406 q 501 393 501 374 q 556 459 501 429 q 677 489 610 489 q 730 477 707 489 l 736 494 l 746 523 q 763 590 763 572 q 745 612 763 612 q 730 611 739 612 l 722 610 l 719 623 m 809 948 q 1056 852 958 948 q 1153 607 1153 755 q 1096 401 1153 511 q 935 190 1038 292 q 555 -4 737 -4 q 395 28 477 -4 q 260 113 313 60 q 163 350 163 206 q 348 732 163 552 q 575 890 452 833 q 809 948 698 948 m 799 924 q 467 798 631 924 q 229 359 229 616 q 326 100 229 183 q 551 18 418 18 q 862 155 707 18 q 1084 602 1084 351 q 1009 839 1084 755 q 799 924 935 924 z "},"©":{"ha":1118,"x_min":163,"x_max":1153,"o":"m 691 458 q 716 412 716 445 q 671 296 716 359 q 488 182 591 182 q 361 231 410 182 q 311 355 311 279 q 354 526 311 441 q 472 671 397 611 q 806 785 612 785 q 946 746 894 785 q 999 641 999 707 q 936 523 999 572 q 785 474 873 474 q 600 507 734 474 q 491 525 526 525 q 438 515 466 525 l 443 522 q 483 570 472 555 q 518 583 506 582 q 549 577 524 583 l 614 563 q 694 538 625 560 q 840 509 787 509 q 932 540 895 509 q 970 616 970 571 q 911 707 970 672 q 762 743 852 743 q 481 636 600 743 q 363 382 363 529 q 406 266 363 308 q 524 224 448 224 q 643 288 595 224 q 691 443 691 351 l 691 458 m 809 948 q 1056 852 958 948 q 1153 607 1153 755 q 1096 401 1153 511 q 935 190 1038 292 q 555 -4 737 -4 q 395 28 477 -4 q 260 113 313 60 q 163 350 163 206 q 348 732 163 552 q 575 890 452 833 q 809 948 698 948 m 799 924 q 467 798 631 924 q 229 359 229 616 q 326 100 229 183 q 551 18 418 18 q 862 155 707 18 q 1084 602 1084 351 q 1009 839 1084 755 q 799 924 935 924 z "},"™":{"ha":1334,"x_min":90,"x_max":1520,"o":"m 333 648 q 288 720 288 672 q 368 864 288 792 q 530 935 448 935 q 603 926 562 935 l 677 907 q 842 895 729 895 q 1007 914 936 895 q 893 859 944 873 q 761 845 842 845 q 712 847 746 845 l 707 828 q 552 495 655 610 q 306 379 448 379 q 149 426 208 379 q 90 550 90 473 q 145 671 90 621 l 151 668 q 148 662 149 665 l 142 649 q 128 584 128 619 q 185 455 128 507 q 328 404 243 404 q 513 514 436 404 q 605 669 578 608 q 663 854 632 731 l 650 858 l 630 863 q 498 884 543 884 q 372 837 421 884 q 323 713 323 789 q 333 648 323 685 m 1520 911 l 1489 810 l 1475 812 q 1476 819 1476 817 q 1478 829 1478 824 q 1442 847 1478 847 q 1376 806 1408 847 q 1324 699 1343 766 q 1293 560 1311 654 q 1273 434 1274 465 q 1281 419 1272 420 q 1293 422 1284 419 l 1310 429 l 1314 431 l 1321 418 q 1261 395 1305 412 q 1204 372 1230 384 q 1259 684 1204 460 l 1245 667 q 1192 601 1238 658 l 1108 496 l 1023 391 l 1014 380 l 1004 387 q 1007 422 1007 399 q 985 565 1007 487 l 975 600 q 971 612 974 602 q 838 444 877 477 q 705 387 772 387 q 632 416 664 387 q 600 483 600 446 q 603 509 600 492 q 718 433 642 433 q 828 472 780 433 q 966 631 877 511 q 959 698 959 671 q 995 850 959 774 q 1068 926 1031 926 q 1101 908 1088 926 q 1114 865 1114 891 q 1099 798 1114 830 q 1035 691 1084 765 l 1023 673 q 1072 474 1059 576 l 1082 486 q 1101 509 1095 503 l 1281 733 q 1415 877 1369 842 q 1520 911 1462 911 m 1015 688 q 1066 856 1066 787 q 1045 886 1066 886 q 1019 852 1029 886 q 1008 771 1008 819 q 1015 688 1008 736 z "},"´":{"ha":694,"x_min":473,"x_max":669,"o":"m 643 817 l 669 758 q 473 584 548 715 q 643 817 504 777 z "},"¨":{"ha":694,"x_min":446,"x_max":664,"o":"m 633 734 q 664 703 664 734 q 650 671 664 686 q 618 657 636 657 q 587 688 587 657 q 601 721 587 707 q 633 734 614 734 m 492 734 q 523 703 523 734 q 509 671 523 686 q 477 657 495 657 q 446 688 446 657 q 459 721 446 707 q 492 734 473 734 z "},"≠":{"ha":644,"x_min":134,"x_max":651,"o":"m 449 426 l 402 371 l 614 371 l 598 333 l 369 333 l 260 208 l 214 208 l 321 333 l 134 333 l 150 371 l 355 371 l 401 426 l 172 426 l 187 464 l 435 464 l 543 588 l 590 588 l 482 464 l 651 464 l 635 426 l 449 426 z "},"Æ":{"ha":1567,"x_min":-104,"x_max":1570,"o":"m 1399 926 l 1395 913 q 1373 841 1382 874 l 1356 772 l 1352 756 l 1325 756 q 1337 820 1337 793 q 1310 854 1337 850 q 1086 859 1282 859 l 908 858 l 868 859 q 866 823 866 832 q 896 578 866 732 l 1231 578 l 1213 506 l 1078 506 q 1154 359 1154 450 q 1081 178 1154 256 q 1197 112 1123 142 q 1319 81 1272 81 q 1467 141 1409 81 q 1541 310 1525 200 q 1570 254 1570 296 q 1434 83 1570 176 q 1289 2 1318 3 q 1166 41 1260 1 q 1019 125 1082 77 q 801 33 941 66 q 495 -1 661 -1 q 326 8 427 -1 q -12 26 113 26 q -104 21 -73 26 q -84 52 -96 30 l -68 81 q -63 93 -67 83 q 258 289 85 136 q 649 720 431 441 q 753 846 720 810 q 819 923 805 904 l 854 922 l 1236 922 l 1375 924 q 1399 926 1383 925 m 911 506 q 1046 211 945 312 q 1093 349 1093 271 q 1044 464 1093 422 q 911 506 996 506 m 812 578 q 802 719 802 651 q 807 863 802 827 q 798 852 799 852 l 741 785 q 663 688 726 768 q 588 595 631 648 l 574 578 l 812 578 m 823 506 l 513 506 l 496 488 q 152 166 264 245 l 60 104 l 48 96 q 156 102 112 102 q 443 83 288 102 l 620 60 q 707 54 660 54 q 869 81 793 54 q 987 153 945 108 q 823 506 862 272 z "},"Ø":{"ha":1253,"x_min":130,"x_max":1299,"o":"m 1031 939 l 1036 939 q 1143 928 1094 935 l 1082 758 q 1247 668 1196 726 q 1299 515 1299 610 q 1143 184 1299 333 q 910 40 1047 92 q 627 -12 773 -12 q 459 5 545 -12 l 455 6 l 389 -100 l 365 -100 l 433 12 l 429 12 q 130 378 130 94 q 202 613 130 502 q 405 801 275 725 q 977 941 644 941 l 1006 940 l 1077 1056 l 1103 1056 l 1031 939 m 994 880 l 932 779 q 1029 770 965 779 l 1043 768 l 1074 869 q 999 879 1050 873 l 994 880 m 916 752 l 705 410 q 897 505 819 427 q 1031 737 975 583 q 920 752 966 752 l 916 752 m 658 334 l 480 47 q 669 19 572 19 q 1054 158 899 19 q 1208 504 1208 298 q 1170 650 1208 589 q 1069 728 1132 712 q 902 472 1006 571 q 662 336 799 372 l 658 334 m 460 55 l 629 328 q 536 321 584 321 l 477 321 q 446 318 460 321 q 412 305 433 315 q 420 319 418 316 l 437 355 q 517 404 461 404 l 602 404 q 673 407 640 404 l 677 407 l 890 751 l 885 751 q 737 720 811 751 q 614 637 663 689 q 536 491 558 578 q 520 543 520 515 q 627 709 520 644 q 754 758 674 738 q 901 779 835 779 l 906 779 l 970 882 q 959 882 965 882 q 856 886 910 886 q 384 747 537 886 q 266 581 309 678 q 223 380 223 484 q 456 56 223 141 l 460 55 z "},"∞":{"ha":926,"x_min":20,"x_max":905,"o":"m 441 407 q 335 274 380 309 q 227 239 290 239 q 81 303 141 239 q 20 458 20 367 q 84 626 20 557 q 239 695 149 695 q 471 523 365 695 q 490 549 484 541 q 578 659 548 638 q 691 696 630 696 q 843 629 781 696 q 905 467 905 563 q 839 301 905 370 q 679 232 772 232 q 551 278 613 232 q 441 407 489 323 m 488 497 q 607 354 551 397 q 729 311 663 311 q 829 355 788 311 q 870 464 870 399 q 821 579 870 536 q 688 622 771 622 q 577 594 622 622 q 488 497 532 566 m 421 435 q 306 576 356 536 q 192 615 256 615 q 94 572 134 615 q 55 465 55 529 q 102 354 55 396 q 229 313 150 313 q 334 340 292 313 q 421 435 376 367 z "},"±":{"ha":593,"x_min":12,"x_max":599,"o":"m 599 417 l 583 379 l 371 379 l 289 166 l 252 166 l 332 379 l 119 379 l 135 417 l 347 417 l 429 630 l 467 630 l 385 417 l 599 417 m 491 121 l 475 83 l 12 83 l 27 121 l 491 121 z "},"≤":{"ha":694,"x_min":60,"x_max":633,"o":"m 633 848 l 633 802 l 186 510 l 633 212 l 633 88 l 60 470 l 60 478 l 633 848 m 60 43 l 633 43 l 633 0 l 60 0 l 60 43 z "},"≥":{"ha":694,"x_min":60,"x_max":633,"o":"m 60 43 l 633 43 l 633 0 l 60 0 l 60 43 m 60 88 l 60 135 l 507 427 l 60 725 l 60 848 l 633 465 l 633 456 l 60 88 z "},"¥":{"ha":593,"x_min":100,"x_max":886,"o":"m 446 313 l 357 28 l 266 0 l 365 313 l 256 313 l 256 334 l 368 334 l 356 406 l 256 406 l 256 427 l 349 427 q 338 461 341 453 l 317 527 l 270 680 q 216 822 237 783 q 172 861 195 861 q 113 831 150 861 l 100 851 q 109 859 109 857 l 163 900 l 224 948 q 236 958 228 951 q 325 766 273 910 q 411 472 377 622 l 416 446 q 428 479 427 474 l 475 631 q 631 859 513 755 q 850 962 748 962 q 886 945 886 962 q 882 926 886 939 l 870 883 l 851 820 q 847 804 850 816 l 823 804 q 832 861 832 840 q 781 903 832 903 q 636 831 701 903 q 507 520 574 761 l 490 456 l 481 427 l 579 427 l 579 406 l 476 406 l 454 334 l 579 334 l 579 313 l 446 313 z "},"µ":{"ha":665,"x_min":-137,"x_max":699,"o":"m 590 71 l 583 50 l 457 -14 q 450 -15 454 -15 q 424 0 436 -15 q 412 33 412 16 q 419 80 412 52 q 425 104 421 88 q 266 4 317 28 q 157 -20 214 -20 q 51 80 51 -20 q 52 104 51 91 l 39 68 q -3 -66 13 -3 q -37 -194 -28 -172 q -105 -262 -65 -264 q -137 -226 -137 -260 q -127 -187 -137 -208 l -92 -118 l -43 -19 q 132 395 54 180 l 220 635 l 305 635 l 160 237 q 130 111 130 154 q 155 61 130 81 q 217 41 180 41 q 440 157 318 41 l 614 635 l 699 635 l 526 159 q 506 89 506 105 q 544 54 506 54 q 590 71 560 54 z "},"∂":{"ha":694,"x_min":46,"x_max":649,"o":"m 205 927 l 219 951 q 466 782 369 888 q 596 563 544 697 q 649 315 649 429 q 563 74 649 168 q 340 -20 476 -20 q 131 74 216 -20 q 46 304 46 168 q 133 529 46 438 q 349 619 220 619 q 460 594 414 619 q 550 508 505 569 q 419 761 496 667 q 205 927 342 854 m 352 589 q 249 556 298 589 q 170 452 202 525 q 138 302 138 379 q 197 96 138 181 q 342 11 256 11 q 494 95 433 11 q 556 304 556 179 q 499 509 556 429 q 352 589 442 589 z "},"∑":{"ha":926,"x_min":83,"x_max":846,"o":"m 83 926 l 789 926 l 789 708 l 764 708 q 701 853 750 815 q 527 891 652 891 l 207 891 l 496 345 l 168 -267 l 535 -267 q 728 -220 665 -267 q 821 -58 792 -173 l 846 -58 l 800 -324 l 83 -324 l 418 300 l 83 926 z "},"∏":{"ha":926,"x_min":33,"x_max":892,"o":"m 33 926 l 892 926 l 892 901 l 861 901 q 784 882 800 901 q 769 790 769 863 l 769 -189 q 784 -280 769 -261 q 858 -299 800 -299 l 892 -299 l 892 -324 l 549 -324 l 549 -299 l 578 -299 q 655 -281 640 -299 q 671 -189 671 -262 l 671 790 q 655 882 671 864 q 578 901 640 901 l 349 901 q 272 882 288 901 q 257 790 257 864 l 257 -189 q 272 -280 257 -262 q 347 -299 288 -299 l 380 -299 l 380 -324 l 37 -324 l 37 -299 l 66 -299 q 143 -281 128 -299 q 159 -189 159 -262 l 159 790 q 143 882 159 864 q 66 901 128 901 l 33 901 l 33 926 z "},"π":{"ha":694,"x_min":-25,"x_max":768,"o":"m 768 646 l 768 581 l 551 581 l 540 553 q 501 401 501 456 l 501 176 q 512 73 501 96 q 558 50 522 50 q 609 61 572 50 q 626 66 614 63 l 626 43 l 490 -13 q 474 -18 478 -18 q 433 21 456 -18 q 412 115 412 56 l 412 334 q 439 459 412 406 l 466 509 l 490 559 q 503 581 492 564 l 261 581 l 258 408 q 234 92 258 275 q 180 -23 218 -23 q 150 -6 163 -23 q 137 30 137 10 q 151 94 137 55 q 197 312 178 172 q 216 581 216 452 q 90 556 134 581 q -10 457 46 532 l -25 475 l 73 600 q 197 646 109 646 l 768 646 z "},"∫":{"ha":696,"x_min":23,"x_max":673,"o":"m 397 642 l 397 26 q 355 -255 397 -174 q 180 -368 295 -368 q 70 -327 116 -368 q 23 -229 23 -286 q 43 -176 23 -197 q 92 -155 62 -155 q 138 -173 119 -155 q 158 -215 158 -191 q 152 -245 158 -231 q 145 -272 145 -260 q 186 -315 145 -315 q 267 -244 235 -315 q 299 -64 299 -174 l 299 568 q 342 852 299 770 q 513 965 401 965 q 626 924 579 965 q 673 827 673 884 q 654 773 673 794 q 606 751 635 751 q 558 769 578 751 q 538 812 538 787 q 545 842 538 827 q 551 869 551 857 q 511 911 551 911 q 428 838 459 911 q 397 642 397 764 z "},"ª":{"ha":521,"x_min":134,"x_max":706,"o":"m 587 625 l 597 613 q 446 558 544 578 q 446 566 446 565 q 498 712 448 611 q 362 600 433 644 q 249 556 292 556 q 204 604 204 556 q 360 822 204 719 q 687 926 515 926 q 705 914 705 926 q 690 877 706 905 q 618 882 652 882 q 343 779 453 882 q 268 638 268 709 q 302 593 268 593 q 376 629 330 593 q 458 715 422 666 q 521 857 507 783 q 555 816 555 846 q 507 724 555 777 q 564 737 532 727 l 574 741 l 571 732 l 547 674 q 528 619 528 629 q 540 607 528 606 q 587 625 551 608 m 171 494 l 498 494 l 518 494 q 587 512 558 494 q 550 456 569 470 q 493 441 531 441 l 469 441 l 185 441 q 146 419 159 441 l 143 414 l 134 414 l 171 494 z "},"º":{"ha":521,"x_min":134,"x_max":646,"o":"m 637 880 q 589 882 610 882 q 384 795 451 882 q 327 644 327 721 q 343 607 327 622 q 382 593 359 593 q 492 660 433 593 q 551 786 551 728 q 519 823 551 823 q 446 760 477 823 q 442 779 442 771 q 480 835 442 807 q 556 863 518 863 q 602 845 583 863 q 621 803 621 827 q 509 635 621 721 q 340 557 408 557 q 282 577 304 557 q 260 630 260 597 q 412 852 260 753 q 619 923 521 923 q 646 901 646 923 q 637 880 646 891 m 171 494 l 498 494 l 518 494 q 587 512 558 494 q 550 456 569 470 q 493 441 531 441 l 469 441 l 185 441 q 146 419 159 441 l 143 414 l 134 414 l 171 494 z "},"Ω":{"ha":926,"x_min":-26,"x_max":951,"o":"m 951 158 l 899 0 l 519 0 l 519 54 q 702 185 643 113 q 812 493 812 317 q 720 781 812 656 q 463 904 628 904 q 208 784 299 904 q 113 495 113 659 q 222 187 113 321 q 407 54 283 112 l 407 0 l 26 0 l -26 158 l 0 158 q 57 78 21 98 q 175 57 93 57 l 324 54 l 324 60 q 146 168 210 107 q 0 494 0 304 q 123 798 0 661 q 463 941 251 941 q 814 788 684 941 q 925 497 925 657 q 777 165 925 303 q 602 60 716 109 l 602 54 l 757 58 q 869 78 835 58 q 925 158 903 98 l 951 158 z "},"æ":{"ha":801,"x_min":-17,"x_max":884,"o":"m 781 300 q 791 267 791 287 q 675 92 791 193 q 475 -9 559 -9 q 418 17 439 -9 q 397 87 397 43 q 429 228 397 142 q 361 64 361 108 q 371 41 361 52 q 252 0 318 13 q 319 176 258 44 l 335 211 q 166 57 252 117 q 28 -3 79 -3 q -17 58 -17 -3 q 44 236 -17 138 q 205 410 106 333 q 403 520 290 477 q 604 564 516 564 q 635 548 635 564 q 615 496 635 532 q 520 502 566 502 q 133 296 286 502 q 60 111 60 197 q 102 54 60 52 q 273 196 163 57 q 404 475 366 315 q 435 410 435 450 q 371 256 435 345 q 450 277 414 260 q 647 500 520 418 q 827 568 754 568 q 884 528 884 568 q 790 400 884 471 q 618 330 695 330 q 572 367 580 330 q 614 363 597 363 q 742 400 683 363 q 800 482 800 438 q 757 515 800 515 q 584 399 674 515 q 508 261 539 342 q 476 123 476 181 q 536 50 476 50 q 668 118 602 50 q 781 300 734 185 z "},"ø":{"ha":458,"x_min":-16,"x_max":485,"o":"m 485 646 l 374 473 l 380 473 q 444 447 419 473 q 469 382 469 421 q 283 94 469 240 q 92 0 164 0 q 73 1 86 0 l 8 -102 l -16 -102 l 54 9 q 1 101 1 36 q 85 323 1 206 q 332 522 167 435 q 398 563 378 546 q 441 614 417 579 l 462 646 l 485 646 m 343 423 l 112 59 q 147 47 130 47 q 290 144 210 47 q 361 259 333 196 q 389 365 389 321 q 343 423 389 412 m 318 422 q 214 316 252 409 l 210 304 q 205 330 205 321 q 245 412 205 372 q 348 469 286 451 l 376 515 q 233 437 281 474 q 151 340 186 400 q 80 119 80 219 q 95 73 80 93 l 318 422 z "},"¿":{"ha":541,"x_min":-93,"x_max":448,"o":"m 331 -180 l 355 -180 l 349 -194 q 298 -334 317 -269 l 293 -351 q 125 -381 199 -381 q -36 -335 22 -381 q -93 -205 -93 -289 q -20 8 -93 -99 q 74 104 19 66 q 230 181 130 142 q 404 302 404 248 q 340 345 404 345 q 331 345 338 345 q 382 383 348 383 q 417 367 403 383 q 431 327 431 351 q 374 195 431 261 q 240 103 317 129 l 134 68 q -53 -146 -53 7 q 150 -295 -53 -295 q 264 -274 229 -295 q 327 -189 299 -254 q 331 -180 328 -186 m 414 534 q 448 501 448 536 q 434 470 448 484 q 401 456 420 456 q 370 486 370 456 q 383 519 370 505 q 414 534 396 533 z "},"¡":{"ha":254,"x_min":-37,"x_max":328,"o":"m -37 -385 q 66 -99 -8 -287 l 164 153 q 254 364 205 256 q 267 290 267 330 q 212 69 267 212 l 147 -101 q 78 -311 78 -281 q 157 -357 78 -357 l 150 -379 l 135 -379 l 56 -379 q -37 -385 10 -379 m 296 522 q 328 490 328 522 q 313 459 328 473 q 281 445 298 445 q 250 475 250 445 q 264 508 250 493 q 296 522 279 522 z "},"¬":{"ha":694,"x_min":51,"x_max":644,"o":"m 528 0 l 528 319 l 51 319 l 51 370 l 644 370 l 644 0 l 528 0 z "},"√":{"ha":926,"x_min":23,"x_max":903,"o":"m 903 1143 l 903 1107 l 735 1107 l 478 0 l 378 0 l 257 502 l 23 502 l 23 538 l 340 538 l 450 70 l 702 1143 l 903 1143 z "},"ƒ":{"ha":593,"x_min":-181,"x_max":838,"o":"m -178 -308 q -107 -317 -141 -317 q 56 -239 -11 -317 q 146 -79 101 -186 q 286 315 191 29 q 303 366 296 346 l 317 408 l 238 408 l 245 426 q 254 427 252 427 l 273 428 q 351 497 327 431 l 395 617 q 627 871 450 770 q 791 927 726 927 q 836 907 838 927 q 823 863 836 899 l 791 768 l 770 768 q 783 831 783 810 q 720 866 783 866 q 539 768 612 866 q 484 669 510 730 q 393 429 458 608 l 503 429 l 496 408 l 386 408 q 206 -39 290 115 q 33 -300 107 -222 q -116 -378 -41 -378 q -162 -363 -144 -378 q -181 -328 -181 -349 q -178 -308 -181 -321 z "},"≈":{"ha":694,"x_min":38,"x_max":656,"o":"m 637 658 l 656 646 q 564 552 618 588 q 458 517 509 517 q 365 536 427 517 q 194 576 241 576 q 132 562 157 576 q 70 507 107 548 q 58 492 66 502 l 38 505 q 237 635 132 635 q 374 606 282 635 q 489 580 452 580 q 637 658 572 580 m 637 444 l 656 433 q 564 339 619 374 q 458 303 509 303 q 365 323 427 303 q 194 362 241 362 q 132 348 157 362 q 70 293 107 334 l 58 279 l 38 291 q 237 422 132 422 q 374 391 281 422 q 489 366 452 366 q 637 444 572 366 z "},"∆":{"ha":926,"x_min":14,"x_max":912,"o":"m 484 949 l 912 0 l 14 0 l 441 949 l 484 949 m 437 831 l 144 180 q 123 113 123 134 q 186 64 123 64 l 775 64 l 437 831 z "},"«":{"ha":601,"x_min":61,"x_max":650,"o":"m 650 575 q 409 378 570 482 q 362 323 362 347 q 397 243 362 299 q 498 43 470 127 q 461 22 485 35 q 427 1 441 11 q 325 218 381 123 l 273 303 l 268 313 l 281 321 q 568 560 461 433 q 650 575 614 566 m 457 576 q 229 395 412 514 q 164 350 174 359 q 155 321 155 340 q 182 253 155 299 q 290 39 262 121 l 282 34 l 254 19 q 217 -3 233 7 l 214 6 l 193 57 q 61 312 143 187 q 101 338 68 317 q 309 503 207 404 l 359 551 l 365 556 q 410 566 372 558 l 446 574 l 457 576 z "},"»":{"ha":601,"x_min":-3,"x_max":586,"o":"m -3 -2 q 237 196 79 94 q 284 251 284 226 q 249 331 284 275 q 149 530 177 445 q 186 551 162 538 q 220 572 205 563 q 322 356 266 451 l 373 271 l 379 260 l 366 252 q 79 14 184 139 q -3 -2 33 7 m 190 -3 q 418 178 237 62 q 483 223 473 214 q 492 253 492 233 q 465 321 492 275 q 357 535 385 452 l 365 539 l 393 554 q 430 576 414 566 l 433 568 l 454 516 q 586 262 506 380 l 579 257 l 546 236 q 338 71 438 168 l 288 23 l 282 17 q 237 8 274 15 l 201 0 l 190 -3 z "},"…":{"ha":694,"x_min":1,"x_max":541,"o":"m 47 77 q 78 46 78 77 q 64 14 78 28 q 33 0 50 0 q 1 31 1 0 q 15 63 1 50 q 47 77 28 77 m 278 77 q 309 46 309 77 q 295 14 309 28 q 264 0 281 0 q 232 31 232 0 q 246 63 232 50 q 278 77 260 77 m 510 77 q 541 46 541 77 q 527 14 541 28 q 496 0 513 0 q 464 31 464 0 q 478 63 464 50 q 510 77 492 77 z "},"À":{"ha":1141,"x_min":-102,"x_max":1133,"o":"m 899 1007 l 918 989 q 881 930 890 958 q 872 847 872 903 q 975 294 872 616 q 1065 115 1033 115 q 1116 151 1081 115 l 1133 134 l 1124 125 q 1018 5 1066 63 l 1004 -12 q 860 376 918 166 q 802 719 802 587 q 810 846 802 774 l 812 865 q 646 668 758 808 q 520 517 576 581 l 505 499 q 588 502 542 502 l 785 498 l 813 497 q 766 329 789 429 l 740 329 q 749 386 749 366 q 732 420 749 412 q 659 428 714 428 l 561 428 l 450 426 l 437 425 l 419 408 q 222 222 273 265 q 71 113 171 178 l 52 100 q 156 104 100 104 q 352 96 284 104 l 479 81 q 571 75 530 75 q 739 130 676 75 q 817 288 802 184 q 842 250 842 273 q 764 116 842 191 q 500 -1 642 -1 q 370 8 452 -1 q 54 29 168 29 l -89 26 l -102 26 l -59 94 q 273 297 120 159 q 703 781 425 435 q 899 1007 837 947 m 850 1233 q 1021 1000 1002 1191 q 814 1174 943 1131 l 850 1233 z "},"Ã":{"ha":1141,"x_min":-102,"x_max":1133,"o":"m 899 1007 l 918 989 q 881 930 890 958 q 872 847 872 903 q 975 294 872 616 q 1065 115 1033 115 q 1116 151 1081 115 l 1133 134 l 1124 125 q 1018 5 1066 63 l 1004 -12 q 860 376 918 166 q 802 719 802 587 q 810 846 802 774 l 812 865 q 646 668 758 808 q 520 517 576 581 l 505 499 q 588 502 542 502 l 785 498 l 813 497 q 766 329 789 429 l 740 329 q 749 386 749 366 q 732 420 749 412 q 659 428 714 428 l 561 428 l 450 426 l 437 425 l 419 408 q 222 222 273 265 q 71 113 171 178 l 52 100 q 156 104 100 104 q 352 96 284 104 l 479 81 q 571 75 530 75 q 739 130 676 75 q 817 288 802 184 q 842 250 842 273 q 764 116 842 191 q 500 -1 642 -1 q 370 8 452 -1 q 54 29 168 29 l -89 26 l -102 26 l -59 94 q 273 297 120 159 q 703 781 425 435 q 899 1007 837 947 m 779 1040 q 822 1131 800 1105 q 881 1156 844 1156 q 956 1142 904 1156 q 1019 1131 1000 1131 q 1075 1173 1061 1131 l 1089 1171 q 1048 1084 1072 1109 q 987 1059 1025 1059 q 958 1063 972 1059 l 912 1074 q 846 1085 867 1085 q 816 1077 826 1085 q 795 1045 806 1069 q 792 1037 795 1042 l 779 1040 z "},"Õ":{"ha":1253,"x_min":130,"x_max":1299,"o":"m 1143 928 l 1082 758 q 1247 667 1196 726 q 1299 515 1299 609 q 1143 184 1299 334 q 909 39 1046 91 q 623 -12 772 -12 q 263 91 396 -12 q 130 368 130 193 q 200 611 130 500 q 405 801 271 723 q 961 941 644 941 q 1143 928 1063 941 m 1069 728 q 851 427 990 533 q 536 321 711 321 l 477 321 q 446 318 460 321 q 412 305 433 315 q 420 319 418 316 l 437 355 q 517 404 461 404 l 602 404 q 702 410 653 404 q 896 504 818 426 q 1031 737 975 581 q 911 752 966 752 q 666 683 765 752 q 536 491 568 614 q 520 543 520 515 q 634 711 520 644 q 919 779 748 779 q 1029 770 965 779 l 1043 768 l 1074 869 q 857 887 950 887 q 384 747 537 887 q 266 581 309 678 q 223 380 223 484 q 333 124 223 216 q 669 19 459 19 q 1054 158 899 19 q 1208 504 1208 298 q 1170 650 1208 589 q 1069 728 1132 712 m 863 1040 q 906 1131 884 1105 q 966 1156 928 1156 q 1040 1142 988 1156 q 1104 1131 1084 1131 q 1159 1173 1145 1131 l 1173 1171 q 1133 1084 1156 1109 q 1072 1059 1109 1059 q 1042 1063 1056 1059 l 996 1074 q 930 1085 951 1085 q 901 1077 910 1085 q 880 1045 891 1069 q 876 1037 879 1042 l 863 1040 z "},"Œ":{"ha":1706,"x_min":125,"x_max":1710,"o":"m 1538 926 l 1534 912 l 1512 839 q 1490 758 1497 787 l 1466 758 q 1478 823 1478 795 q 1466 851 1478 844 q 1417 859 1454 859 l 1363 858 l 1267 857 l 1224 858 l 1221 844 q 1129 584 1178 663 q 964 429 1081 506 q 662 321 800 321 l 589 324 q 572 323 582 324 q 509 302 538 320 q 541 359 522 321 q 579 397 556 391 q 689 404 602 404 q 875 425 807 404 q 996 497 943 445 q 1089 648 1045 546 q 1152 861 1133 750 q 1097 865 1130 862 l 1020 874 q 832 888 902 888 q 558 846 683 888 q 359 730 433 805 q 255 570 294 666 q 216 378 216 473 q 340 117 216 214 q 671 20 463 20 q 922 52 804 20 q 1116 142 1040 85 q 953 174 1036 174 q 871 164 923 174 q 924 239 902 197 q 971 242 942 242 q 1177 204 1099 242 q 1251 387 1251 290 q 1136 578 1251 524 l 1373 578 l 1352 504 l 1243 504 q 1299 359 1299 442 q 1221 180 1299 265 l 1232 174 q 1462 82 1391 82 q 1613 146 1550 82 q 1682 304 1676 210 l 1683 316 q 1710 258 1710 292 q 1541 60 1710 163 q 1431 1 1445 2 q 1331 34 1415 1 q 1210 91 1248 68 l 1164 118 l 1156 122 q 921 25 1069 62 q 610 -11 772 -11 q 400 21 502 -11 q 238 106 299 52 q 125 369 125 203 q 352 772 125 612 q 613 893 457 845 q 907 941 770 941 q 1118 931 979 941 q 1346 922 1248 922 l 1438 924 l 1516 926 l 1538 926 z "},"œ":{"ha":716,"x_min":3,"x_max":800,"o":"m 318 122 l 315 119 q 197 35 259 68 q 94 2 134 2 q 29 30 55 2 q 3 100 3 58 q 68 293 3 192 q 239 468 133 395 q 366 533 293 505 q 483 560 438 560 q 513 534 513 560 q 504 500 513 524 q 444 504 468 504 q 171 367 266 504 q 108 242 134 313 q 82 125 82 172 q 101 70 82 92 q 151 49 121 49 q 240 91 189 49 q 332 200 292 134 q 392 366 392 298 q 354 420 392 420 q 250 311 300 420 q 247 335 247 325 q 299 423 247 377 q 398 469 351 469 q 466 419 444 469 q 607 526 525 482 q 746 569 688 569 q 800 530 800 569 q 774 468 800 504 q 709 402 748 431 q 618 353 673 376 q 533 331 563 331 q 488 366 502 331 q 534 362 518 362 q 660 401 602 362 q 717 486 717 440 q 675 518 717 518 q 522 426 600 518 q 430 274 466 361 q 394 119 394 187 q 452 50 394 50 q 585 120 515 50 q 698 300 654 191 q 708 267 708 282 q 616 117 708 201 q 394 -9 481 -9 q 337 16 359 -9 q 315 81 315 41 q 317 118 315 96 l 318 122 z "},"–":{"ha":444,"x_min":45,"x_max":441,"o":"m 88 316 l 321 316 l 349 316 q 438 334 402 316 q 441 336 439 335 l 439 332 l 435 321 q 319 258 408 258 l 287 258 l 113 258 q 80 253 89 258 q 62 233 71 249 l 58 227 l 45 227 l 88 316 z "},"—":{"ha":567,"x_min":-1,"x_max":610,"o":"m 41 316 l 490 316 l 517 316 q 607 334 571 316 q 610 336 608 335 l 608 332 l 604 321 q 488 258 576 258 l 456 258 l 66 258 q 33 253 42 258 q 15 233 24 249 l 11 227 l -1 227 l 41 316 z "},"“":{"ha":363,"x_min":286,"x_max":553,"o":"m 417 665 q 416 686 416 680 q 453 818 416 748 q 553 941 491 888 l 545 924 q 492 755 492 810 l 417 665 m 288 665 q 286 686 286 680 q 324 818 286 748 q 423 941 361 888 l 416 924 q 363 755 363 810 l 288 665 z "},"”":{"ha":363,"x_min":274,"x_max":541,"o":"m 410 941 q 411 921 411 927 q 373 787 411 858 q 274 665 336 717 l 281 681 q 335 850 335 795 l 410 941 m 540 941 q 541 921 541 926 q 504 788 541 858 q 404 665 466 718 l 411 681 q 465 850 465 795 l 540 941 z "},"‘":{"ha":233,"x_min":286,"x_max":423,"o":"m 288 665 q 286 686 286 680 q 324 818 286 748 q 423 941 361 888 l 416 924 q 363 755 363 810 l 288 665 z "},"’":{"ha":233,"x_min":274,"x_max":411,"o":"m 410 941 q 411 921 411 927 q 373 787 411 858 q 274 665 336 717 l 281 681 q 335 850 335 795 l 410 941 z "},"÷":{"ha":593,"x_min":119,"x_max":599,"o":"m 599 417 l 583 379 l 119 379 l 135 417 l 599 417 m 437 614 q 469 583 469 614 q 455 551 469 566 q 423 537 441 537 q 391 568 391 537 q 405 601 391 587 q 437 614 419 614 m 308 262 q 339 231 339 262 q 325 199 339 214 q 294 185 311 185 q 262 216 262 185 q 276 249 262 235 q 308 262 290 262 z "},"◊":{"ha":926,"x_min":102,"x_max":824,"o":"m 463 962 l 824 463 l 463 -36 l 102 463 l 463 962 m 463 839 l 189 463 l 463 87 l 736 463 l 463 839 z "},"ÿ":{"ha":530,"x_min":-146,"x_max":585,"o":"m 226 549 q 237 481 237 522 q 197 243 237 397 q 397 464 304 385 q 545 544 490 544 q 585 478 585 544 q 389 103 585 311 q 222 -37 300 8 q 43 -97 144 -81 q -83 -138 -45 -111 q -122 -213 -122 -165 q -85 -272 -122 -250 q 11 -295 -48 -295 q 144 -259 83 -295 q 12 -344 128 -344 q -102 -311 -58 -344 q -146 -224 -146 -277 q -81 -85 -146 -158 q -13 -37 -49 -50 q 123 -14 24 -24 q 268 30 214 -5 q 417 176 355 85 q 477 293 453 228 q 502 401 502 357 q 465 457 502 457 q 290 322 401 457 q 97 13 178 187 l 91 0 l 67 0 l 74 26 q 151 418 151 298 q 123 461 151 461 q 92 454 112 461 q 83 450 89 452 l 77 471 q 87 476 85 475 l 151 507 l 216 543 q 226 549 218 545 m 486 734 q 517 703 517 734 q 503 671 517 686 q 471 657 489 657 q 439 688 439 657 q 453 721 439 707 q 486 734 467 734 m 345 734 q 376 703 376 734 q 362 671 376 686 q 330 657 348 657 q 298 688 298 657 q 312 721 298 707 q 345 734 326 734 z "},"Ÿ":{"ha":1805,"x_min":173,"x_max":2002,"o":"m 1169 401 q 1013 138 1076 258 q 1012 128 1012 130 l 1008 88 l 1005 53 q 1004 37 1004 50 l 992 33 q 937 1 954 18 q 902 -57 919 -17 q 871 -199 871 -130 q 887 -266 871 -243 q 943 -302 903 -288 l 909 -397 q 822 -252 822 -366 q 898 -6 822 -159 q 927 90 919 37 q 936 233 936 143 l 935 385 l 935 399 q 768 303 829 376 q 706 132 706 231 q 785 -48 706 28 q 764 -51 770 -51 q 692 -11 720 -51 q 664 92 664 30 q 734 302 664 208 q 931 452 804 397 q 880 676 917 595 q 748 833 834 775 q 562 891 663 891 q 318 795 414 891 q 223 550 223 699 q 313 285 223 406 q 534 133 402 165 l 534 120 q 275 227 376 120 q 173 501 173 334 q 296 811 173 687 q 602 936 418 936 q 891 818 785 936 q 1017 473 997 699 q 1085 476 1055 476 q 1182 469 1122 476 l 1195 488 q 1509 851 1365 742 q 1818 960 1653 960 q 1952 919 1903 960 q 2002 807 2002 878 q 1956 662 2002 736 q 1830 527 1910 587 q 1375 386 1643 386 q 1265 391 1308 386 l 1187 399 q 1169 401 1184 399 m 1211 467 l 1230 465 q 1442 452 1347 452 q 1883 608 1746 452 q 1945 757 1945 679 q 1896 862 1945 821 q 1770 903 1847 903 q 1211 467 1491 903 m 1139 404 l 1128 405 q 1051 411 1072 411 q 1021 409 1042 411 l 1021 373 q 1015 196 1021 283 q 1025 212 1023 210 l 1078 300 l 1131 390 q 1139 404 1133 391 m 1334 1142 q 1365 1111 1365 1142 q 1351 1079 1365 1093 q 1320 1065 1337 1065 q 1288 1096 1288 1065 q 1302 1128 1288 1114 q 1334 1142 1316 1142 m 1193 1142 q 1224 1111 1224 1142 q 1210 1079 1224 1093 q 1179 1065 1196 1065 q 1147 1096 1147 1065 q 1161 1128 1147 1114 q 1193 1142 1175 1142 z "},"∕":{"ha":203,"x_min":-102,"x_max":494,"o":"m 494 909 l -73 0 l -102 14 l 467 922 l 494 909 z "},"€":{"ha":593,"x_min":95,"x_max":689,"o":"m 689 909 l 593 731 l 570 731 l 575 743 q 599 814 599 793 q 547 838 599 838 q 322 660 422 838 q 276 564 294 610 l 551 564 l 535 526 l 262 526 q 227 378 237 454 l 486 378 l 471 340 l 222 340 q 218 257 218 298 q 345 76 218 76 q 581 287 486 76 q 593 258 587 277 q 568 190 595 232 q 306 -7 441 -7 q 184 62 224 -7 q 152 207 152 119 q 163 340 152 275 l 95 340 l 111 378 l 172 378 q 218 526 189 454 l 136 526 l 151 564 l 235 564 q 284 659 255 609 q 661 911 429 911 q 689 909 669 911 z "},"‹":{"ha":395,"x_min":61,"x_max":457,"o":"m 457 576 q 229 395 412 514 q 164 350 174 359 q 155 321 155 340 q 182 253 155 299 q 290 39 262 121 l 282 34 l 254 19 q 217 -3 233 7 l 214 6 l 193 57 q 61 312 143 187 q 101 338 68 317 q 309 503 207 404 l 359 551 l 365 556 q 410 566 372 558 l 446 574 l 457 576 z "},"›":{"ha":395,"x_min":-16,"x_max":380,"o":"m -16 -3 q 213 178 27 58 q 278 224 269 214 q 287 253 287 233 q 259 321 287 275 q 151 535 179 451 l 159 539 l 187 554 q 224 576 210 566 l 228 568 l 248 516 q 380 262 296 393 q 340 236 372 256 q 132 71 236 171 l 83 23 l 77 17 q 32 8 68 15 l -5 0 l -16 -3 z "},"":{"ha":566,"x_min":-345,"x_max":673,"o":"m 440 89 l 448 68 q 279 -3 342 18 q 300 116 281 60 q 374 294 318 172 q 458 508 457 473 q 452 524 459 521 q 418 528 445 528 l 266 528 l 81 7 q 46 1 55 7 q 26 -32 37 -5 q -68 -223 -30 -164 q -171 -336 -113 -294 q -280 -378 -229 -378 q -327 -363 -308 -378 q -345 -328 -345 -349 q -342 -308 -345 -321 q -271 -317 -305 -317 q -83 -205 -153 -317 q 122 315 -14 -94 l 185 505 l 193 528 l 117 528 l 125 547 q 133 547 132 547 l 152 548 q 231 617 200 548 q 321 764 271 709 q 463 871 372 819 q 627 927 562 927 q 672 907 673 927 q 659 863 671 899 l 627 768 l 606 768 q 618 831 618 810 q 555 866 618 866 q 401 799 463 866 q 279 566 339 731 l 273 549 l 429 549 q 527 570 479 549 l 547 579 q 464 320 547 509 l 413 206 q 372 94 373 115 q 395 75 371 75 q 440 89 407 75 z "},"":{"ha":492,"x_min":-345,"x_max":673,"o":"m 273 549 l 382 549 l 376 528 l 266 528 l 81 7 q 46 1 55 7 q 26 -31 37 -5 q -68 -223 -30 -164 q -171 -336 -113 -294 q -280 -378 -229 -378 q -327 -363 -308 -378 q -345 -328 -345 -349 q -342 -308 -345 -321 q -271 -317 -305 -317 q -83 -205 -153 -317 q 122 315 -14 -93 l 185 505 l 193 528 l 117 528 l 125 547 q 133 547 132 547 l 152 548 q 231 617 200 548 q 321 763 271 709 q 463 871 372 818 q 625 927 562 927 q 663 922 652 927 q 673 902 673 916 q 560 601 673 857 q 366 98 369 165 q 391 68 365 67 q 461 109 410 69 l 469 115 l 481 97 q 321 1 372 1 q 281 58 281 1 q 310 183 281 102 q 444 517 338 264 l 509 671 q 572 850 572 822 q 547 867 572 867 q 474 848 515 867 q 404 802 432 829 q 279 566 344 744 l 273 549 z "},"‡":{"ha":555,"x_min":16,"x_max":732,"o":"m 603 1019 q 537 843 586 978 q 514 781 531 828 l 490 719 l 612 719 l 640 719 q 730 737 694 719 l 732 739 l 730 734 l 726 724 q 610 661 698 661 l 578 661 l 469 661 q 348 338 385 429 l 342 326 l 471 326 l 498 326 q 579 340 551 326 l 588 344 l 591 345 l 589 341 l 584 330 q 468 267 557 267 l 436 267 l 319 267 q 184 -33 233 63 l 176 -50 l 166 -55 q 60 -92 102 -87 q 235 267 133 20 l 83 267 q 49 262 58 267 q 28 236 41 258 l 16 236 l 59 326 l 260 326 l 266 338 q 329 504 296 408 l 335 519 q 386 661 351 566 l 225 661 q 193 656 201 661 q 174 636 184 652 q 170 629 173 633 l 158 629 l 201 719 l 407 719 l 426 772 l 446 826 l 467 888 q 498 981 490 952 q 603 1019 563 997 z "},"∙":{"ha":231,"x_min":102,"x_max":180,"o":"m 149 330 q 180 299 180 330 q 166 267 180 281 q 134 253 152 253 q 102 284 102 253 q 116 316 102 302 q 149 330 130 330 z "},"‚":{"ha":234,"x_min":-65,"x_max":72,"o":"m 71 102 q 72 82 72 88 q 34 -51 72 19 q -65 -174 -3 -121 l -58 -157 q -4 12 -4 -43 l 71 102 z "},"„":{"ha":363,"x_min":-65,"x_max":202,"o":"m 71 102 q 72 82 72 88 q 34 -51 72 19 q -65 -174 -3 -121 l -58 -157 q -4 12 -4 -43 l 71 102 m 201 102 q 202 82 202 87 q 164 -51 202 19 q 64 -174 127 -121 l 72 -157 q 125 12 125 -43 l 201 102 z "},"‰":{"ha":1426,"x_min":245,"x_max":1373,"o":"m 887 909 l 319 0 l 290 14 l 859 922 l 887 909 m 800 357 q 891 318 854 357 q 929 224 929 279 q 851 63 929 144 q 698 -18 774 -18 q 593 22 636 -18 q 550 123 550 63 q 629 282 550 208 q 800 357 709 357 m 767 312 q 648 266 699 312 q 596 160 596 220 q 630 68 596 102 q 722 34 665 34 q 832 79 787 34 q 878 189 878 125 q 847 277 878 243 q 767 312 816 312 m 494 944 q 586 905 549 944 q 624 810 624 867 q 546 650 624 732 q 393 569 469 569 q 288 610 331 569 q 245 709 245 650 q 324 869 245 795 q 494 944 404 944 m 462 899 q 342 853 394 899 q 291 747 291 808 q 325 656 291 690 q 416 621 359 621 q 527 667 481 621 q 572 777 572 712 q 542 865 572 830 q 462 899 511 899 m 1244 357 q 1336 318 1298 357 q 1373 224 1373 279 q 1296 63 1373 144 q 1142 -18 1218 -18 q 1037 22 1080 -18 q 994 123 994 63 q 1074 282 994 208 q 1244 357 1153 357 m 1211 312 q 1092 266 1143 312 q 1040 160 1040 220 q 1075 68 1040 102 q 1166 34 1109 34 q 1276 79 1231 34 q 1322 189 1322 125 q 1291 277 1322 243 q 1211 312 1260 312 z "},"Â":{"ha":1141,"x_min":-102,"x_max":1133,"o":"m 899 1007 l 918 989 q 881 930 890 958 q 872 847 872 903 q 975 294 872 616 q 1065 115 1033 115 q 1116 151 1081 115 l 1133 134 l 1124 125 q 1018 5 1066 63 l 1004 -12 q 860 376 918 166 q 802 719 802 587 q 810 846 802 774 l 812 865 q 646 668 758 808 q 520 517 576 581 l 505 499 q 588 502 542 502 l 785 498 l 813 497 q 766 329 789 429 l 740 329 q 749 386 749 366 q 732 420 749 412 q 659 428 714 428 l 561 428 l 450 426 l 437 425 l 419 408 q 222 222 273 265 q 71 113 171 178 l 52 100 q 156 104 100 104 q 352 96 284 104 l 479 81 q 571 75 530 75 q 739 130 676 75 q 817 288 802 184 q 842 250 842 273 q 764 116 842 191 q 500 -1 642 -1 q 370 8 452 -1 q 54 29 168 29 l -89 26 l -102 26 l -59 94 q 273 297 120 159 q 703 781 425 435 q 899 1007 837 947 m 1012 1255 l 1012 1240 l 1013 1156 q 1018 1053 1013 1109 q 1008 1046 1010 1047 l 978 1025 q 949 1000 962 1014 q 951 1038 951 1019 q 935 1124 951 1124 q 903 1104 923 1124 l 877 1077 q 798 1023 825 1023 q 780 1027 789 1023 l 787 1033 l 836 1072 q 1003 1244 911 1133 l 1012 1255 z "},"Ê":{"ha":1601,"x_min":125,"x_max":1605,"o":"m 1436 926 l 1432 915 q 1409 840 1417 867 l 1390 768 q 1387 755 1390 767 l 1361 755 l 1364 765 q 1373 820 1373 802 q 1359 850 1373 844 q 1294 857 1344 857 l 1272 857 l 1120 857 l 1117 846 q 1044 614 1072 670 q 893 454 991 509 q 741 387 817 411 q 958 275 828 357 q 1074 203 1048 218 q 1145 385 1145 292 q 1027 578 1145 527 l 1267 578 l 1248 505 l 1135 505 q 1196 360 1196 446 q 1118 177 1196 275 l 1131 170 q 1267 100 1221 117 q 1358 82 1314 82 q 1510 145 1449 82 q 1579 311 1571 208 q 1605 254 1605 292 q 1565 166 1605 216 q 1466 79 1525 117 l 1386 31 q 1328 2 1341 2 q 1208 39 1295 2 q 1050 119 1121 75 q 860 35 978 67 q 621 3 743 3 q 258 100 390 3 q 125 366 125 197 q 343 740 125 576 q 602 878 470 836 q 899 921 733 921 l 1023 920 l 1132 921 l 1278 922 l 1423 926 l 1436 926 m 1048 857 l 902 857 q 628 840 720 857 q 444 776 536 824 q 267 614 331 718 q 202 390 202 511 q 320 129 202 231 q 642 31 432 31 q 1013 143 854 31 q 996 153 998 151 l 848 245 q 674 325 772 294 q 505 357 577 357 q 420 347 465 357 q 473 422 453 382 q 519 427 490 427 q 570 424 545 427 l 629 416 q 683 412 657 412 q 901 509 810 412 q 1048 857 989 604 m 1352 1255 l 1352 1240 l 1353 1156 q 1358 1053 1353 1109 q 1348 1046 1350 1047 l 1318 1025 q 1290 1000 1303 1014 q 1291 1038 1291 1017 q 1275 1124 1291 1124 q 1244 1104 1263 1124 l 1217 1077 q 1138 1023 1165 1023 q 1120 1027 1129 1023 l 1127 1033 l 1176 1072 q 1343 1244 1252 1133 l 1352 1255 z "},"Á":{"ha":1141,"x_min":-102,"x_max":1133,"o":"m 899 1007 l 918 989 q 881 930 890 958 q 872 847 872 903 q 975 294 872 616 q 1065 115 1033 115 q 1116 151 1081 115 l 1133 134 l 1124 125 q 1018 5 1066 63 l 1004 -12 q 860 376 918 166 q 802 719 802 587 q 810 846 802 774 l 812 865 q 646 668 758 808 q 520 517 576 581 l 505 499 q 588 502 542 502 l 785 498 l 813 497 q 766 329 789 429 l 740 329 q 749 386 749 366 q 732 420 749 412 q 659 428 714 428 l 561 428 l 450 426 l 437 425 l 419 408 q 222 222 273 265 q 71 113 171 178 l 52 100 q 156 104 100 104 q 352 96 284 104 l 479 81 q 571 75 530 75 q 739 130 676 75 q 817 288 802 184 q 842 250 842 273 q 764 116 842 191 q 500 -1 642 -1 q 370 8 452 -1 q 54 29 168 29 l -89 26 l -102 26 l -59 94 q 273 297 120 159 q 703 781 425 435 q 899 1007 837 947 m 993 1233 l 1028 1174 q 822 1000 900 1131 q 993 1233 840 1191 z "},"Ë":{"ha":1601,"x_min":125,"x_max":1605,"o":"m 1436 926 l 1432 915 q 1409 840 1417 867 l 1390 768 q 1387 755 1390 767 l 1361 755 l 1364 765 q 1373 820 1373 802 q 1359 850 1373 844 q 1294 857 1344 857 l 1272 857 l 1120 857 l 1117 846 q 1044 614 1072 670 q 893 454 991 509 q 741 387 817 411 q 958 275 828 357 q 1074 203 1048 218 q 1145 385 1145 292 q 1027 578 1145 527 l 1267 578 l 1248 505 l 1135 505 q 1196 360 1196 446 q 1118 177 1196 275 l 1131 170 q 1267 100 1221 117 q 1358 82 1314 82 q 1510 145 1449 82 q 1579 311 1571 208 q 1605 254 1605 292 q 1565 166 1605 216 q 1466 79 1525 117 l 1386 31 q 1328 2 1341 2 q 1208 39 1295 2 q 1050 119 1121 75 q 860 35 978 67 q 621 3 743 3 q 258 100 390 3 q 125 366 125 197 q 343 740 125 576 q 602 878 470 836 q 899 921 733 921 l 1023 920 l 1132 921 l 1278 922 l 1423 926 l 1436 926 m 1048 857 l 902 857 q 628 840 720 857 q 444 776 536 824 q 267 614 331 718 q 202 390 202 511 q 320 129 202 231 q 642 31 432 31 q 1013 143 854 31 q 996 153 998 151 l 848 245 q 674 325 772 294 q 505 357 577 357 q 420 347 465 357 q 473 422 453 382 q 519 427 490 427 q 570 424 545 427 l 629 416 q 683 412 657 412 q 901 509 810 412 q 1048 857 989 604 m 1324 1142 q 1356 1111 1356 1142 q 1342 1079 1356 1093 q 1310 1065 1328 1065 q 1278 1096 1278 1065 q 1292 1128 1278 1114 q 1324 1142 1306 1142 m 1183 1142 q 1215 1111 1215 1142 q 1201 1079 1215 1093 q 1169 1065 1187 1065 q 1137 1096 1137 1065 q 1151 1128 1137 1114 q 1183 1142 1165 1142 z "},"È":{"ha":1601,"x_min":125,"x_max":1605,"o":"m 1436 926 l 1432 915 q 1409 840 1417 867 l 1390 768 q 1387 755 1390 767 l 1361 755 l 1364 765 q 1373 820 1373 802 q 1359 850 1373 844 q 1294 857 1344 857 l 1272 857 l 1120 857 l 1117 846 q 1044 614 1072 670 q 893 454 991 509 q 741 387 817 411 q 958 275 828 357 q 1074 203 1048 218 q 1145 385 1145 292 q 1027 578 1145 527 l 1267 578 l 1248 505 l 1135 505 q 1196 360 1196 446 q 1118 177 1196 275 l 1131 170 q 1267 100 1221 117 q 1358 82 1314 82 q 1510 145 1449 82 q 1579 311 1571 208 q 1605 254 1605 292 q 1565 166 1605 216 q 1466 79 1525 117 l 1386 31 q 1328 2 1341 2 q 1208 39 1295 2 q 1050 119 1121 75 q 860 35 978 67 q 621 3 743 3 q 258 100 390 3 q 125 366 125 197 q 343 740 125 576 q 602 878 470 836 q 899 921 733 921 l 1023 920 l 1132 921 l 1278 922 l 1423 926 l 1436 926 m 1048 857 l 902 857 q 628 840 720 857 q 444 776 536 824 q 267 614 331 718 q 202 390 202 511 q 320 129 202 231 q 642 31 432 31 q 1013 143 854 31 q 996 153 998 151 l 848 245 q 674 325 772 294 q 505 357 577 357 q 420 347 465 357 q 473 422 453 382 q 519 427 490 427 q 570 424 545 427 l 629 416 q 683 412 657 412 q 901 509 810 412 q 1048 857 989 604 m 1200 1233 q 1371 1000 1352 1191 q 1164 1174 1292 1131 l 1200 1233 z "},"Í":{"ha":1287,"x_min":122,"x_max":1482,"o":"m 779 926 l 1482 926 l 1478 909 q 1149 266 1339 478 q 890 72 1038 142 q 591 1 741 1 q 250 117 376 1 q 122 407 122 236 q 213 632 122 545 q 448 720 304 720 q 709 634 583 720 q 850 669 774 669 q 999 605 941 669 q 1056 436 1056 540 q 989 227 1056 348 q 657 571 842 431 q 564 345 564 484 q 581 220 564 286 q 519 346 519 265 q 636 586 519 473 q 399 680 511 680 q 227 610 295 680 q 158 435 158 541 q 268 194 158 294 q 435 101 332 134 q 654 67 538 67 q 1181 344 975 67 q 1407 842 1310 516 l 930 842 l 882 842 l 827 840 q 778 824 795 837 q 748 779 762 812 l 745 771 l 720 777 l 726 791 q 751 854 740 826 l 773 913 q 779 926 774 914 m 1010 332 q 1027 426 1027 383 q 969 576 1027 513 q 828 640 910 640 q 734 618 783 640 q 1010 332 872 518 m 1251 1233 l 1286 1174 q 1080 1000 1158 1131 q 1251 1233 1099 1191 z "},"Î":{"ha":1287,"x_min":122,"x_max":1482,"o":"m 779 926 l 1482 926 l 1478 909 q 1149 266 1339 478 q 890 72 1038 142 q 591 1 741 1 q 250 117 376 1 q 122 407 122 236 q 213 632 122 545 q 448 720 304 720 q 709 634 583 720 q 850 669 774 669 q 999 605 941 669 q 1056 436 1056 540 q 989 227 1056 348 q 657 571 842 431 q 564 345 564 484 q 581 220 564 286 q 519 346 519 265 q 636 586 519 473 q 399 680 511 680 q 227 610 295 680 q 158 435 158 541 q 268 194 158 294 q 435 101 332 134 q 654 67 538 67 q 1181 344 975 67 q 1407 842 1310 516 l 930 842 l 882 842 l 827 840 q 778 824 795 837 q 748 779 762 812 l 745 771 l 720 777 l 726 791 q 751 854 740 826 l 773 913 q 779 926 774 914 m 1010 332 q 1027 426 1027 383 q 969 576 1027 513 q 828 640 910 640 q 734 618 783 640 q 1010 332 872 518 m 1242 1255 l 1242 1240 l 1242 1156 q 1248 1053 1242 1109 q 1237 1046 1240 1047 l 1208 1025 q 1179 1000 1192 1014 q 1181 1038 1181 1016 q 1164 1124 1181 1124 q 1133 1104 1153 1124 l 1107 1077 q 1027 1023 1055 1023 q 1010 1027 1019 1023 l 1017 1033 l 1065 1072 q 1233 1244 1141 1133 l 1242 1255 z "},"Ï":{"ha":1287,"x_min":122,"x_max":1482,"o":"m 779 926 l 1482 926 l 1478 909 q 1149 266 1339 478 q 890 72 1038 142 q 591 1 741 1 q 250 117 376 1 q 122 407 122 236 q 213 632 122 545 q 448 720 304 720 q 709 634 583 720 q 850 669 774 669 q 999 605 941 669 q 1056 436 1056 540 q 989 227 1056 348 q 657 571 842 431 q 564 345 564 484 q 581 220 564 286 q 519 346 519 265 q 636 586 519 473 q 399 680 511 680 q 227 610 295 680 q 158 435 158 541 q 268 194 158 294 q 435 101 332 134 q 654 67 538 67 q 1181 344 975 67 q 1407 842 1310 516 l 930 842 l 882 842 l 827 840 q 778 824 795 837 q 748 779 762 812 l 745 771 l 720 777 l 726 791 q 751 854 740 826 l 773 913 q 779 926 774 914 m 1010 332 q 1027 426 1027 383 q 969 576 1027 513 q 828 640 910 640 q 734 618 783 640 q 1010 332 872 518 m 1223 1142 q 1255 1111 1255 1142 q 1241 1079 1255 1093 q 1209 1065 1227 1065 q 1177 1096 1177 1065 q 1191 1128 1177 1114 q 1223 1142 1205 1142 m 1101 1142 q 1132 1111 1132 1142 q 1118 1079 1132 1093 q 1086 1065 1104 1065 q 1055 1096 1055 1065 q 1068 1128 1055 1114 q 1101 1142 1082 1142 z "},"Ì":{"ha":1287,"x_min":122,"x_max":1482,"o":"m 779 926 l 1482 926 l 1478 909 q 1149 266 1339 478 q 890 72 1038 142 q 591 1 741 1 q 250 117 376 1 q 122 407 122 236 q 213 632 122 545 q 448 720 304 720 q 709 634 583 720 q 850 669 774 669 q 999 605 941 669 q 1056 436 1056 540 q 989 227 1056 348 q 657 571 842 431 q 564 345 564 484 q 581 220 564 286 q 519 346 519 265 q 636 586 519 473 q 399 680 511 680 q 227 610 295 680 q 158 435 158 541 q 268 194 158 294 q 435 101 332 134 q 654 67 538 67 q 1181 344 975 67 q 1407 842 1310 516 l 930 842 l 882 842 l 827 840 q 778 824 795 837 q 748 779 762 812 l 745 771 l 720 777 l 726 791 q 751 854 740 826 l 773 913 q 779 926 774 914 m 1010 332 q 1027 426 1027 383 q 969 576 1027 513 q 828 640 910 640 q 734 618 783 640 q 1010 332 872 518 m 1070 1233 q 1242 1000 1223 1191 q 1035 1174 1163 1131 l 1070 1233 z "},"Ó":{"ha":1253,"x_min":130,"x_max":1299,"o":"m 1143 928 l 1082 758 q 1247 667 1196 726 q 1299 515 1299 609 q 1143 184 1299 334 q 909 39 1046 91 q 623 -12 772 -12 q 263 91 396 -12 q 130 368 130 193 q 200 611 130 500 q 405 801 271 723 q 961 941 644 941 q 1143 928 1063 941 m 1069 728 q 851 427 990 533 q 536 321 711 321 l 477 321 q 446 318 460 321 q 412 305 433 315 q 420 319 418 316 l 437 355 q 517 404 461 404 l 602 404 q 702 410 653 404 q 896 504 818 426 q 1031 737 975 581 q 911 752 966 752 q 666 683 765 752 q 536 491 568 614 q 520 543 520 515 q 634 711 520 644 q 919 779 748 779 q 1029 770 965 779 l 1043 768 l 1074 869 q 857 887 950 887 q 384 747 537 887 q 266 581 309 678 q 223 380 223 484 q 333 124 223 216 q 669 19 459 19 q 1054 158 899 19 q 1208 504 1208 298 q 1170 650 1208 589 q 1069 728 1132 712 m 1048 1233 l 1084 1174 q 878 1000 956 1131 q 1048 1233 897 1191 z "},"Ô":{"ha":1253,"x_min":130,"x_max":1299,"o":"m 1143 928 l 1082 758 q 1247 667 1196 726 q 1299 515 1299 609 q 1143 184 1299 334 q 909 39 1046 91 q 623 -12 772 -12 q 263 91 396 -12 q 130 368 130 193 q 200 611 130 500 q 405 801 271 723 q 961 941 644 941 q 1143 928 1063 941 m 1069 728 q 851 427 990 533 q 536 321 711 321 l 477 321 q 446 318 460 321 q 412 305 433 315 q 420 319 418 316 l 437 355 q 517 404 461 404 l 602 404 q 702 410 653 404 q 896 504 818 426 q 1031 737 975 581 q 911 752 966 752 q 666 683 765 752 q 536 491 568 614 q 520 543 520 515 q 634 711 520 644 q 919 779 748 779 q 1029 770 965 779 l 1043 768 l 1074 869 q 857 887 950 887 q 384 747 537 887 q 266 581 309 678 q 223 380 223 484 q 333 124 223 216 q 669 19 459 19 q 1054 158 899 19 q 1208 504 1208 298 q 1170 650 1208 589 q 1069 728 1132 712 m 1085 1255 l 1086 1240 l 1086 1156 q 1091 1053 1086 1109 q 1081 1046 1083 1047 l 1051 1025 q 1023 1000 1036 1014 q 1025 1038 1025 1017 q 1008 1124 1025 1124 q 977 1104 997 1124 l 951 1077 q 871 1023 899 1023 q 854 1027 863 1023 l 861 1033 l 909 1072 q 1076 1244 985 1133 l 1085 1255 z "},"Ò":{"ha":1253,"x_min":130,"x_max":1299,"o":"m 1143 928 l 1082 758 q 1247 667 1196 726 q 1299 515 1299 609 q 1143 184 1299 334 q 909 39 1046 91 q 623 -12 772 -12 q 263 91 396 -12 q 130 368 130 193 q 200 611 130 500 q 405 801 271 723 q 961 941 644 941 q 1143 928 1063 941 m 1069 728 q 851 427 990 533 q 536 321 711 321 l 477 321 q 446 318 460 321 q 412 305 433 315 q 420 319 418 316 l 437 355 q 517 404 461 404 l 602 404 q 702 410 653 404 q 896 504 818 426 q 1031 737 975 581 q 911 752 966 752 q 666 683 765 752 q 536 491 568 614 q 520 543 520 515 q 634 711 520 644 q 919 779 748 779 q 1029 770 965 779 l 1043 768 l 1074 869 q 857 887 950 887 q 384 747 537 887 q 266 581 309 678 q 223 380 223 484 q 333 124 223 216 q 669 19 459 19 q 1054 158 899 19 q 1208 504 1208 298 q 1170 650 1208 589 q 1069 728 1132 712 m 868 1233 q 1039 1000 1020 1191 q 833 1174 960 1131 l 868 1233 z "},"Ú":{"ha":1715,"x_min":134,"x_max":1711,"o":"m 1297 294 q 1207 90 1261 188 q 1230 91 1224 91 q 1349 87 1275 91 q 1440 83 1421 83 q 1612 160 1543 83 q 1681 355 1681 238 q 1678 399 1681 369 q 1710 325 1710 373 q 1619 131 1710 229 q 1375 15 1510 15 q 1288 21 1340 15 q 1128 35 1168 35 q 1192 212 1172 141 q 1175 200 1179 203 l 1116 159 q 920 50 1028 96 q 754 3 811 3 q 676 27 706 3 q 647 92 647 52 q 694 266 647 145 l 766 448 q 888 825 888 758 q 760 888 888 888 q 481 832 610 888 q 279 679 353 776 q 188 399 188 558 q 203 273 188 352 q 134 450 134 332 q 201 655 134 560 q 391 819 267 751 q 609 901 498 877 q 880 926 721 926 q 1015 920 956 926 q 844 418 979 749 q 753 187 770 235 q 736 113 736 140 q 806 45 736 45 q 1017 131 874 45 q 1208 257 1145 207 q 1268 463 1233 331 q 1353 709 1310 621 q 1464 864 1396 798 q 1642 957 1560 957 q 1711 871 1711 957 q 1315 311 1711 652 l 1297 294 m 1313 344 q 1549 602 1453 455 q 1645 851 1645 749 q 1601 917 1645 917 q 1485 811 1550 917 q 1413 663 1443 745 q 1326 389 1382 581 l 1313 344 m 1326 1233 l 1361 1174 q 1155 1000 1234 1131 q 1326 1233 1174 1191 z "},"Û":{"ha":1715,"x_min":134,"x_max":1711,"o":"m 1297 294 q 1207 90 1261 188 q 1230 91 1224 91 q 1349 87 1275 91 q 1440 83 1421 83 q 1612 160 1543 83 q 1681 355 1681 238 q 1678 399 1681 369 q 1710 325 1710 373 q 1619 131 1710 229 q 1375 15 1510 15 q 1288 21 1340 15 q 1128 35 1168 35 q 1192 212 1172 141 q 1175 200 1179 203 l 1116 159 q 920 50 1028 96 q 754 3 811 3 q 676 27 706 3 q 647 92 647 52 q 694 266 647 145 l 766 448 q 888 825 888 758 q 760 888 888 888 q 481 832 610 888 q 279 679 353 776 q 188 399 188 558 q 203 273 188 352 q 134 450 134 332 q 201 655 134 560 q 391 819 267 751 q 609 901 498 877 q 880 926 721 926 q 1015 920 956 926 q 844 418 979 749 q 753 187 770 235 q 736 113 736 140 q 806 45 736 45 q 1017 131 874 45 q 1208 257 1145 207 q 1268 463 1233 331 q 1353 709 1310 621 q 1464 864 1396 798 q 1642 957 1560 957 q 1711 871 1711 957 q 1315 311 1711 652 l 1297 294 m 1313 344 q 1549 602 1453 455 q 1645 851 1645 749 q 1601 917 1645 917 q 1485 811 1550 917 q 1413 663 1443 745 q 1326 389 1382 581 l 1313 344 m 1363 1255 l 1363 1240 l 1364 1156 q 1369 1053 1364 1109 q 1358 1046 1360 1047 l 1329 1025 q 1301 1000 1313 1014 q 1302 1038 1302 1017 q 1286 1124 1302 1124 q 1255 1104 1274 1124 l 1228 1077 q 1149 1023 1176 1023 q 1131 1027 1140 1023 l 1138 1033 l 1187 1072 q 1354 1244 1262 1133 l 1363 1255 z "},"Ù":{"ha":1715,"x_min":134,"x_max":1711,"o":"m 1297 294 q 1207 90 1261 188 q 1230 91 1224 91 q 1349 87 1275 91 q 1440 83 1421 83 q 1612 160 1543 83 q 1681 355 1681 238 q 1678 399 1681 369 q 1710 325 1710 373 q 1619 131 1710 229 q 1375 15 1510 15 q 1288 21 1340 15 q 1128 35 1168 35 q 1192 212 1172 141 q 1175 200 1179 203 l 1116 159 q 920 50 1028 96 q 754 3 811 3 q 676 27 706 3 q 647 92 647 52 q 694 266 647 145 l 766 448 q 888 825 888 758 q 760 888 888 888 q 481 832 610 888 q 279 679 353 776 q 188 399 188 558 q 203 273 188 352 q 134 450 134 332 q 201 655 134 560 q 391 819 267 751 q 609 901 498 877 q 880 926 721 926 q 1015 920 956 926 q 844 418 979 749 q 753 187 770 235 q 736 113 736 140 q 806 45 736 45 q 1017 131 874 45 q 1208 257 1145 207 q 1268 463 1233 331 q 1353 709 1310 621 q 1464 864 1396 798 q 1642 957 1560 957 q 1711 871 1711 957 q 1315 311 1711 652 l 1297 294 m 1313 344 q 1549 602 1453 455 q 1645 851 1645 749 q 1601 917 1645 917 q 1485 811 1550 917 q 1413 663 1443 745 q 1326 389 1382 581 l 1313 344 m 1192 1233 q 1363 1000 1344 1191 q 1156 1174 1284 1131 l 1192 1233 z "},"ı":{"ha":248,"x_min":14,"x_max":283,"o":"m 283 580 l 283 572 q 199 320 283 509 l 149 206 q 108 94 109 115 q 131 75 107 73 q 176 89 144 75 l 184 69 q 14 -3 78 18 q 35 114 18 60 q 110 293 52 168 q 184 480 183 453 q 167 501 186 501 q 144 496 158 501 l 115 486 q 102 481 113 486 l 96 503 l 110 508 q 263 570 185 536 l 283 580 z "},"ˆ":{"ha":694,"x_min":416,"x_max":642,"o":"m 636 848 l 636 833 l 637 748 q 642 646 637 702 q 632 638 634 640 l 604 617 q 576 593 589 606 q 578 630 578 611 q 562 717 578 717 q 533 696 551 717 l 508 669 q 433 615 458 615 q 416 620 425 615 l 422 626 l 469 665 q 627 837 541 726 l 636 848 z "},"˜":{"ha":694,"x_min":397,"x_max":675,"o":"m 397 632 q 436 715 417 694 q 488 736 454 736 q 555 724 509 736 q 612 715 595 715 q 662 749 646 715 l 675 747 q 638 668 658 690 q 584 647 618 647 q 557 650 570 647 l 517 660 q 457 669 476 669 q 412 636 428 669 q 409 629 412 634 l 397 632 z "},"ˉ":{"ha":694,"x_min":382,"x_max":686,"o":"m 416 721 l 566 721 l 593 721 q 625 722 621 721 l 651 727 q 670 733 667 730 l 679 744 q 686 747 680 745 q 564 664 668 664 l 531 664 l 431 664 q 395 644 408 664 q 393 640 395 642 l 382 640 l 416 721 z "},"˘":{"ha":694,"x_min":449,"x_max":716,"o":"m 716 734 q 584 644 653 644 q 449 731 496 644 l 483 779 q 595 699 519 699 q 661 715 626 699 q 707 749 696 730 l 716 734 z "},"˙":{"ha":694,"x_min":507,"x_max":584,"o":"m 553 734 q 584 703 584 734 q 570 671 584 686 q 538 657 556 657 q 507 688 507 657 q 520 721 507 707 q 553 734 534 734 z "},"˚":{"ha":694,"x_min":450,"x_max":623,"o":"m 579 777 q 610 763 598 777 q 621 730 623 749 q 577 650 619 688 q 493 611 536 611 q 450 657 450 611 q 493 737 450 697 q 579 777 536 777 m 559 749 q 513 722 538 751 q 488 666 488 692 q 512 641 488 641 q 559 666 536 641 q 582 719 582 692 q 559 749 582 747 z "},"¸":{"ha":694,"x_min":91,"x_max":326,"o":"m 234 0 l 203 -70 q 257 -60 234 -60 q 326 -116 326 -60 q 267 -237 326 -179 q 143 -295 208 -295 q 91 -243 91 -295 q 149 -167 91 -187 q 136 -216 136 -199 q 170 -260 136 -260 q 241 -222 208 -260 q 274 -140 274 -184 q 218 -94 274 -94 q 149 -123 182 -94 l 203 0 l 234 0 z "},"˝":{"ha":694,"x_min":412,"x_max":726,"o":"m 542 817 l 568 758 q 412 584 471 715 q 456 743 426 690 q 542 817 486 796 m 699 817 l 726 758 q 569 584 629 715 q 613 743 583 690 q 699 817 643 796 z "},"˛":{"ha":694,"x_min":180,"x_max":296,"o":"m 280 0 q 225 -119 225 -47 q 296 -216 225 -191 l 264 -307 q 180 -168 180 -276 q 248 0 180 -78 l 280 0 z "},"ˇ":{"ha":694,"x_min":468,"x_max":694,"o":"m 474 593 l 473 607 l 473 692 q 468 794 473 738 q 478 802 475 800 l 506 823 q 533 848 521 834 q 532 810 532 829 q 547 724 532 724 q 576 743 558 724 l 602 771 q 677 825 651 825 q 694 821 686 825 l 688 814 l 641 775 q 482 604 569 715 l 474 593 z "},"Š":{"ha":1674,"x_min":183,"x_max":1689,"o":"m 1619 800 l 1628 777 q 1458 706 1553 743 l 1440 699 q 1449 757 1444 723 q 1455 805 1452 784 q 1459 852 1459 834 q 1419 894 1459 894 q 1269 838 1356 894 q 1152 663 1152 762 q 1183 616 1152 627 q 1315 605 1214 605 l 1324 605 q 1326 635 1326 627 q 1310 736 1326 692 q 1377 616 1377 720 l 1377 605 l 1484 607 q 1588 596 1558 607 q 1689 448 1689 560 q 1577 159 1689 298 q 1249 -5 1442 -5 q 1034 109 1107 -5 q 677 3 865 3 q 414 68 533 3 q 183 504 183 196 q 287 824 183 699 q 552 949 391 949 q 822 848 709 949 q 924 712 885 792 q 1012 455 962 631 l 1046 333 q 1096 183 1074 234 q 1231 328 1163 223 q 1314 522 1298 433 l 1282 522 q 1123 540 1169 522 q 1076 605 1076 559 q 1158 775 1076 680 q 1314 896 1224 852 q 1545 964 1403 939 l 1568 968 l 1566 957 q 1555 903 1559 926 l 1544 839 q 1539 800 1539 808 q 1556 780 1539 780 q 1579 785 1567 780 q 1619 800 1607 795 m 1365 524 q 1270 325 1343 429 q 1107 157 1196 221 q 1180 57 1140 86 q 1284 28 1220 28 q 1516 136 1415 28 q 1617 384 1617 244 q 1573 493 1617 463 q 1416 523 1529 523 l 1382 523 l 1365 524 m 1022 134 q 974 262 989 205 l 920 462 q 764 807 855 700 q 538 915 673 915 q 316 820 396 915 q 237 557 237 725 q 269 380 237 469 q 356 224 301 290 q 524 96 425 142 q 730 50 622 50 q 1022 134 874 50 m 1400 1000 l 1400 1015 l 1399 1099 q 1394 1202 1399 1146 q 1404 1209 1402 1208 l 1434 1230 q 1463 1255 1450 1242 q 1461 1217 1461 1236 q 1478 1131 1461 1131 q 1509 1151 1489 1131 l 1535 1178 q 1615 1232 1588 1232 q 1632 1227 1623 1232 l 1626 1222 l 1576 1183 q 1409 1011 1501 1122 l 1400 1000 z "},"š":{"ha":313,"x_min":-64,"x_max":522,"o":"m 414 562 l 406 549 l 373 494 q 336 434 355 464 l 328 423 l 311 435 q 316 446 315 442 q 330 487 330 475 q 285 513 330 513 q 212 482 243 513 q 181 410 181 451 q 195 359 181 389 l 227 289 q 243 212 243 254 q 153 56 243 130 q 15 -7 75 -7 q -42 11 -20 -7 q -64 55 -64 28 q -48 117 -64 87 q 56 45 -6 45 q 144 79 106 45 q 182 157 182 113 q 168 212 182 181 l 128 299 q 117 356 117 325 q 179 482 117 412 q 263 547 221 528 q 368 566 304 566 q 414 562 392 566 m 302 593 l 301 607 l 300 692 q 296 794 300 738 q 306 802 303 800 l 334 823 q 361 848 349 834 q 359 810 359 829 q 375 724 359 724 q 404 743 386 724 l 429 771 q 505 825 479 825 q 522 821 513 825 l 515 814 l 469 775 q 310 604 397 715 l 302 593 z "},"¦":{"ha":694,"x_min":315,"x_max":380,"o":"m 315 926 l 380 926 l 380 466 l 315 466 l 315 926 m 315 213 l 380 213 l 380 -231 l 315 -231 l 315 213 z "},"Ð":{"ha":1539,"x_min":137,"x_max":1611,"o":"m 1181 424 l 1331 424 l 1331 403 l 1173 403 l 1164 377 q 1132 264 1132 285 q 1158 244 1132 244 q 1194 252 1171 244 l 1202 227 l 1186 222 q 1054 177 1132 202 l 1036 171 q 1042 208 1038 189 l 1048 231 q 1097 383 1057 269 l 1103 403 l 1007 403 l 1007 424 l 1111 424 q 1133 503 1133 490 q 1112 529 1133 529 q 1069 515 1101 529 l 987 478 l 906 440 q 751 380 865 422 l 734 374 q 921 129 832 203 q 1118 54 1010 54 q 1306 107 1215 54 q 1454 248 1396 159 q 1552 562 1552 402 q 1454 777 1552 701 q 1173 852 1356 852 q 1017 844 1108 852 l 785 821 q 661 816 725 816 q 530 836 583 816 l 534 848 q 551 917 544 885 l 567 989 l 569 1000 l 594 997 q 587 941 588 965 q 611 913 586 921 q 707 906 636 906 q 837 913 754 906 l 1010 928 q 1175 936 1100 936 q 1499 851 1387 936 q 1611 606 1611 766 q 1556 366 1611 488 q 1407 152 1501 243 q 1074 4 1255 4 q 880 58 957 4 q 711 257 803 112 l 661 337 l 655 347 l 642 342 q 357 279 450 279 q 197 333 258 279 q 137 476 137 387 q 248 673 137 602 q 404 722 323 722 q 649 520 528 722 l 713 410 l 722 396 l 746 406 q 1121 566 946 481 q 1224 614 1183 596 q 1227 597 1227 605 q 1204 488 1227 554 l 1192 456 q 1181 424 1187 444 m 641 369 l 625 395 q 468 613 525 559 q 332 666 410 666 q 218 617 267 666 q 170 503 170 569 q 232 369 170 422 q 387 317 293 317 q 641 369 496 317 z "},"ð":{"ha":484,"x_min":3,"x_max":680,"o":"m 574 795 l 673 827 l 680 807 l 582 775 q 599 663 599 724 q 527 393 599 531 q 327 140 455 255 q 74 -9 162 -9 q 22 13 42 -9 q 3 68 3 34 q 76 275 3 168 q 275 468 149 382 q 399 536 334 508 q 501 566 463 564 q 513 557 513 566 q 480 523 513 541 q 409 496 448 504 q 193 357 283 473 q 120 230 149 299 q 91 113 91 161 q 138 62 91 62 q 313 158 214 62 q 466 373 408 251 q 523 607 523 495 q 491 746 523 676 l 372 707 l 366 728 l 481 765 q 317 866 419 866 q 219 831 259 866 q 180 745 180 796 q 195 675 180 721 q 138 723 138 675 q 217 861 138 794 q 380 928 296 928 q 574 795 511 928 z "},"Ý":{"ha":1805,"x_min":173,"x_max":2002,"o":"m 1169 401 q 1013 138 1076 258 q 1012 128 1012 130 l 1008 88 l 1005 53 q 1004 37 1004 50 l 992 33 q 937 1 954 18 q 902 -57 919 -17 q 871 -199 871 -130 q 887 -266 871 -243 q 943 -302 903 -288 l 909 -397 q 822 -252 822 -366 q 898 -6 822 -159 q 927 90 919 37 q 936 233 936 143 l 935 385 l 935 399 q 768 303 829 376 q 706 132 706 231 q 785 -48 706 28 q 764 -51 770 -51 q 692 -11 720 -51 q 664 92 664 30 q 734 302 664 208 q 931 452 804 397 q 880 676 917 595 q 748 833 834 775 q 562 891 663 891 q 318 795 414 891 q 223 550 223 699 q 313 285 223 406 q 534 133 402 165 l 534 120 q 275 227 376 120 q 173 501 173 334 q 296 811 173 687 q 602 936 418 936 q 891 818 785 936 q 1017 473 997 699 q 1085 476 1055 476 q 1182 469 1122 476 l 1195 488 q 1509 851 1365 742 q 1818 960 1653 960 q 1952 919 1903 960 q 2002 807 2002 878 q 1956 662 2002 736 q 1830 527 1910 587 q 1375 386 1643 386 q 1265 391 1308 386 l 1187 399 q 1169 401 1184 399 m 1211 467 l 1230 465 q 1442 452 1347 452 q 1883 608 1746 452 q 1945 757 1945 679 q 1896 862 1945 821 q 1770 903 1847 903 q 1211 467 1491 903 m 1139 404 l 1128 405 q 1051 411 1072 411 q 1021 409 1042 411 l 1021 373 q 1015 196 1021 283 q 1025 212 1023 210 l 1078 300 l 1131 390 q 1139 404 1133 391 m 1325 1233 l 1360 1174 q 1154 1000 1232 1131 q 1325 1233 1173 1191 z "},"ý":{"ha":530,"x_min":-146,"x_max":585,"o":"m 226 549 q 237 481 237 522 q 197 243 237 397 q 397 464 304 385 q 545 544 490 544 q 585 478 585 544 q 389 103 585 311 q 222 -37 300 8 q 43 -97 144 -81 q -83 -138 -45 -111 q -122 -213 -122 -165 q -85 -272 -122 -250 q 11 -295 -48 -295 q 144 -259 83 -295 q 12 -344 128 -344 q -102 -311 -58 -344 q -146 -224 -146 -277 q -81 -85 -146 -158 q -13 -37 -49 -50 q 123 -14 24 -24 q 268 30 214 -5 q 417 176 355 85 q 477 293 453 228 q 502 401 502 357 q 465 457 502 457 q 290 322 401 457 q 97 13 178 187 l 91 0 l 67 0 l 74 26 q 151 418 151 298 q 123 461 151 461 q 92 454 112 461 q 83 450 89 452 l 77 471 q 87 476 85 475 l 151 507 l 216 543 q 226 549 218 545 m 515 817 l 541 758 q 345 584 420 715 q 515 817 376 777 z "},"Þ":{"ha":1301,"x_min":201,"x_max":1351,"o":"m 900 703 l 804 696 l 709 689 l 511 674 q 374 669 441 669 q 201 701 245 669 l 267 890 l 290 885 l 288 873 q 274 808 274 827 q 303 768 274 780 q 401 756 332 756 q 732 773 513 756 q 951 789 903 787 l 964 789 l 976 807 q 1018 899 1018 869 q 1010 918 1018 907 q 1025 920 1023 920 l 1061 921 q 1101 925 1070 921 l 1111 926 q 1046 839 1090 901 q 1019 802 1032 820 l 1011 791 l 1025 791 l 1077 793 q 1351 614 1351 793 q 1249 374 1351 490 q 987 250 1139 250 q 852 285 905 250 q 728 420 800 319 l 522 144 q 727 218 633 218 q 954 158 813 218 l 1078 104 q 1154 81 1133 81 q 1247 157 1191 81 l 1268 144 q 1259 132 1261 134 l 1210 68 l 1162 1 q 1152 -13 1160 -2 q 996 47 1089 2 q 794 130 867 107 q 653 152 722 152 q 527 119 581 152 q 418 7 473 86 l 398 22 l 900 703 m 946 705 l 938 694 l 902 648 q 789 501 861 596 q 801 484 800 487 l 837 429 q 1048 293 925 293 q 1200 370 1133 293 q 1281 567 1281 463 q 1069 709 1281 709 q 960 706 1031 709 l 946 705 z "},"þ":{"ha":437,"x_min":-147,"x_max":456,"o":"m 412 926 l 283 562 q 456 425 456 562 q 418 263 456 348 q 316 113 380 178 q 157 21 225 21 q 115 56 115 21 q 124 87 115 70 q 183 64 159 64 q 302 136 246 64 q 367 254 340 185 q 393 374 393 322 q 256 492 393 492 l 250 475 q 130 161 159 236 l -56 -313 l -68 -343 q -136 -366 -100 -357 l -147 -369 l -138 -348 q 101 286 -56 -160 l 107 304 l 115 305 q 167 338 151 314 q 223 465 183 362 l 233 492 l 216 492 q 116 486 163 492 l 79 392 l 60 399 l 119 554 l 130 555 l 186 559 l 248 562 q 259 562 250 562 l 390 926 l 412 926 z "},"×":{"ha":593,"x_min":142,"x_max":576,"o":"m 243 555 l 275 576 l 366 424 l 559 566 l 576 537 l 382 396 l 475 243 l 444 220 l 352 374 l 158 231 l 142 260 l 335 401 l 243 555 z "},"¹":{"ha":382,"x_min":225,"x_max":505,"o":"m 350 850 l 347 863 q 358 865 356 865 l 406 876 l 444 885 q 505 907 478 893 q 465 801 491 874 q 296 392 364 521 l 290 389 q 225 366 250 370 q 356 673 277 457 l 399 791 q 418 853 418 842 q 412 861 418 861 q 399 859 406 861 l 380 856 l 356 851 q 350 850 354 851 z "},"²":{"ha":382,"x_min":95,"x_max":561,"o":"m 422 370 l 95 370 l 115 404 q 370 608 247 474 q 494 816 494 742 q 471 872 494 849 q 416 895 449 895 q 341 862 372 895 q 303 777 310 829 q 274 818 274 789 q 331 885 274 856 q 462 914 389 914 q 534 888 507 914 q 561 821 561 863 q 464 656 561 763 q 202 425 367 549 l 186 414 l 336 414 l 359 414 q 409 421 395 414 q 446 456 423 427 q 450 460 447 458 l 471 460 q 422 370 437 410 z "},"³":{"ha":382,"x_min":150,"x_max":567,"o":"m 258 629 q 304 701 284 661 q 322 700 318 700 q 450 736 397 700 q 503 825 503 773 q 485 867 503 850 q 439 883 467 883 q 364 854 396 883 q 323 779 332 826 q 300 812 298 789 q 360 877 302 848 q 490 905 419 905 q 567 837 567 905 q 519 746 567 787 q 398 692 472 705 q 360 677 376 689 q 342 652 345 666 q 342 648 342 651 q 477 538 477 633 q 418 414 477 465 q 275 363 359 363 q 185 384 220 363 q 150 438 150 405 q 156 472 150 452 q 292 418 180 418 q 408 453 363 418 q 452 543 452 488 q 298 633 452 633 q 258 629 286 633 z "},"½":{"ha":966,"x_min":225,"x_max":1012,"o":"m 350 850 l 347 863 q 358 865 356 865 l 406 876 l 444 885 q 505 907 478 893 q 465 801 491 874 q 296 392 364 521 l 290 389 q 225 366 250 370 q 356 673 277 457 l 399 791 q 418 853 418 842 q 412 861 418 861 q 399 859 406 861 l 380 856 l 356 851 q 350 850 354 851 m 876 909 l 309 0 l 279 14 l 848 922 l 876 909 m 873 0 l 546 0 l 566 34 q 821 238 698 104 q 945 446 945 372 q 922 502 945 479 q 867 524 900 524 q 792 492 823 524 q 754 407 761 459 q 725 448 725 419 q 782 515 725 486 q 913 544 840 544 q 985 518 958 544 q 1012 450 1012 492 q 915 286 1012 393 q 653 55 818 180 l 637 43 l 787 43 l 810 44 q 860 51 846 44 q 897 86 874 57 q 901 90 898 87 l 922 90 q 873 0 888 39 z "},"¼":{"ha":966,"x_min":225,"x_max":1034,"o":"m 350 850 l 347 863 q 358 865 356 865 l 406 876 l 444 885 q 505 907 478 893 q 465 801 491 874 q 296 392 364 521 l 290 389 q 225 366 250 370 q 356 673 277 457 l 399 791 q 418 853 418 842 q 412 861 418 861 q 399 859 406 861 l 380 856 l 356 851 q 350 850 354 851 m 876 909 l 309 0 l 279 14 l 848 922 l 876 909 m 800 524 l 800 537 q 819 536 815 536 q 895 539 861 536 q 842 396 895 479 q 705 243 788 313 l 690 231 l 701 231 l 798 230 l 825 230 l 847 290 l 858 321 q 962 437 885 397 q 1021 457 1002 457 q 1034 439 1034 457 q 1034 432 1034 437 q 1006 436 1022 436 q 949 406 972 436 q 897 292 926 375 l 875 231 q 949 241 927 231 q 978 281 972 252 q 994 264 994 275 q 951 220 994 245 q 857 182 909 195 l 793 8 q 764 5 772 6 l 746 1 q 740 0 744 1 l 807 182 l 785 182 l 683 183 l 615 182 q 642 228 633 205 q 779 366 717 254 q 831 506 831 458 q 800 524 831 522 z "},"¾":{"ha":967,"x_min":150,"x_max":1034,"o":"m 258 629 q 304 701 284 661 q 322 700 318 700 q 450 736 397 700 q 503 825 503 773 q 485 867 503 850 q 439 883 467 883 q 364 854 396 883 q 323 779 332 826 q 300 812 298 789 q 360 877 302 848 q 490 905 419 905 q 567 837 567 905 q 519 746 567 787 q 398 692 472 705 q 360 677 376 689 q 342 652 345 666 q 342 648 342 651 q 477 538 477 633 q 418 414 477 465 q 275 363 359 363 q 185 384 220 363 q 150 438 150 405 q 156 472 150 452 q 292 418 180 418 q 408 453 363 418 q 452 543 452 488 q 298 633 452 633 q 258 629 286 633 m 876 909 l 309 0 l 279 14 l 848 922 l 876 909 m 800 524 l 800 537 q 819 536 815 536 q 895 539 861 536 q 842 396 895 479 q 705 243 788 313 l 690 231 l 701 231 l 798 230 l 825 230 l 847 290 l 858 321 q 962 437 885 397 q 1021 457 1002 457 q 1034 439 1034 457 q 1034 432 1034 437 q 1006 436 1022 436 q 949 406 972 436 q 897 292 926 375 l 875 231 q 949 241 927 231 q 978 281 972 252 q 994 264 994 275 q 951 220 994 245 q 857 182 909 195 l 793 8 q 764 5 772 6 l 746 1 q 740 0 744 1 l 807 182 l 785 182 l 683 183 l 615 182 q 642 228 633 205 q 779 366 717 254 q 831 506 831 458 q 800 524 831 522 z "},"¤":{"ha":555,"x_min":113,"x_max":596,"o":"m 472 349 l 533 277 l 495 245 l 435 316 q 319 266 373 266 q 218 302 269 266 l 146 242 l 113 281 l 186 342 q 171 407 171 373 q 237 553 171 482 l 177 624 l 215 656 l 274 586 q 420 642 349 642 q 505 610 465 642 l 564 659 l 596 621 l 536 570 q 550 508 550 538 q 472 349 550 429 m 388 597 q 269 551 320 597 q 217 445 217 505 q 251 353 217 387 q 342 318 285 318 q 453 363 408 318 q 498 474 498 409 q 468 562 498 528 q 388 597 437 597 z "}}}
